<?xml version="1.0" encoding="utf-8"?>
<!-- Generator: Adobe Illustrator 16.0.0, SVG Export Plug-In . SVG Version: 6.00 Build 0)  -->
<!DOCTYPE svg PUBLIC "-//W3C//DTD SVG 1.1//EN" "http://www.w3.org/Graphics/SVG/1.1/DTD/svg11.dtd">
<svg version="1.1" id="Layer_1" xmlns="http://www.w3.org/2000/svg" xmlns:xlink="http://www.w3.org/1999/xlink" x="0px" y="0px"
	 width="1000px" height="1000px" viewBox="0 0 1000 1000" enable-background="new 0 0 1000 1000" xml:space="preserve">
<g>
	<linearGradient id="SVGID_1_" gradientUnits="userSpaceOnUse" x1="226.0469" y1="189.3506" x2="822.8015" y2="786.1052">
		<stop  offset="0" style="stop-color:#046865"/>
		<stop  offset="0.2165" style="stop-color:#066D6A;stop-opacity:0.8557"/>
		<stop  offset="0.4761" style="stop-color:#0E7B79;stop-opacity:0.6826"/>
		<stop  offset="0.7567" style="stop-color:#1A9291;stop-opacity:0.4955"/>
		<stop  offset="0.9" style="stop-color:#21A0A0;stop-opacity:0.4"/>
	</linearGradient>
	<linearGradient id="SVGID_2_" gradientUnits="userSpaceOnUse" x1="101.9546" y1="487.7275" x2="946.8945" y2="487.7275">
		<stop  offset="0" style="stop-color:#046865"/>
		<stop  offset="0.2048" style="stop-color:#3D8A88;stop-opacity:0.7952"/>
		<stop  offset="0.5984" style="stop-color:#A4C8C7;stop-opacity:0.4016"/>
		<stop  offset="0.8719" style="stop-color:#E6F0EF;stop-opacity:0.1281"/>
		<stop  offset="1" style="stop-color:#FFFFFF;stop-opacity:0"/>
	</linearGradient>
	<circle fill="url(#SVGID_1_)" stroke="url(#SVGID_2_)" stroke-miterlimit="10" cx="524.425" cy="487.728" r="421.97"/>
	<path fill-rule="evenodd" clip-rule="evenodd" fill="#FFFFFF" d="M560.326,498.709c4.232-8.938,8.4-18.31,13.055-27.436
		c8.207-16.095,17.288-31.687,27.577-46.571c13.067-18.903,26.646-37.462,36.723-58.297c6.368-13.169,8.007-26.804,6.44-41.077
		c-0.057-0.522-0.141-1.043-0.254-1.556c-0.066-0.298-0.215-0.579-0.136-0.377c-5.359,0-10.552-0.546-15.592,0.104
		c-14.043,1.813-27.356-1.276-40.621-5.131c-3.926-1.141-7.808-2.445-11.765-3.458c-0.782-0.201-2.236,0.306-2.678,0.959
		c-10.471,15.516-31.449,17.797-44.851,12.098c-5.423-2.307-9.243-6.057-11.116-11.704c-4.393-13.235-8.721-26.491-13.275-39.67
		c-0.631-1.825-2.185-3.506-3.688-4.821c-3.634-3.177-7.382-6.245-11.285-9.081c-3.977-2.89-5.633-6.882-6.359-11.476
		c-1.789-11.315-0.999-22.661-0.271-33.988c1.343-20.865,3.446-41.66,7.443-62.196c2.066-10.613,4.929-21.057,9.936-30.762
		c2.703-5.241,7.117-8.454,12.533-10.41c11.97-4.321,24.28-4.428,36.721-2.9c28.689,3.527,57.041,8.857,84.903,16.541
		c26.684,7.359,53.383,14.709,79.83,22.855c17.881,5.507,34.211,14.287,48.204,27.105c9.077,8.314,13.517,19.065,17.161,30.32
		c6.371,19.675,11.551,39.627,14.633,60.132c3.854,25.627,7.83,51.244,12.35,76.76c4.429,24.994,9.676,49.841,14.438,74.776
		c4.939,25.871,10.156,51.7,14.445,77.68c3.35,20.297,6.145,40.724,5.488,61.439c-0.76,24.007-2.812,47.84-9.701,70.963
		c-4.859,16.31-11.269,32.068-18.74,47.364c-5.111,10.463-10.734,20.682-15.648,31.233c-5.497,11.802-7.02,24.783-10.13,37.29
		c-2.468,9.921-5.566,19.647-11.018,28.354c-7.602,12.141-18.557,19.611-32.6,22.86c-21.289,4.925-42.874,7.035-64.656,7.636
		c-15.55,0.43-31.113,0.623-46.649,1.368c-22.674,1.088-45.316,2.877-67.995,3.742c-8.977,0.344-18.008-1.243-27.027-1.504
		c-17.257-0.497-34.111,2.539-50.75,6.75c-20.039,5.071-39.971,10.518-60.682,12.369c-19.585,1.752-39.017,1.086-58.377-2.358
		c-13.59-2.418-26.908-5.903-39.469-11.58c-14.449-6.53-27.065-16.046-39.215-26.127c-14.457-11.995-27.211-25.613-38.17-40.878
		c-17.504-24.381-28.685-51.189-30.722-81.395c-1.288-19.095,0.692-37.966,4.151-56.744c6.088-33.051,19.332-63.051,38.13-90.747
		c9.122-13.438,19.337-25.965,31.526-36.719c21.017-18.541,44.853-32.354,71.335-41.567c18.14-6.312,36.755-10.411,55.942-11.606
		c15.05-0.938,29.814,1.232,44.172,5.554c10.929,3.289,21.774,6.999,32.334,11.312c6.355,2.597,12.269,6.436,18.071,10.194
		c11.297,7.322,21.981,15.508,30.945,25.621C550.701,485.971,555.426,492.521,560.326,498.709z M786.115,667.259
		c0.687-1.081,1.068-1.549,1.307-2.08c7.478-16.649,12.458-34.049,15.692-51.986c2.86-15.862,4.013-31.881,4.63-47.954
		c0.958-24.925,0.804-49.863-1.886-74.651c-2.433-22.427-5.669-44.783-9.185-67.07c-3.859-24.459-8.573-48.781-12.666-73.205
		c-2.723-16.247-5.318-32.527-7.421-48.862c-2.718-21.121-4.459-42.4-10.877-62.852c-2.823-8.996-5.795-17.988-9.432-26.674
		c-3.409-8.138-10.533-13.247-17.58-18.045c-13.521-9.205-28.428-15.705-43.686-21.372c-18.483-6.864-36.988-13.681-55.619-20.129
		c-23.234-8.041-47.059-13.892-71.295-18.042c-12.269-2.101-24.563-3.268-37.01-1.587c-6.003,0.81-10.705,2.852-11.594,9.688
		c-0.146,1.125-0.683,2.197-1.001,3.305c-5.902,20.509-10.093,41.398-12.934,62.516c-1.564,11.624-1.928,23.412-2.764,35.13
		c-0.067,0.949,0.08,2.425,0.682,2.825c3.278,2.183,6.73,4.106,10.228,6.181c0.583-4.251,1.044-7.998,1.614-11.729
		c3.176-20.763,7.163-41.344,14.648-61.061c2.571-6.776,5.492-13.485,11.02-18.495c1.626-1.475,3.846-2.296,6.474-3.809
		c-0.126,1.825-0.121,2.437-0.216,3.034c-2.937,18.662-5.949,37.313-8.809,55.986c-2.237,14.614-4.26,29.261-6.455,43.882
		c-0.293,1.958,0.223,3.052,2.014,3.971c4.204,2.155,8.285,4.547,12.438,6.802c0.947,0.514,1.986,0.859,3.02,1.298
		c0.256-0.696,0.41-0.979,0.461-1.281c2.391-14.067,4.58-28.172,7.211-42.195c2.279-12.15,5.102-24.238,10.31-35.509
		c2.293-4.963,5.641-9.491,8.896-13.932c1.384-1.888,3.797-2.914,6.701-1.823c-0.253,2.336-0.465,4.616-0.752,6.886
		c-1.595,12.595-2.939,25.229-4.879,37.772c-2.79,18.042-6.044,36.013-9.045,54.023c-0.978,5.867-0.894,5.864,4.606,8.503
		c5.528,2.654,11.04,5.344,16.696,8.086c1.174-6.232,2.158-12.012,3.363-17.745c2.913-13.854,5.651-27.756,9.004-41.506
		c2.217-9.088,5.636-17.846,11.491-25.358c2.569-3.294,5.449-6.32,10.425-6.592c-1.312,7.364-2.628,14.45-3.832,21.555
		c-2.504,14.797-5.057,29.586-7.383,44.412c-1.578,10.058-2.844,20.167-4.126,30.268c-0.131,1.029,0.308,2.896,0.94,3.13
		c3.623,1.336,7.334,2.992,11.106,3.259c14.438,1.019,28.749-0.478,42.909-3.394c0.779-0.161,2.012-0.856,2.064-1.397
		c0.538-5.496,0.651-11.015-3.154-15.593c-2.496-3.003-5.884-2.923-9.388-0.997c-4.275,2.351-8.869,4.121-13.325,6.142
		c10.667-17.491,18.15-35.423,17.044-56.2c4.826,0.5,8.268,2.521,10.687,6.048c3.576,5.218,4.189,11.117,3.291,17.219
		c-0.357,2.43-0.106,4.379,1.906,6.191c9.848,8.863,21.519,12.021,34.401,10.803c9.753-0.922,19.46-2.422,27.926-9.129
		c-6.712,19.702-22.388,34.192-50.437,26.122c0,3.609,0.353,7.2-0.063,10.7c-1.432,12.055-6.851,17.834-17.467,18.783
		c-1.312,0.117-2.597,0.539-4.073,0.858c0.37,5.192,1.152,10.121,0.971,15.015c-0.285,7.621-0.268,15.453-2.072,22.779
		c-5.044,20.493-15.007,38.901-26.289,56.568c-15.893,24.89-31.19,50.084-42.889,77.305c-9.744,22.671-17.42,45.853-19.535,70.652
		c-1.788,20.946,1.768,40.758,11.256,59.539c7.38,14.608,16.929,27.742,27.062,40.496c2.912,3.667,5.826,7.331,9.234,11.617
		c-1.823-0.317-2.906-0.315-3.831-0.697c-6.466-2.675-13.276-4.784-19.265-8.29c-13.446-7.871-22.427-19.891-29.539-33.598
		c-13.21-25.462-16.701-52.332-12.646-80.46c0.655-4.543,2.003-9.293,1.268-13.649c-0.83-4.921-3.079-9.853-5.706-14.176
		c-9.934-16.35-25.469-26.206-42.035-34.488c-14.02-7.007-28.866-11.835-44.111-15.612c-22.874-5.667-45.944-6.877-69.113-3.184
		c-12.598,2.009-25.119,4.958-37.38,8.501c-16.193,4.679-31.43,11.782-45.374,21.397c-15.303,10.553-26.278,24.889-35.604,40.716
		c-4.74,8.045-7.765,16.513-7.831,25.885c-0.044,6.327,0.283,12.67,3.824,18.234c6.462,10.151,14.158,19.311,22.861,27.607
		c18.404,17.543,39.767,30.396,63.229,39.992c20.035,8.195,40.82,13.513,62.213,16.387c15.745,2.115,31.573,2.94,47.494,2.058
		c22.67-1.256,44.817-5.028,66.281-12.546c0.942-0.33,1.935-0.52,3.576-0.951c-1.068,1.967-1.71,3.375-2.549,4.654
		c-4.124,6.295-9.779,10.912-16.25,14.602c-13.99,7.979-29.348,11.179-45.143,12.521c-19.342,1.646-38.629,0.783-57.857-1.898
		c-22.357-3.117-44.047-8.742-64.894-17.367c-9.473-3.919-18.641-8.575-27.815-12.836c-2.717,1.808-5.458,3.936-8.466,5.572
		c-7.439,4.051-15.7,5.215-23.957,6.009c-10.457,1.005-20.957,1.74-31.405-0.189c-3.994-0.737-7.947-1.696-12.382-2.654
		c0.306,4.015,0.516,7.772,0.889,11.514c1.577,15.829,6.556,30.552,14.899,44.066c15.271,24.738,37.59,41.247,63.474,53.308
		c24.9,11.601,51.236,18.083,78.594,19.929c12.025,0.81,24.331,1.669,36.171,0.044c17.509-2.403,34.747-6.871,52.045-10.703
		c15.615-3.457,31.247-6.746,47.35-6.014c7.437,0.338,14.828,1.738,22.264,2.006c24.645,0.884,49.167-1.349,73.616-3.972
		c20.964-2.249,41.9-4.936,62.724-8.226c13.119-2.074,26.058-5.407,38.955-8.661c2.896-0.729,5.829-3.03,7.799-5.397
		c7.419-8.913,10.388-19.863,12.359-30.94c1.98-11.129,3.081-22.418,4.461-33.649c2.444-19.904,5.206-39.779,7.097-59.736
		c2.164-22.82,3.323-45.721,1.833-68.664c-0.145-2.238-0.323-4.474-0.544-7.503c1.746,1.222,3.007,1.921,4.05,2.862
		c5.759,5.198,8.046,12.259,9.645,19.435c5.091,22.849,4.163,45.947,2.263,69.049C787.643,651.939,786.876,659.229,786.115,667.259z
		 M257.057,594.45c-0.262,0.242-0.493,0.35-0.536,0.51c-4.363,16.18-6.429,32.699-7.203,49.399c-0.029,0.633,0.792,1.712,1.423,1.9
		c4.707,1.415,9.416,3.489,14.218,3.773c8.981,0.533,18.049,0.349,27.035-0.234c5.069-0.329,10.047-2.047,15.067-3.139
		c-0.006-0.323-0.011-0.646-0.016-0.968C287.175,631.734,270.14,615.018,257.057,594.45z M523.78,280.215
		c3.093,6.795,6.074,12.639,8.419,18.729c1.786,4.642,5.021,5.975,9.474,5.883c6.144-0.127,11.771-1.457,16.119-6.486
		C546.615,292.385,535.654,286.544,523.78,280.215z"/>
</g>
</svg>
