# Blender v2.79 (sub 0) OBJ File: ''
# www.blender.org
mtllib fe_abs.mtl
o Body_Undressed_1.002
v -4.912844 98.915489 -8.713651
v -3.324058 98.712341 -8.925165
v -3.084774 96.295570 -8.488474
v -1.554273 96.190262 -8.615102
v -1.691022 98.566338 -9.103054
v -0.000001 96.149414 -8.658310
v 0.000186 98.501099 -9.173696
v 3.084762 96.298058 -8.478563
v 3.325347 98.712692 -8.925354
v 4.915751 98.912560 -8.728115
v 1.554799 96.189873 -8.616353
v 1.691710 98.566673 -9.105163
v -3.402000 101.030144 -9.347210
v -1.730295 100.850983 -9.563038
v -4.803697 107.735718 -9.165225
v -3.295979 107.508102 -9.522030
v -3.334493 105.387917 -9.582094
v -4.877736 105.628723 -9.182870
v -4.773664 112.246361 -9.174437
v -3.262414 112.003983 -9.663901
v -3.267192 109.721901 -9.555540
v -4.763629 109.953133 -9.099044
v -3.204204 114.280396 -9.794296
v -1.600097 114.097260 -9.858219
v -1.634682 111.876274 -9.752412
v -1.699290 107.523941 -9.395075
v -1.701649 105.325111 -9.672046
v -1.717935 103.103050 -9.771665
v -3.381560 103.255333 -9.541614
v -1.664681 109.679108 -9.521894
v -4.958659 103.507912 -9.151890
v -5.008198 101.272194 -9.047181
v -4.706867 114.522285 -9.399001
v -1.393823 120.307556 -10.478164
v -1.462315 118.326591 -10.286975
v -2.963097 118.427689 -10.516894
v -2.848887 120.436409 -10.747364
v -3.072180 116.408333 -10.037818
v -1.542597 116.294342 -9.879313
v -1.299144 122.226654 -10.448739
v -2.685795 122.469704 -10.753462
v -0.000181 118.321281 -9.901462
v 0.000235 120.260201 -10.130435
v -0.000116 116.298531 -9.510209
v 0.000147 122.127182 -10.090554
v 0.000261 113.997818 -9.631122
v -4.396937 120.576424 -10.776132
v -4.504347 118.578506 -10.440157
v -4.586212 116.607330 -9.855802
v 0.000307 109.792397 -8.871924
v 0.000229 111.851875 -9.481661
v 0.000013 105.386902 -9.599791
v -0.000215 103.060028 -9.838629
v -4.215271 122.708328 -10.863952
v -2.427842 124.394089 -10.390128
v -1.196185 123.990334 -10.095424
v 0.000141 123.836540 -9.757812
v -2.015277 125.830154 -9.927379
v -1.034679 125.478821 -9.718720
v 0.000130 125.336098 -9.434242
v -1.780966 126.967209 -9.515905
v -0.893327 126.666046 -9.419032
v 0.000126 126.555420 -9.311563
v 0.000155 100.774315 -9.641830
v 0.001913 107.557358 -8.244081
v 1.729635 100.851685 -9.557570
v 3.404408 101.029533 -9.356806
v 3.337146 105.388802 -9.598406
v 3.297047 107.507858 -9.534737
v 4.803729 107.735535 -9.165614
v 4.878777 105.629242 -9.186184
v 3.268442 109.720810 -9.566878
v 3.262447 112.003693 -9.667034
v 4.778193 112.245155 -9.185480
v 4.766625 109.952423 -9.107147
v 1.636705 111.877762 -9.739704
v 1.600770 114.097359 -9.852975
v 3.204947 114.279793 -9.805818
v 1.701039 105.325958 -9.678876
v 1.696946 107.524826 -9.400347
v 1.717285 103.102928 -9.769238
v 3.383085 103.255379 -9.550267
v 1.664883 109.679420 -9.519597
v 4.961374 103.507896 -9.161284
v 5.012622 101.271088 -9.061954
v 4.714875 114.519722 -9.420444
v 2.962202 118.426163 -10.527084
v 1.460483 118.325684 -10.293348
v 1.392693 120.307274 -10.482442
v 2.847966 120.435829 -10.754710
v 3.071905 116.406776 -10.052217
v 1.541064 116.293892 -9.886227
v 1.298791 122.226768 -10.449863
v 2.685249 122.470062 -10.756610
v 4.397375 120.575569 -10.784958
v 4.506136 118.575859 -10.453808
v 4.591358 116.603432 -9.876317
v 4.215267 122.708878 -10.868303
v 2.427719 124.394226 -10.390150
v 1.196585 123.990196 -10.094581
v 2.015486 125.829475 -9.925189
v 1.035174 125.478401 -9.717265
v 1.784290 126.965172 -9.507339
v 0.893782 126.664879 -9.415289
v 3.324835 98.693001 -9.480222
v 3.403896 101.009842 -9.911674
v 1.298279 122.207077 -11.004731
v 2.684737 122.450371 -11.311478
v -0.000251 113.978127 -10.185989
v -0.000283 111.832184 -10.036529
v -0.000628 116.278839 -10.065077
v 1.540552 116.274200 -10.441094
v -4.504858 118.558815 -10.995025
v -4.586724 116.587639 -10.410669
v -4.878248 105.609032 -9.737738
v -4.959171 103.488220 -9.706758
v -3.296491 107.488411 -10.076898
v -3.267704 109.702209 -10.110408
v -1.299656 122.206963 -11.003607
v -1.196697 123.970642 -10.650291
v -4.804209 107.716026 -9.720093
v 4.214756 122.689186 -11.423171
v -3.335005 105.368225 -10.136962
v 2.427207 124.374535 -10.945018
v -0.000326 98.481407 -9.728563
v 1.691198 98.546982 -9.660030
v -4.764141 109.933441 -9.653912
v -1.035191 125.459129 -10.273588
v 1.196073 123.970505 -10.649448
v -3.262926 111.984291 -10.218769
v -0.000693 118.301590 -10.456329
v 1.459971 118.305992 -10.848216
v -4.774176 112.226669 -9.729304
v -0.000499 105.367210 -10.154658
v 0.001401 107.537666 -8.798948
v -0.000727 103.040337 -10.393497
v -0.000357 100.754623 -10.196698
v -1.600609 114.077568 -10.413087
v -4.913356 98.895798 -9.268518
v -5.008709 101.252502 -9.602049
v -0.000371 123.816849 -10.312679
v -0.000382 125.316406 -9.989110
v -0.000277 120.240509 -10.685303
v 1.392181 120.287582 -11.037310
v -0.000205 109.772705 -9.426792
v -3.204716 114.260704 -10.349164
v -4.707379 114.502594 -9.953869
v 2.014974 125.809784 -10.480057
v -1.635194 111.856583 -10.307280
v -1.699802 107.504250 -9.949943
v -3.382072 103.235641 -10.096481
v -1.702161 105.305420 -10.226913
v -2.849399 120.416718 -11.302232
v -2.686307 122.450012 -11.308330
v -0.893839 126.646355 -9.973900
v -3.324570 98.692650 -9.480033
v -1.691534 98.546646 -9.657922
v -0.000386 126.535728 -9.866430
v -2.015789 125.810463 -10.482246
v 2.961690 118.406471 -11.081952
v 3.071393 116.387085 -10.607085
v 2.847454 120.416138 -11.309578
v 4.714364 114.500031 -9.975312
v 4.590847 116.583740 -10.431185
v -1.781478 126.947517 -10.070773
v -3.085286 96.275879 -9.043342
v -1.554785 96.170570 -9.169970
v 4.878265 105.609550 -9.741052
v 4.960862 103.488205 -9.716152
v -1.394335 120.287865 -11.033031
v 4.777681 112.225464 -9.740348
v 3.084250 96.278366 -9.033431
v 1.554287 96.170181 -9.171221
v -0.000365 122.107491 -10.645422
v -1.462827 118.306900 -10.841843
v -4.397449 120.556732 -11.330999
v 1.636193 111.858070 -10.294572
v 1.600258 114.077667 -10.407843
v 3.204435 114.260101 -10.360685
v 1.700527 105.306267 -10.233744
v 1.696434 107.505135 -9.955215
v 1.716773 103.083237 -10.324105
v 0.893270 126.645187 -9.970157
v -3.402512 101.010452 -9.902078
v -1.730807 100.831291 -10.117906
v 3.382573 103.235687 -10.105135
v 1.783778 126.945480 -10.062206
v 1.664371 109.659729 -10.074465
v 1.034662 125.458710 -10.272133
v -4.215783 122.688637 -11.418819
v -1.543109 116.274651 -10.434180
v 5.012110 101.251396 -9.616822
v -0.000513 96.129723 -9.213178
v 4.803217 107.715843 -9.720482
v 4.766113 109.932732 -9.662015
v 3.336634 105.369110 -10.153274
v 3.296535 107.488167 -10.089604
v 3.267930 109.701118 -10.121746
v 1.729123 100.831993 -10.112438
v 3.261935 111.984001 -10.221902
v -2.963609 118.407997 -11.071762
v -3.072692 116.388641 -10.592686
v 4.396863 120.555878 -11.339826
v -2.428354 124.374397 -10.944996
v -1.665193 109.659416 -10.076762
v -1.718447 103.083359 -10.326532
v 4.505624 118.556168 -11.008676
v 4.915239 98.892868 -9.282983
vn 0.0197 -0.6306 0.7758
vn 0.0842 0.1987 0.9764
vn -0.2691 -0.2169 0.9384
vn -0.5247 -0.5064 0.6842
vn 0.0003 -0.6295 0.7770
vn 0.0000 0.2040 0.9789
vn 0.2712 -0.2145 0.9383
vn -0.0845 0.1991 0.9763
vn -0.0201 -0.6314 0.7751
vn 0.5239 -0.5043 0.6864
vn 0.1682 0.1263 0.9776
vn 0.0931 0.1426 0.9854
vn -0.6126 0.0074 0.7904
vn -0.6179 0.0226 0.7859
vn 0.1420 -0.0267 0.9895
vn 0.1093 -0.0199 0.9938
vn -0.5898 0.0555 0.8056
vn -0.5865 0.0189 0.8097
vn 0.1346 0.0345 0.9903
vn 0.1704 0.0576 0.9837
vn 0.1346 0.0821 0.9875
vn -0.0871 0.0943 0.9917
vn -0.0764 0.0378 0.9963
vn -0.0557 -0.1253 0.9905
vn -0.2208 -0.0605 0.9734
vn 0.1752 0.0359 0.9839
vn 0.0706 0.0227 0.9972
vn -0.1990 0.1159 0.9731
vn -0.6243 0.0513 0.7794
vn -0.6524 0.0756 0.7540
vn -0.5365 -0.4835 0.6916
vn -0.6020 0.1238 0.7888
vn -0.2131 0.0546 0.9755
vn -0.0915 0.0710 0.9933
vn -0.0317 0.1808 0.9830
vn -0.1874 0.1583 0.9694
vn 0.0465 0.1714 0.9841
vn -0.1405 0.1122 0.9837
vn -0.2472 -0.0831 0.9654
vn -0.4343 0.2875 0.8536
vn 0.0020 0.1557 0.9878
vn 0.0015 0.0511 0.9987
vn 0.0012 0.0887 0.9960
vn 0.0006 -0.0965 0.9953
vn -0.0013 0.0227 0.9997
vn -0.7244 0.1052 0.6813
vn -0.6948 0.1731 0.6981
vn -0.6343 0.1946 0.7482
vn -0.0008 0.1836 0.9830
vn -0.0025 0.1286 0.9917
vn 0.0013 -0.2143 0.9767
vn -0.0002 0.0093 0.9999
vn -0.5148 0.6686 0.5366
vn -0.8187 0.0319 0.5733
vn -0.2771 -0.1870 0.9424
vn -0.0002 -0.1987 0.9800
vn -0.2594 -0.2048 0.9438
vn -0.7973 0.0005 0.6036
vn -0.0009 -0.1881 0.9821
vn -0.0183 0.6139 0.7891
vn -0.4488 0.6569 0.6058
vn -0.0008 0.6019 0.7985
vn -0.0008 0.1457 0.9893
vn 0.0013 -0.0839 0.9965
vn -0.1631 0.1268 0.9784
vn -0.0910 0.1426 0.9856
vn -0.1420 -0.0264 0.9895
vn 0.6161 0.0225 0.7873
vn 0.6099 0.0071 0.7924
vn -0.1096 -0.0208 0.9937
vn -0.1315 0.0332 0.9908
vn 0.5872 0.0182 0.8092
vn 0.5917 0.0560 0.8042
vn -0.1638 0.0584 0.9847
vn 0.0893 0.0940 0.9915
vn -0.1274 0.0854 0.9882
vn 0.0795 0.0408 0.9960
vn 0.0598 -0.1240 0.9905
vn 0.2251 -0.0617 0.9724
vn -0.0674 0.0245 0.9974
vn -0.1721 0.0367 0.9844
vn 0.2022 0.1133 0.9727
vn 0.6247 0.0515 0.7791
vn 0.6551 0.0754 0.7517
vn 0.5386 -0.4845 0.6893
vn 0.6060 0.1252 0.7855
vn 0.0346 0.1791 0.9832
vn 0.0933 0.0693 0.9932
vn 0.2156 0.0535 0.9750
vn 0.1910 0.1576 0.9688
vn 0.1445 0.1136 0.9829
vn -0.0412 0.1717 0.9843
vn 0.4359 0.2865 0.8531
vn 0.2486 -0.0842 0.9649
vn 0.6961 0.1722 0.6970
vn 0.7255 0.1041 0.6803
vn 0.6371 0.1943 0.7459
vn 0.5155 0.6681 0.5366
vn 0.8195 0.0315 0.5722
vn 0.2774 -0.1877 0.9422
vn 0.7980 -0.0016 0.6026
vn 0.2582 -0.2064 0.9438
vn 0.4504 0.6541 0.6077
vn 0.0174 0.6128 0.7901
vn -0.0772 -0.7828 -0.6174
vn -0.5970 -0.6428 -0.4800
vn -0.4109 -0.4406 -0.7981
vn -0.0842 -0.1987 -0.9764
vn 0.0000 -0.2040 -0.9789
vn -0.0004 -0.7871 -0.6167
vn 0.4079 -0.4431 -0.7982
vn 0.5979 -0.6436 -0.4778
vn 0.0785 -0.7825 -0.6176
vn 0.0845 -0.1991 -0.9763
vn -0.1682 -0.1263 -0.9776
vn -0.0931 -0.1426 -0.9854
vn -0.7867 0.0278 -0.6167
vn -0.1093 0.0199 -0.9938
vn -0.1420 0.0267 -0.9895
vn -0.7848 0.0287 -0.6190
vn -0.8139 -0.0245 -0.5805
vn -0.1704 -0.0576 -0.9837
vn -0.1346 -0.0345 -0.9903
vn -0.8060 -0.0053 -0.5919
vn -0.1346 -0.0821 -0.9875
vn 0.0764 -0.0378 -0.9963
vn 0.0871 -0.0943 -0.9917
vn 0.2208 0.0605 -0.9734
vn 0.0557 0.1253 -0.9905
vn -0.0706 -0.0227 -0.9972
vn -0.1752 -0.0359 -0.9839
vn 0.1990 -0.1159 -0.9731
vn -0.7839 -0.0022 -0.6209
vn -0.6449 -0.6010 -0.4720
vn -0.7711 -0.0754 -0.6322
vn -0.8039 -0.0384 -0.5935
vn 0.2131 -0.0546 -0.9755
vn 0.1874 -0.1583 -0.9694
vn 0.0317 -0.1808 -0.9830
vn 0.0915 -0.0710 -0.9933
vn -0.0465 -0.1714 -0.9841
vn 0.1405 -0.1122 -0.9837
vn 0.2472 0.0831 -0.9654
vn -0.0625 0.3932 -0.9173
vn -0.0020 -0.1557 -0.9878
vn -0.0015 -0.0511 -0.9987
vn -0.0012 -0.0887 -0.9960
vn -0.0006 0.0965 -0.9953
vn 0.0013 -0.0227 -0.9997
vn -0.6941 -0.0098 -0.7197
vn -0.7216 -0.1030 -0.6845
vn -0.7694 -0.0993 -0.6309
vn 0.0008 -0.1836 -0.9830
vn 0.0025 -0.1286 -0.9917
vn -0.0013 0.2143 -0.9767
vn 0.0002 -0.0093 -0.9999
vn -0.4949 0.6194 -0.6093
vn -0.5770 0.3056 -0.7573
vn 0.2771 0.1870 -0.9424
vn 0.0002 0.1987 -0.9800
vn 0.2594 0.2048 -0.9438
vn -0.5381 0.3772 -0.7537
vn 0.0009 0.1881 -0.9821
vn -0.3786 0.7673 -0.5175
vn 0.2883 0.7160 -0.6358
vn 0.0015 0.7549 -0.6558
vn 0.0008 -0.1457 -0.9893
vn -0.0013 0.0839 -0.9965
vn 0.0910 -0.1426 -0.9856
vn 0.1631 -0.1268 -0.9784
vn 0.1420 0.0264 -0.9895
vn 0.1096 0.0208 -0.9937
vn 0.7884 0.0275 -0.6145
vn 0.7862 0.0296 -0.6172
vn 0.1315 -0.0332 -0.9908
vn 0.1638 -0.0584 -0.9847
vn 0.8124 -0.0265 -0.5825
vn 0.8056 -0.0061 -0.5924
vn -0.0893 -0.0940 -0.9915
vn -0.0795 -0.0408 -0.9960
vn 0.1274 -0.0854 -0.9882
vn -0.0598 0.1240 -0.9905
vn -0.2251 0.0617 -0.9724
vn 0.0674 -0.0245 -0.9974
vn 0.1721 -0.0367 -0.9844
vn -0.2022 -0.1133 -0.9727
vn 0.7836 -0.0014 -0.6213
vn 0.7692 -0.0756 -0.6345
vn 0.6423 -0.6019 -0.4745
vn 0.8013 -0.0403 -0.5969
vn -0.0346 -0.1791 -0.9832
vn -0.1910 -0.1576 -0.9688
vn -0.2156 -0.0535 -0.9750
vn -0.0933 -0.0693 -0.9932
vn 0.0412 -0.1717 -0.9843
vn -0.1445 -0.1136 -0.9829
vn -0.2486 0.0842 -0.9649
vn 0.0609 0.3944 -0.9169
vn 0.6929 -0.0083 -0.7209
vn 0.7200 -0.1011 -0.6865
vn 0.7670 -0.0982 -0.6341
vn 0.4941 0.6201 -0.6094
vn -0.2774 0.1877 -0.9422
vn 0.5759 0.3064 -0.7578
vn -0.2582 0.2064 -0.9438
vn 0.5370 0.3783 -0.7540
vn 0.3803 0.7679 -0.5154
vn -0.2854 0.7176 -0.6352
usemtl default
s 1
f 4//1 5//2 2//3 3//4
f 5//2 4//1 6//5 7//6
f 9//7 12//8 11//9 8//10
f 6//5 11//9 12//8 7//6
f 13//11 2//3 5//2 14//12
f 15//13 18//14 17//15 16//16
f 19//17 22//18 21//19 20//20
f 23//21 20//20 25//22 24//23
f 16//16 17//15 27//24 26//25
f 17//15 29//26 28//27 27//24
f 30//28 25//22 20//20 21//19
f 21//19 16//16 26//25 30//28
f 18//14 31//29 29//26 17//15
f 29//26 13//11 14//12 28//27
f 2//3 13//11 32//30 1//31
f 13//11 29//26 31//29 32//30
f 16//16 21//19 22//18 15//13
f 20//20 23//21 33//32 19//17
f 34//33 37//34 36//35 35//36
f 38//37 39//38 35//36 36//35
f 40//39 41//40 37//34 34//33
f 42//41 43//42 34//33 35//36
f 44//43 42//41 35//36 39//38
f 34//33 43//42 45//44 40//39
f 38//37 23//21 24//23 39//38
f 46//45 44//43 39//38 24//23
f 47//46 48//47 36//35 37//34
f 48//47 49//48 38//37 36//35
f 49//48 33//32 23//21 38//37
f 50//49 51//50 25//22 30//28
f 52//51 27//24 28//27 53//52
f 47//46 37//34 41//40 54//53
f 55//54 41//40 40//39 56//55
f 57//56 56//55 40//39 45//44
f 59//57 58//58 55//54 56//55
f 60//59 59//57 56//55 57//56
f 59//57 62//60 61//61 58//58
f 62//60 59//57 60//59 63//62
f 14//12 5//2 7//6 64//63
f 24//23 25//22 51//50 46//45
f 27//24 52//51 65//64 26//25
f 28//27 14//12 64//63 53//52
f 30//28 26//25 65//64 50//49
f 12//8 9//7 67//65 66//66
f 68//67 71//68 70//69 69//70
f 72//71 75//72 74//73 73//74
f 76//75 73//74 78//76 77//77
f 79//78 68//67 69//70 80//79
f 81//80 82//81 68//67 79//78
f 73//74 76//75 83//82 72//71
f 80//79 69//70 72//71 83//82
f 82//81 84//83 71//68 68//67
f 66//66 67//65 82//81 81//80
f 85//84 67//65 9//7 10//85
f 84//83 82//81 67//65 85//84
f 75//72 72//71 69//70 70//69
f 86//86 78//76 73//74 74//73
f 87//87 90//88 89//89 88//90
f 88//90 92//91 91//92 87//87
f 90//88 94//93 93//94 89//89
f 89//89 43//42 42//41 88//90
f 88//90 42//41 44//43 92//91
f 45//44 43//42 89//89 93//94
f 77//77 78//76 91//92 92//91
f 87//87 96//95 95//96 90//88
f 91//92 97//97 96//95 87//87
f 78//76 86//86 97//97 91//92
f 76//75 51//50 50//49 83//82
f 81//80 79//78 52//51 53//52
f 94//93 90//88 95//96 98//98
f 93//94 94//93 99//99 100//100
f 93//94 100//100 57//56 45//44
f 99//99 101//101 102//102 100//100
f 100//100 102//102 60//59 57//56
f 103//103 104//104 102//102 101//101
f 60//59 102//102 104//104 63//62
f 7//6 12//8 66//66 64//63
f 51//50 76//75 77//77 46//45
f 65//64 52//51 79//78 80//79
f 64//63 66//66 81//80 53//52
f 65//64 80//79 83//82 50//49
f 46//45 77//77 92//91 44//43
f 167//105 166//106 156//107 157//108
f 157//108 125//109 193//110 167//105
f 105//111 172//112 173//113 126//114
f 193//110 125//109 126//114 173//113
f 184//115 185//116 157//108 156//107
f 121//117 117//118 123//119 115//120
f 133//121 130//122 118//123 127//124
f 146//125 138//126 149//127 130//122
f 117//118 150//128 152//129 123//119
f 123//119 152//129 206//130 151//131
f 205//132 118//123 130//122 149//127
f 118//123 205//132 150//128 117//118
f 115//120 123//119 151//131 116//133
f 151//131 206//130 185//116 184//115
f 156//107 139//134 140//135 184//115
f 184//115 140//135 116//133 151//131
f 117//118 121//117 127//124 118//123
f 130//122 133//121 147//136 146//125
f 170//137 175//138 201//139 153//140
f 202//141 201//139 175//138 191//142
f 119//143 170//137 153//140 154//144
f 131//145 175//138 170//137 143//146
f 111//147 191//142 175//138 131//145
f 170//137 119//143 174//148 143//146
f 202//141 191//142 138//126 146//125
f 109//149 138//126 191//142 111//147
f 176//150 153//140 201//139 113//151
f 113//151 201//139 202//141 114//152
f 114//152 202//141 146//125 147//136
f 145//153 205//132 149//127 110//154
f 134//155 136//156 206//130 152//129
f 176//150 190//157 154//144 153//140
f 204//158 120//159 119//143 154//144
f 141//160 174//148 119//143 120//159
f 128//161 120//159 204//158 159//162
f 142//163 141//160 120//159 128//161
f 128//161 159//162 165//164 155//165
f 155//165 158//166 142//163 128//161
f 185//116 137//167 125//109 157//108
f 138//126 109//149 110//154 149//127
f 152//129 150//128 135//168 134//155
f 206//130 136//156 137//167 185//116
f 205//132 145//153 135//168 150//128
f 126//114 199//169 106//170 105//111
f 196//171 197//172 194//173 168//174
f 198//175 200//176 171//177 195//178
f 177//179 178//180 179//181 200//176
f 180//182 181//183 197//172 196//171
f 182//184 180//182 196//171 186//185
f 200//176 198//175 188//186 177//179
f 181//183 188//186 198//175 197//172
f 186//185 196//171 168//174 169//187
f 199//169 182//184 186//185 106//170
f 192//188 208//189 105//111 106//170
f 169//187 192//188 106//170 186//185
f 195//178 194//173 197//172 198//175
f 163//190 171//177 200//176 179//181
f 160//191 132//192 144//193 162//194
f 132//192 160//191 161//195 112//196
f 162//194 144//193 107//197 108//198
f 144//193 132//192 131//145 143//146
f 132//192 112//196 111//147 131//145
f 174//148 107//197 144//193 143//146
f 178//180 112//196 161//195 179//181
f 160//191 162//194 203//199 207//200
f 161//195 160//191 207//200 164//201
f 179//181 161//195 164//201 163//190
f 177//179 188//186 145//153 110//154
f 182//184 136//156 134//155 180//182
f 108//198 122//202 203//199 162//194
f 107//197 129//203 124//204 108//198
f 107//197 174//148 141//160 129//203
f 124//204 129//203 189//205 148//206
f 129//203 141//160 142//163 189//205
f 187//207 148//206 189//205 183//208
f 142//163 158//166 183//208 189//205
f 125//109 137//167 199//169 126//114
f 110//154 109//149 178//180 177//179
f 135//168 181//183 180//182 134//155
f 137//167 136//156 182//184 199//169
f 135//168 145//153 188//186 181//183
f 109//149 111//147 112//196 178//180
f 75//72 70//69 194//173 195//178
f 71//68 84//83 169//187 168//174
f 95//96 96//95 207//200 203//199
f 22//18 19//17 133//121 127//124
f 85//84 10//85 208//189 192//188
f 104//104 103//103 187//207 183//208
f 63//62 104//104 183//208 158//166
f 86//86 74//73 171//177 163//190
f 19//17 33//32 147//136 133//121
f 11//9 6//5 193//110 173//113
f 101//101 99//99 124//204 148//206
f 8//10 11//9 173//113 172//112
f 32//30 31//29 116//133 140//135
f 49//48 48//47 113//151 114//152
f 84//83 85//84 192//188 169//187
f 9//7 8//10 172//112 105//111
f 61//61 62//60 155//165 165//164
f 31//29 18//14 115//120 116//133
f 55//54 58//58 159//162 204//158
f 10//85 9//7 105//111 208//189
f 62//60 63//62 158//166 155//165
f 2//3 1//31 139//134 156//107
f 103//103 101//101 148//206 187//207
f 33//32 49//48 114//152 147//136
f 97//97 86//86 163//190 164//201
f 3//4 2//3 156//107 166//106
f 18//14 15//13 121//117 115//120
f 54//53 41//40 154//144 190//157
f 98//98 95//96 203//199 122//202
f 58//58 61//61 165//164 159//162
f 94//93 98//98 122//202 108//198
f 48//47 47//46 176//150 113//151
f 6//5 4//1 167//105 193//110
f 1//31 32//30 140//135 139//134
f 41//40 55//54 204//158 154//144
f 4//1 3//4 166//106 167//105
f 47//46 54//53 190//157 176//150
f 99//99 94//93 108//198 124//204
f 96//95 97//97 164//201 207//200
f 70//69 71//68 168//174 194//173
f 74//73 75//72 195//178 171//177
f 15//13 22//18 127//124 121//117
