# Blender v2.79 (sub 0) OBJ File: ''
# www.blender.org
mtllib fe_lowerback.mtl
o Body_Undressed_1.015
v -1.051123 103.694351 8.007574
v 0.000199 103.732918 7.953353
v 0.000137 105.702751 7.452916
v -1.196223 105.664543 7.477109
v -2.430417 105.578392 7.564985
v -2.165527 103.611679 8.199679
v -3.401844 103.523209 8.542698
v -3.753400 105.470284 7.682912
v -4.831336 103.426331 8.952477
v -5.206298 105.386574 7.872267
v 1.051105 103.695061 8.007387
v 1.195893 105.663498 7.471653
v 2.430132 105.575836 7.555277
v 2.165373 103.611824 8.199565
v 3.401720 103.523468 8.542404
v 3.753489 105.468842 7.677724
v 4.831168 103.426880 8.952026
v 5.206359 105.385170 7.868156
v -1.518587 113.318893 5.458835
v -0.000216 113.334946 5.290725
v -1.390442 109.445061 6.119869
v -0.000180 109.486206 6.102583
v -0.000169 111.406143 5.591448
v -1.455001 111.383003 5.685394
v -1.304528 107.562485 6.801711
v 0.000242 107.603683 6.804572
v -3.019375 113.238762 5.548311
v -2.890414 111.300148 5.722803
v -2.764286 109.343140 6.069559
v -2.624710 107.466560 6.795840
v -4.304219 111.189987 5.613859
v -4.471875 113.118523 5.443961
v -7.048456 111.127907 5.291865
v -7.160787 112.980804 4.864043
v -4.153668 109.234138 5.971430
v -7.016331 109.229080 6.006032
v -5.581460 109.194420 6.010194
v -5.694365 111.121727 5.462008
v -3.993045 107.353149 6.772477
v -5.444232 107.301003 6.880504
v -5.865901 113.019379 5.214944
v 1.519477 113.317932 5.451896
v 1.390346 109.442131 6.105817
v 1.455781 111.381645 5.674585
v 1.304429 107.558823 6.792262
v 3.019777 113.238518 5.538023
v 2.889961 111.299294 5.704822
v 2.761101 109.337990 6.042080
v 2.622706 107.459007 6.776215
v 4.301162 111.189743 5.589743
v 4.470102 113.118263 5.431244
v 7.157425 112.979034 4.852532
v 7.045405 111.123428 5.273343
v 4.150914 109.225800 5.931933
v 7.015649 109.221313 5.985690
v 5.582905 109.184288 5.974769
v 5.691503 111.118874 5.435943
v 3.992521 107.340378 6.741684
v 5.446731 107.288589 6.852125
v 5.862611 113.018524 5.201111
v -2.430077 105.638756 7.771167
v -3.753060 105.530647 7.889094
v 2.430472 105.636200 7.761459
v 2.623046 107.519371 6.982397
v 5.583245 109.244652 6.180951
v 5.447072 107.348953 7.058307
v 4.151255 109.286163 6.138115
v 7.045745 111.183792 5.479525
v 7.015989 109.281677 6.191872
v 7.157765 113.039398 5.058714
v 5.691844 111.179237 5.642125
v 5.862951 113.078888 5.407293
v 3.992862 107.400742 6.947866
v 4.301502 111.250107 5.795925
v 4.470442 113.178627 5.637426
v 1.196234 105.723862 7.677835
v 1.304770 107.619186 6.998444
v 0.000125 113.395309 5.496907
v 1.519818 113.378296 5.658078
v -1.050782 103.754715 8.213756
v -2.165187 103.672043 8.405862
v -1.195882 105.724907 7.683291
v -1.390101 109.505424 6.326051
v -2.763946 109.403503 6.275741
v -1.454660 111.443367 5.891576
v -2.890074 111.360512 5.928985
v 5.206699 105.445534 8.074338
v 3.753829 105.529205 7.883906
v 0.000583 107.664047 7.010754
v -1.304187 107.622849 7.007893
v -2.624370 107.526924 7.002022
v 1.390687 109.502495 6.311999
v 1.456122 111.442009 5.880767
v -4.153327 109.294502 6.177612
v -3.019035 113.299126 5.754493
v -3.992705 107.413513 6.978659
v 0.000540 103.793282 8.159535
v 1.051446 103.755424 8.213569
v 0.000478 105.763115 7.659098
v -4.471535 113.178886 5.650143
v -4.303878 111.250351 5.820041
v 0.000172 111.466507 5.797630
v -1.518246 113.379257 5.665017
v -7.048116 111.188271 5.498047
v -5.694025 111.182091 5.668190
v -5.865561 113.079742 5.421126
v 2.165714 103.672188 8.405747
v 3.402061 103.583832 8.748586
v -7.160447 113.041168 5.070225
v -7.015991 109.289444 6.212214
v -5.443892 107.361366 7.086686
v -5.581120 109.254784 6.216376
v 2.761441 109.398354 6.248262
v 2.890301 111.359657 5.911004
v 4.831509 103.487244 9.158208
v -5.205957 105.446938 8.078448
v 3.020118 113.298882 5.744205
v 0.000161 109.546570 6.308765
v -4.830996 103.486694 9.158658
v -3.401504 103.583572 8.748879
vn 0.0137 -0.8613 -0.5078
vn -0.0296 -0.3089 -0.9506
vn -0.0022 -0.2931 -0.9561
vn -0.0006 -0.8561 -0.5168
vn 0.0073 -0.8814 -0.4722
vn -0.0582 -0.3583 -0.9318
vn -0.0004 -0.9107 -0.4130
vn -0.0898 -0.4256 -0.9004
vn -0.5226 -0.8216 -0.2274
vn -0.7341 -0.3898 -0.5560
vn 0.0252 -0.3111 -0.9500
vn -0.0153 -0.8619 -0.5068
vn 0.0554 -0.3630 -0.9301
vn -0.0079 -0.8824 -0.4704
vn 0.0892 -0.4319 -0.8975
vn 0.0008 -0.9114 -0.4114
vn 0.7335 -0.3946 -0.5533
vn 0.5216 -0.8223 -0.2273
vn 0.0088 -0.2819 -0.9594
vn -0.0348 -0.1686 -0.9850
vn -0.0037 -0.1864 -0.9825
vn -0.0045 -0.2911 -0.9567
vn -0.0038 -0.3375 -0.9413
vn 0.0123 -0.3448 -0.9386
vn 0.0367 -0.1386 -0.9897
vn -0.0284 0.5772 -0.8161
vn -0.0754 0.5596 -0.8253
vn 0.0551 -0.2727 -0.9605
vn 0.0282 -0.3710 -0.9282
vn 0.0881 -0.1440 -0.9856
vn 0.0456 0.5714 -0.8194
vn 0.0423 -0.2955 -0.9544
vn -0.2639 -0.5929 -0.7608
vn 0.1078 -0.1997 -0.9739
vn -0.5696 -0.7265 -0.3843
vn -0.6409 -0.2070 -0.7391
vn -0.0082 -0.4106 -0.9117
vn -0.7179 -0.3516 -0.6007
vn 0.1213 0.5508 -0.8258
vn -0.5385 0.3895 -0.7472
vn -0.0022 0.5269 -0.8499
vn 0.0284 -0.1664 -0.9856
vn -0.0174 -0.2814 -0.9594
vn -0.0200 -0.3465 -0.9378
vn 0.0260 0.5789 -0.8149
vn -0.0415 -0.1338 -0.9901
vn 0.0717 0.5601 -0.8253
vn -0.0630 -0.2711 -0.9605
vn -0.0353 -0.3750 -0.9264
vn -0.0467 0.5737 -0.8177
vn -0.0904 -0.1376 -0.9863
vn -0.0455 -0.2934 -0.9549
vn -0.1051 -0.1946 -0.9752
vn 0.2659 -0.5888 -0.7633
vn 0.6416 -0.2035 -0.7395
vn 0.5707 -0.7263 -0.3830
vn 0.0054 -0.4169 -0.9089
vn 0.7161 -0.3570 -0.5998
vn -0.1197 0.5529 -0.8245
vn 0.5388 0.3909 -0.7462
vn 0.1021 -0.4850 0.8685
vn 0.0011 -0.4892 0.8722
vn 0.0022 0.2931 0.9561
vn 0.0296 0.3089 0.9506
vn 0.0582 0.3583 0.9318
vn 0.1794 -0.4570 0.8712
vn 0.2190 -0.4046 0.8879
vn 0.0898 0.4256 0.9004
vn -0.4247 -0.3568 0.8321
vn -0.6790 0.2381 0.6944
vn -0.1006 -0.4837 0.8694
vn -0.0252 0.3111 0.9500
vn -0.0554 0.3630 0.9301
vn -0.1795 -0.4552 0.8721
vn -0.2196 -0.4030 0.8884
vn -0.0892 0.4319 0.8975
vn 0.4255 -0.3560 0.8319
vn 0.6792 0.2428 0.6926
vn -0.0088 0.2819 0.9594
vn 0.0045 0.2911 0.9567
vn 0.0037 0.1864 0.9825
vn 0.0348 0.1686 0.9850
vn -0.0123 0.3448 0.9386
vn 0.0038 0.3375 0.9413
vn 0.0051 0.8327 0.5536
vn -0.0663 0.8126 0.5790
vn -0.0367 0.1386 0.9897
vn -0.0551 0.2727 0.9605
vn -0.0282 0.3710 0.9282
vn -0.0881 0.1440 0.9856
vn -0.1211 0.8107 0.5728
vn -0.0423 0.2955 0.9544
vn -0.3573 -0.0328 0.9334
vn -0.1078 0.1997 0.9739
vn -0.7602 0.1279 0.6370
vn -0.5885 -0.3724 0.7176
vn 0.0082 0.4106 0.9117
vn -0.7011 0.2454 0.6695
vn -0.1258 0.8216 0.5559
vn -0.6253 0.6990 0.3471
vn 0.0019 0.8642 0.5031
vn 0.0174 0.2814 0.9594
vn -0.0284 0.1664 0.9856
vn 0.0200 0.3465 0.9378
vn 0.0683 0.8115 0.5804
vn -0.0021 0.8323 0.5543
vn 0.0415 0.1338 0.9901
vn 0.0630 0.2711 0.9605
vn 0.0353 0.3750 0.9264
vn 0.0904 0.1376 0.9863
vn 0.1228 0.8091 0.5747
vn 0.0455 0.2934 0.9549
vn 0.3547 -0.0374 0.9342
vn 0.1051 0.1946 0.9752
vn 0.7596 0.1258 0.6381
vn 0.5874 -0.3720 0.7187
vn -0.0054 0.4169 0.9089
vn 0.7035 0.2490 0.6656
vn 0.1255 0.8204 0.5578
vn 0.6257 0.6977 0.3489
usemtl default
s 1
f 1//1 4//2 3//3 2//4
f 1//1 6//5 5//6 4//2
f 7//7 8//8 5//6 6//5
f 9//9 10//10 8//8 7//7
f 3//3 12//11 11//12 2//4
f 13//13 14//14 11//12 12//11
f 13//13 16//15 15//16 14//14
f 16//15 18//17 17//18 15//16
f 21//19 24//20 23//21 22//22
f 22//22 26//23 25//24 21//19
f 24//20 28//25 27//26 19//27
f 29//28 28//25 24//20 21//19
f 25//24 30//29 29//28 21//19
f 4//2 5//6 30//29 25//24
f 31//30 32//31 27//26 28//25
f 29//28 35//32 31//30 28//25
f 37//33 38//34 31//30 35//32
f 37//33 36//35 33//36 38//34
f 39//37 35//32 29//28 30//29
f 40//38 37//33 35//32 39//37
f 5//6 8//8 39//37 30//29
f 10//10 40//38 39//37 8//8
f 38//34 41//39 32//31 31//30
f 41//39 38//34 33//36 34//40
f 24//20 19//27 20//41 23//21
f 26//23 3//3 4//2 25//24
f 23//21 44//42 43//43 22//22
f 45//44 26//23 22//22 43//43
f 46//45 47//46 44//42 42//47
f 44//42 47//46 48//48 43//43
f 48//48 49//49 45//44 43//43
f 49//49 13//13 12//11 45//44
f 46//45 51//50 50//51 47//46
f 50//51 54//52 48//48 47//46
f 50//51 57//53 56//54 54//52
f 53//55 55//56 56//54 57//53
f 48//48 54//52 58//57 49//49
f 54//52 56//54 59//58 58//57
f 58//57 16//15 13//13 49//49
f 58//57 59//58 18//17 16//15
f 51//50 60//59 57//53 50//51
f 53//55 57//53 60//59 52//60
f 20//41 42//47 44//42 23//21
f 12//11 3//3 26//23 45//44
f 80//61 97//62 99//63 82//64
f 80//61 82//64 61//65 81//66
f 120//67 81//66 61//65 62//68
f 119//69 120//67 62//68 116//70
f 99//63 97//62 98//71 76//72
f 63//73 76//72 98//71 107//74
f 63//73 107//74 108//75 88//76
f 88//76 108//75 115//77 87//78
f 83//79 118//80 102//81 85//82
f 118//80 83//79 90//83 89//84
f 85//82 103//85 95//86 86//87
f 84//88 83//79 85//82 86//87
f 90//83 83//79 84//88 91//89
f 82//64 90//83 91//89 61//65
f 101//90 86//87 95//86 100//91
f 84//88 86//87 101//90 94//92
f 112//93 94//92 101//90 105//94
f 112//93 105//94 104//95 110//96
f 96//97 91//89 84//88 94//92
f 111//98 96//97 94//92 112//93
f 61//65 91//89 96//97 62//68
f 116//70 62//68 96//97 111//98
f 105//94 101//90 100//91 106//99
f 106//99 109//100 104//95 105//94
f 85//82 102//81 78//101 103//85
f 89//84 90//83 82//64 99//63
f 102//81 118//80 92//102 93//103
f 77//104 92//102 118//80 89//84
f 117//105 79//106 93//103 114//107
f 93//103 92//102 113//108 114//107
f 113//108 92//102 77//104 64//109
f 64//109 77//104 76//72 63//73
f 117//105 114//107 74//110 75//111
f 74//110 114//107 113//108 67//112
f 74//110 67//112 65//113 71//114
f 68//115 71//114 65//113 69//116
f 113//108 64//109 73//117 67//112
f 67//112 73//117 66//118 65//113
f 73//117 64//109 63//73 88//76
f 73//117 88//76 87//78 66//118
f 75//111 74//110 71//114 72//119
f 68//115 70//120 72//119 71//114
f 78//101 102//81 93//103 79//106
f 76//72 77//104 89//84 99//63
f 17//18 18//17 87//78 115//77
f 51//50 46//45 117//105 75//111
f 42//47 20//41 78//101 79//106
f 32//31 41//39 106//99 100//91
f 59//58 56//54 65//113 66//118
f 10//10 9//9 119//69 116//70
f 6//5 1//1 80//61 81//66
f 40//38 10//10 116//70 111//98
f 55//56 53//55 68//115 69//116
f 36//35 37//33 112//93 110//96
f 14//14 15//16 108//75 107//74
f 53//55 52//60 70//120 68//115
f 1//1 2//4 97//62 80//61
f 46//45 42//47 79//106 117//105
f 2//4 11//12 98//71 97//62
f 34//40 33//36 104//95 109//100
f 15//16 17//18 115//77 108//75
f 20//41 19//27 103//85 78//101
f 52//60 60//59 72//119 70//120
f 33//36 36//35 110//96 104//95
f 7//7 6//5 81//66 120//67
f 37//33 40//38 111//98 112//93
f 60//59 51//50 75//111 72//119
f 27//26 32//31 100//91 95//86
f 9//9 7//7 120//67 119//69
f 19//27 27//26 95//86 103//85
f 56//54 55//56 69//116 65//113
f 18//17 59//58 66//118 87//78
f 41//39 34//40 109//100 106//99
f 11//12 14//14 107//74 98//71
