# Blender v2.79 (sub 0) OBJ File: ''
# www.blender.org
mtllib fe_quads.mtl
o Body_Undressed_1.010
v -11.271471 71.627739 -8.040450
v -9.333015 71.245178 -8.320661
v -15.143446 72.624313 -3.830443
v -14.233652 72.385475 -5.687552
v -7.286285 70.905975 -7.970027
v -13.300459 75.038155 -7.468060
v -11.527513 74.571541 -8.446718
v -12.946064 72.022964 -7.142432
v -9.485460 74.108673 -8.771310
v -7.338731 73.694763 -8.387838
v -5.295373 70.663193 -6.904433
v -5.262762 73.374008 -7.290912
v -16.551697 92.973297 -4.158788
v -15.247860 92.716095 -6.705787
v -15.460621 90.062584 -6.638608
v -16.727001 90.216354 -4.081389
v -10.940902 91.031425 -9.135949
v -13.258899 92.085709 -8.432105
v -4.106624 87.154953 -6.855851
v -6.199533 88.350014 -8.204990
v -8.550527 89.711967 -9.004645
v -4.398786 85.407402 -7.436229
v -6.582004 86.361649 -8.679837
v -4.650693 83.348129 -7.774776
v -4.809803 81.062431 -7.893911
v -16.400604 81.628342 -3.931495
v -16.058250 78.661858 -3.883760
v -15.642838 75.660522 -3.862060
v -16.777218 87.428680 -4.043292
v -16.647659 84.569733 -3.992999
v -5.149278 76.036568 -7.575292
v -4.984918 78.611046 -7.789664
v -7.020942 81.684601 -9.039029
v -7.169045 79.111389 -8.943891
v -7.289470 76.442207 -8.705719
v -9.538491 76.942841 -9.150980
v -11.687746 77.497368 -8.812473
v -11.719617 80.384239 -9.093397
v -9.492514 79.717613 -9.408113
v -14.982802 78.470230 -6.053534
v -15.235447 81.461159 -6.242064
v -14.662281 75.444908 -5.887485
v -15.434273 84.427422 -6.426412
v -15.549981 87.308670 -6.575383
v -9.381315 82.431816 -9.521233
v -11.677550 83.234512 -9.265437
v -11.546893 85.993790 -9.324549
v -9.209288 85.037872 -9.485769
v -6.849896 84.121506 -8.948214
v -13.719415 83.953735 -8.205435
v -13.648546 81.013954 -7.997683
v -11.294175 88.598007 -9.276514
v -8.935704 87.477905 -9.329251
v -13.542498 89.523941 -8.419111
v -13.526420 78.040314 -7.743011
v -13.711967 86.815331 -8.362736
v -15.183867 72.616631 -3.961823
v -15.683258 75.652840 -3.993440
v -10.981322 91.023743 -9.267329
v -8.590947 89.704285 -9.136025
v -11.311892 71.620056 -8.171830
v -9.373436 71.237495 -8.452041
v -13.299319 92.078026 -8.563485
v -13.582918 89.516258 -8.550491
v -11.334596 88.590324 -9.407894
v -15.288280 92.708412 -6.837167
v -16.592117 92.965614 -4.290168
v -16.767422 90.208672 -4.212769
v -15.501041 90.054901 -6.769988
v -11.728167 77.489685 -8.943853
v -13.566840 78.032631 -7.874392
v -7.326705 70.898293 -8.101407
v -14.274073 72.377792 -5.818933
v -12.986485 72.015282 -7.273812
v -15.023223 78.462547 -6.184914
v -9.525881 74.100990 -8.902690
v -15.590402 87.300987 -6.706763
v -13.752388 86.807648 -8.494116
v -11.567933 74.563858 -8.578098
v -7.379151 73.687080 -8.519218
v -16.688080 84.562050 -4.124379
v -15.474693 84.419739 -6.557792
v -5.335793 70.655510 -7.035813
v -13.340879 75.030472 -7.599440
v -16.817638 87.420998 -4.174672
v -11.587314 85.986107 -9.455929
v -5.303183 73.366325 -7.422292
v -16.098671 78.654175 -4.015140
v -13.688967 81.006271 -8.129063
v -13.759835 83.946053 -8.336815
v -16.441025 81.620659 -4.062876
v -15.275867 81.453476 -6.373445
v -14.702702 75.437225 -6.018865
v -8.976125 87.470222 -9.460631
v -4.147045 87.147270 -6.987231
v -6.239954 88.342331 -8.336370
v -6.622425 86.353966 -8.811217
v -11.717971 83.226830 -9.396817
v -9.421736 82.424133 -9.652613
v -9.249708 85.030190 -9.617149
v -4.439207 85.399719 -7.567609
v -4.691113 83.340446 -7.906156
v -6.890316 84.113823 -9.079594
v -7.329891 76.434525 -8.837099
v -4.850224 81.054749 -8.025290
v -5.189699 76.028885 -7.706672
v -11.760037 80.376556 -9.224777
v -5.025339 78.603363 -7.921044
v -7.209466 79.103706 -9.075271
v -9.578912 76.935158 -9.282360
v -7.061363 81.676918 -9.170409
v -9.532934 79.709930 -9.539494
vn 0.6476 0.1391 0.7491
vn 0.3289 -0.6820 0.6532
vn 0.0912 -0.6572 0.7482
vn 0.3525 0.1448 0.9245
vn -0.1397 -0.6350 0.7598
vn -0.3436 -0.6290 0.6973
vn -0.3024 0.1288 0.9444
vn 0.0168 0.1411 0.9898
vn 0.6451 0.0751 0.7604
vn 0.4993 -0.5220 0.6915
vn 0.7974 -0.0349 0.6023
vn 0.5979 0.7330 0.3242
vn -0.0356 0.5916 0.8054
vn -0.0959 0.0173 0.9952
vn 0.1641 0.7233 0.6707
vn -0.4172 -0.0903 0.9043
vn 0.6099 -0.2214 0.7609
vn 0.5709 0.3150 0.7581
vn -0.3302 0.0241 0.9436
vn -0.3153 0.0781 0.9457
vn 0.6479 0.0019 0.7617
vn 0.6525 -0.0425 0.7566
vn -0.3086 0.1093 0.9449
vn 0.6447 0.0370 0.7635
vn 0.0088 0.1128 0.9936
vn -0.0091 0.0716 0.9974
vn 0.3366 0.0731 0.9388
vn 0.3548 0.1119 0.9282
vn 0.8348 0.1105 0.5393
vn 0.8274 0.0919 0.5540
vn -0.0869 0.0077 0.9962
vn -0.0789 -0.0045 0.9969
vn 0.8371 0.1360 0.5298
vn -0.0742 -0.0070 0.9972
vn 0.8196 0.0671 0.5690
vn -0.0899 0.0172 0.9958
vn 0.8110 0.0168 0.5848
vn -0.0970 0.0147 0.9951
vn -0.0406 0.0211 0.9989
vn -0.0893 -0.0278 0.9956
vn 0.2380 -0.0121 0.9712
vn 0.2966 0.0322 0.9544
vn -0.3616 -0.0336 0.9317
vn 0.6306 -0.1222 0.7664
vn 0.6038 0.0529 0.7954
vn 0.6343 0.0813 0.7688
vn -0.1603 -0.0765 0.9841
vn 0.1623 -0.0576 0.9850
vn 0.5510 0.7066 0.4439
vn 0.5134 -0.0412 0.8571
vn 0.4706 0.6773 0.5655
vn 0.3283 0.6824 0.6530
vn 0.0142 -0.4952 0.8686
vn 0.5465 -0.6825 0.4853
vn 0.6493 0.1075 0.7529
vn 0.5619 0.0068 0.8272
vn -0.6476 -0.1391 -0.7491
vn -0.3525 -0.1448 -0.9245
vn -0.3390 -0.7313 -0.5918
vn -0.5340 -0.7069 -0.4639
vn -0.1136 -0.7559 -0.6447
vn -0.0168 -0.1411 -0.9898
vn 0.3024 -0.1288 -0.9444
vn 0.1180 -0.7711 -0.6257
vn 0.7597 -0.1000 -0.6425
vn 0.5191 -0.7424 -0.4234
vn -0.7974 0.0349 -0.6023
vn -0.9958 0.0418 -0.0815
vn -0.7335 0.6713 -0.1056
vn -0.4758 0.7108 -0.5181
vn 0.5671 0.5085 -0.6479
vn 0.8028 0.3591 -0.4760
vn 0.7846 0.0178 -0.6197
vn 0.4172 0.0903 -0.9043
vn 0.3302 -0.0241 -0.9436
vn 0.7611 -0.0536 -0.6464
vn 0.7597 -0.0909 -0.6439
vn 0.3153 -0.0781 -0.9457
vn 0.7598 -0.1010 -0.6422
vn 0.3086 -0.1093 -0.9449
vn -0.0088 -0.1128 -0.9936
vn -0.3548 -0.1119 -0.9282
vn -0.3366 -0.0731 -0.9388
vn 0.0091 -0.0716 -0.9974
vn -0.8348 -0.1105 -0.5393
vn -0.9897 -0.1240 -0.0711
vn -0.9921 -0.0995 -0.0758
vn -0.8274 -0.0919 -0.5540
vn -0.8371 -0.1360 -0.5298
vn -0.9867 -0.1482 -0.0669
vn -0.8195 -0.0671 -0.5690
vn -0.9947 -0.0673 -0.0772
vn -0.9968 -0.0150 -0.0779
vn -0.8110 -0.0168 -0.5848
vn 0.0406 -0.0211 -0.9989
vn -0.2966 -0.0322 -0.9544
vn -0.2380 0.0121 -0.9712
vn 0.0893 0.0278 -0.9956
vn 0.3616 0.0336 -0.9317
vn 0.7676 -0.0134 -0.6407
vn -0.6038 -0.0529 -0.7954
vn -0.6343 -0.0813 -0.7688
vn -0.1623 0.0576 -0.9850
vn 0.1603 0.0765 -0.9841
vn -0.1711 0.6771 -0.7157
vn 0.1581 0.6107 -0.7759
vn -0.5134 0.0412 -0.8571
vn 0.4047 0.5494 -0.7310
vn -0.7494 -0.6620 -0.0133
vn -0.6464 -0.6995 -0.3046
vn -0.6493 -0.1075 -0.7529
vn -0.5618 -0.0068 -0.8272
usemtl default
s 1
f 6//1 8//2 1//3 7//4
f 2//5 5//6 10//7 9//8
f 12//9 10//7 5//6 11//10
f 15//11 14//12 13//13 16//14
f 20//15 23//16 22//17 19//18
f 33//19 34//20 32//21 25//22
f 32//21 34//20 35//23 31//24
f 31//24 35//23 10//7 12//9
f 10//7 35//23 36//25 9//8
f 36//25 39//26 38//27 37//28
f 40//29 41//30 26//31 27//32
f 42//33 40//29 27//32 28//34
f 9//8 36//25 37//28 7//4
f 43//35 30//36 26//31 41//30
f 43//35 44//37 29//38 30//36
f 45//39 48//40 47//41 46//42
f 34//20 33//19 45//39 39//26
f 33//19 49//43 48//40 45//39
f 24//44 49//43 33//19 25//22
f 34//20 39//26 36//25 35//23
f 50//45 51//46 38//27 46//42
f 29//38 44//37 15//11 16//14
f 48//40 53//47 52//48 47//41
f 18//49 54//50 52//48 17//51
f 20//15 21//52 53//47 23//16
f 49//43 23//16 53//47 48//40
f 23//16 49//43 24//44 22//17
f 3//53 4//54 42//33 28//34
f 7//4 1//3 2//5 9//8
f 37//28 38//27 51//46 55//55
f 7//4 37//28 55//55 6//1
f 46//42 47//41 56//56 50//45
f 46//42 38//27 39//26 45//39
f 47//41 52//48 54//50 56//56
f 17//51 52//48 53//47 21//52
f 42//33 4//54 8//2 6//1
f 54//50 18//49 14//12 15//11
f 55//55 51//46 41//30 40//29
f 6//1 55//55 40//29 42//33
f 51//46 50//45 43//35 41//30
f 50//45 56//56 44//37 43//35
f 56//56 54//50 15//11 44//37
f 84//57 79//58 61//59 74//60
f 62//61 76//62 80//63 72//64
f 87//65 83//66 72//64 80//63
f 69//67 68//68 67//69 66//70
f 96//71 95//72 101//73 97//74
f 111//75 105//76 108//77 109//78
f 108//77 106//79 104//80 109//78
f 106//79 87//65 80//63 104//80
f 80//63 76//62 110//81 104//80
f 110//81 70//82 107//83 112//84
f 75//85 88//86 91//87 92//88
f 93//89 58//90 88//86 75//85
f 76//62 79//58 70//82 110//81
f 82//91 92//88 91//87 81//92
f 82//91 81//92 85//93 77//94
f 99//95 98//96 86//97 100//98
f 109//78 112//84 99//95 111//75
f 111//75 99//95 100//98 103//99
f 102//100 105//76 111//75 103//99
f 109//78 104//80 110//81 112//84
f 90//101 98//96 107//83 89//102
f 85//93 68//68 69//67 77//94
f 100//98 86//97 65//103 94//104
f 63//105 59//106 65//103 64//107
f 96//71 97//74 94//104 60//108
f 103//99 100//98 94//104 97//74
f 97//74 101//73 102//100 103//99
f 57//109 58//90 93//89 73//110
f 79//58 76//62 62//61 61//59
f 70//82 71//111 89//102 107//83
f 79//58 84//57 71//111 70//82
f 98//96 90//101 78//112 86//97
f 98//96 99//95 112//84 107//83
f 86//97 78//112 64//107 65//103
f 59//106 60//108 94//104 65//103
f 93//89 84//57 74//60 73//110
f 64//107 69//67 66//70 63//105
f 71//111 75//85 92//88 89//102
f 84//57 93//89 75//85 71//111
f 89//102 92//88 82//91 90//101
f 90//101 82//91 77//94 78//112
f 78//112 77//94 69//67 64//107
f 32//21 31//24 106//79 108//77
f 30//36 29//38 85//93 81//92
f 18//49 17//51 59//106 63//105
f 14//12 18//49 63//105 66//70
f 24//44 25//22 105//76 102//100
f 8//2 4//54 73//110 74//60
f 20//15 19//18 95//72 96//71
f 16//14 13//13 67//69 68//68
f 28//34 27//32 88//86 58//90
f 21//52 20//15 96//71 60//108
f 13//13 14//12 66//70 67//69
f 29//38 16//14 68//68 85//93
f 31//24 12//9 87//65 106//79
f 3//53 28//34 58//90 57//109
f 27//32 26//31 91//87 88//86
f 22//17 24//44 102//100 101//73
f 17//51 21//52 60//108 59//106
f 26//31 30//36 81//92 91//87
f 12//9 11//10 83//66 87//65
f 11//10 5//6 72//64 83//66
f 2//5 1//3 61//59 62//61
f 19//18 22//17 101//73 95//72
f 4//54 3//53 57//109 73//110
f 25//22 32//21 108//77 105//76
f 1//3 8//2 74//60 61//59
f 5//6 2//5 62//61 72//64
o Body_Undressed.002
v 11.271392 71.627739 -8.040491
v 9.333014 71.245262 -8.320697
v 14.233707 72.385269 -5.687394
v 15.143257 72.623817 -3.830722
v 7.286515 70.906082 -7.970109
v 11.527491 74.571960 -8.446790
v 13.300454 75.038239 -7.468081
v 12.945884 72.022568 -7.142497
v 7.338713 73.694687 -8.387821
v 9.485389 74.108887 -8.771355
v 5.295150 70.662910 -6.904192
v 5.262669 73.374046 -7.290843
v 16.551666 92.973412 -4.158823
v 15.247680 92.716049 -6.705951
v 16.726940 90.216408 -4.081459
v 15.460258 90.062408 -6.639015
v 10.941006 91.031631 -9.135967
v 13.258652 92.085884 -8.432274
v 4.106923 87.154922 -6.856142
v 6.199474 88.350266 -8.204987
v 8.550408 89.711960 -9.004632
v 4.398835 85.407303 -7.436325
v 6.581974 86.361633 -8.679851
v 4.650775 83.347839 -7.774867
v 4.809998 81.062622 -7.894083
v 16.058451 78.662209 -3.883341
v 16.400469 81.628471 -3.931796
v 15.642941 75.660751 -3.861887
v 16.647491 84.570190 -3.993432
v 16.777138 87.428749 -4.043433
v 5.149318 76.036621 -7.575333
v 4.984963 78.610947 -7.789704
v 7.020725 81.684654 -9.038961
v 7.168880 79.111710 -8.943882
v 7.289351 76.442329 -8.705720
v 9.538198 76.943184 -9.151013
v 11.719768 80.384537 -9.093362
v 11.687709 77.497528 -8.812489
v 9.492237 79.717766 -9.408101
v 14.982955 78.470612 -6.053358
v 15.235122 81.461823 -6.242699
v 14.662348 75.444878 -5.887342
v 15.433893 84.427460 -6.426980
v 15.549831 87.308647 -6.575567
v 11.546782 85.993958 -9.324601
v 11.677409 83.234856 -9.265512
v 9.381410 82.431976 -9.521236
v 9.209278 85.038109 -9.485769
v 6.849871 84.121498 -8.948216
v 13.719192 83.953934 -8.205635
v 13.648288 81.014626 -7.998016
v 11.294113 88.598083 -9.276554
v 8.935631 87.477844 -9.329235
v 13.542174 89.523758 -8.419352
v 13.526458 78.040970 -7.743072
v 13.711809 86.815254 -8.362847
v 7.447070 73.674088 -8.740036
v 7.397707 76.421730 -9.057935
v 13.408811 75.017639 -7.820295
v 14.770704 75.424278 -6.239557
v 9.593745 74.088287 -9.123569
v 9.646555 76.922585 -9.503228
v 16.835297 90.195808 -4.433674
v 15.568614 90.041809 -6.991230
v 16.660023 92.952812 -4.511038
v 15.356036 92.695450 -7.058166
v 6.690331 86.341034 -9.032065
v 6.958228 84.100899 -9.300431
v 4.759131 83.327240 -8.127082
v 8.658765 89.691360 -9.356847
v 9.043987 87.457245 -9.681450
v 11.379748 71.607140 -8.392706
v 11.635847 74.551361 -8.799005
v 9.441370 71.224663 -8.672912
v 13.054240 72.001968 -7.494711
v 7.394872 70.885483 -8.322324
v 15.091311 78.450012 -6.405572
v 13.634814 78.020370 -8.095285
v 15.251614 72.603218 -4.182936
v 15.751298 75.640152 -4.214101
v 11.796065 77.476929 -9.164703
v 4.507192 85.386703 -7.788540
v 13.827548 83.933334 -8.557850
v 13.820166 86.794655 -8.715062
v 13.756644 80.994026 -8.350230
v 13.650531 89.503159 -8.771566
v 5.403506 70.642311 -7.256407
v 5.371026 73.353447 -7.643057
v 15.658188 87.288048 -6.927782
v 11.655138 85.973358 -9.676816
v 14.342064 72.364670 -6.039608
v 4.918355 81.042023 -8.246297
v 7.129081 81.664055 -9.391176
v 16.508825 81.607872 -4.284011
v 15.343478 81.441223 -6.594913
v 5.093319 78.590347 -8.141918
v 16.166807 78.641609 -4.235555
v 16.755848 84.549591 -4.345647
v 15.542250 84.406860 -6.779195
v 16.885494 87.408150 -4.395648
v 13.367008 92.065285 -8.784489
v 11.049362 91.011032 -9.488182
v 11.402470 88.577484 -9.628769
v 9.489766 82.411377 -9.873451
v 5.257675 76.016022 -7.927547
v 11.828124 80.363937 -9.445577
v 7.277236 79.091110 -9.296097
v 9.600594 79.697166 -9.760316
v 11.785766 83.214256 -9.617727
v 9.317635 85.017509 -9.837984
v 4.215280 87.134323 -7.208357
v 6.307830 88.329666 -8.557201
vn -0.0913 -0.6572 0.7482
vn -0.3289 -0.6821 0.6531
vn -0.6476 0.1391 0.7491
vn -0.3525 0.1448 0.9245
vn 0.3024 0.1288 0.9444
vn 0.3437 -0.6289 0.6973
vn 0.1397 -0.6350 0.7598
vn -0.0168 0.1411 0.9898
vn -0.6451 0.0752 0.7604
vn -0.4993 -0.5220 0.6915
vn 0.0356 0.5916 0.8054
vn -0.5980 0.7330 0.3242
vn -0.7974 -0.0349 0.6024
vn 0.0959 0.0172 0.9952
vn -0.6099 -0.2213 0.7609
vn 0.4172 -0.0903 0.9043
vn -0.1642 0.7233 0.6707
vn -0.5708 0.3150 0.7582
vn -0.6479 0.0020 0.7617
vn 0.3153 0.0781 0.9457
vn 0.3302 0.0241 0.9436
vn -0.6525 -0.0425 0.7566
vn 0.3086 0.1093 0.9449
vn -0.6447 0.0370 0.7635
vn -0.0088 0.1128 0.9936
vn -0.3366 0.0731 0.9388
vn 0.0091 0.0716 0.9974
vn -0.3547 0.1119 0.9282
vn 0.0869 0.0079 0.9962
vn -0.8274 0.0919 0.5540
vn -0.8348 0.1105 0.5392
vn 0.0789 -0.0044 0.9969
vn -0.8371 0.1360 0.5298
vn 0.0741 -0.0071 0.9972
vn 0.0900 0.0172 0.9958
vn -0.8195 0.0671 0.5690
vn 0.0971 0.0146 0.9951
vn -0.8110 0.0168 0.5848
vn -0.2380 -0.0121 0.9712
vn 0.0893 -0.0278 0.9956
vn 0.0406 0.0211 0.9989
vn -0.2966 0.0322 0.9544
vn 0.3616 -0.0336 0.9317
vn -0.6306 -0.1222 0.7664
vn -0.6343 0.0813 0.7688
vn -0.6037 0.0529 0.7954
vn -0.1623 -0.0576 0.9850
vn 0.1603 -0.0765 0.9841
vn -0.5134 -0.0411 0.8571
vn -0.5509 0.7067 0.4439
vn -0.4706 0.6773 0.5655
vn -0.3283 0.6824 0.6530
vn -0.5466 -0.6825 0.4852
vn -0.0143 -0.4953 0.8686
vn -0.6493 0.1075 0.7529
vn -0.5618 0.0068 0.8272
vn 0.3389 -0.7313 -0.5918
vn 0.3525 -0.1448 -0.9245
vn 0.6476 -0.1391 -0.7491
vn 0.5339 -0.7069 -0.4639
vn -0.3024 -0.1288 -0.9444
vn 0.0168 -0.1411 -0.9898
vn 0.1136 -0.7559 -0.6447
vn -0.1180 -0.7711 -0.6257
vn -0.5191 -0.7425 -0.4233
vn -0.7597 -0.0999 -0.6425
vn 0.7335 0.6713 -0.1056
vn 0.9958 0.0418 -0.0815
vn 0.7974 0.0349 -0.6024
vn 0.4758 0.7108 -0.5181
vn -0.7846 0.0178 -0.6196
vn -0.8028 0.3591 -0.4759
vn -0.5671 0.5085 -0.6479
vn -0.4172 0.0903 -0.9043
vn -0.7597 -0.0909 -0.6439
vn -0.7611 -0.0536 -0.6464
vn -0.3302 -0.0241 -0.9436
vn -0.3153 -0.0781 -0.9457
vn -0.3086 -0.1093 -0.9449
vn -0.7598 -0.1010 -0.6422
vn 0.0088 -0.1128 -0.9936
vn 0.3366 -0.0731 -0.9388
vn 0.3547 -0.1119 -0.9282
vn -0.0091 -0.0716 -0.9974
vn 0.9921 -0.0994 -0.0759
vn 0.9897 -0.1240 -0.0711
vn 0.8348 -0.1105 -0.5392
vn 0.8274 -0.0919 -0.5540
vn 0.9867 -0.1482 -0.0669
vn 0.8371 -0.1360 -0.5298
vn 0.8195 -0.0671 -0.5690
vn 0.9947 -0.0673 -0.0773
vn 0.9968 -0.0150 -0.0779
vn 0.8110 -0.0168 -0.5848
vn 0.2380 0.0121 -0.9712
vn 0.2966 -0.0322 -0.9544
vn -0.0406 -0.0211 -0.9989
vn -0.0893 0.0278 -0.9956
vn -0.3616 0.0336 -0.9317
vn -0.7676 -0.0134 -0.6407
vn 0.6037 -0.0529 -0.7954
vn 0.6343 -0.0813 -0.7688
vn 0.1623 0.0576 -0.9850
vn -0.1603 0.0765 -0.9841
vn -0.1581 0.6106 -0.7759
vn 0.1711 0.6771 -0.7157
vn 0.5134 0.0411 -0.8571
vn -0.4047 0.5494 -0.7310
vn 0.7493 -0.6621 -0.0133
vn 0.6464 -0.6995 -0.3046
vn 0.6493 -0.1075 -0.7529
vn 0.5618 -0.0068 -0.8272
usemtl default
s 1
f 113//113 120//114 119//115 118//116
f 121//117 117//118 114//119 122//120
f 117//118 121//117 124//121 123//122
f 125//123 126//124 128//125 127//126
f 134//127 135//128 132//129 131//130
f 144//131 146//132 145//133 137//134
f 147//135 146//132 144//131 143//136
f 121//117 147//135 143//136 124//121
f 148//137 147//135 121//117 122//120
f 149//138 151//139 148//137 150//140
f 139//141 153//142 152//143 138//144
f 138//144 152//143 154//145 140//146
f 150//140 148//137 122//120 118//116
f 139//141 141//147 155//148 153//142
f 142//149 156//150 155//148 141//147
f 157//151 160//152 159//153 158//154
f 159//153 145//133 146//132 151//139
f 160//152 161//155 145//133 159//153
f 145//133 161//155 136//156 137//134
f 148//137 151//139 146//132 147//135
f 149//138 163//157 162//158 158//154
f 128//125 156//150 142//149 127//126
f 164//159 165//160 160//152 157//151
f 164//159 166//161 130//162 129//163
f 165//160 133//164 132//129 135//128
f 165//160 135//128 161//155 160//152
f 136//156 161//155 135//128 134//127
f 154//145 115//165 116//166 140//146
f 114//119 113//113 118//116 122//120
f 163//157 149//138 150//140 167//167
f 167//167 150//140 118//116 119//115
f 168//168 157//151 158//154 162//158
f 151//139 149//138 158//154 159//153
f 166//161 164//159 157//151 168//168
f 165//160 164//159 129//163 133//164
f 120//114 115//165 154//145 119//115
f 126//124 130//162 166//161 128//125
f 153//142 163//157 167//167 152//143
f 152//143 167//167 119//115 154//145
f 155//148 162//158 163//157 153//142
f 156//150 168//168 162//158 155//148
f 128//125 166//161 168//168 156//150
f 184//169 185//170 171//171 187//172
f 169//173 173//174 186//175 188//176
f 188//176 199//177 200//178 169//173
f 177//179 175//180 176//181 178//182
f 194//183 223//184 224//185 179//186
f 208//187 204//188 205//189 219//190
f 170//191 217//192 208//187 219//190
f 169//173 200//178 217//192 170//191
f 174//193 173//174 169//173 170//191
f 218//194 193//195 174//193 220//196
f 206//197 209//198 189//199 207//200
f 209//198 192//201 172//202 189//199
f 193//195 185//170 173//174 174//193
f 206//197 207//200 211//203 210//204
f 212//205 210//204 211//203 201//206
f 202//207 221//208 216//209 222//210
f 216//209 220//196 219//190 205//189
f 222//210 216//209 205//189 180//211
f 205//189 204//188 181//212 180//211
f 174//193 170//191 219//190 220//196
f 218//194 221//208 195//213 197//214
f 176//181 175//180 212//205 201//206
f 215//215 202//207 222//210 183//216
f 215//215 214//217 213//218 198//219
f 183//216 179//186 224//185 182//220
f 183//216 222//210 180//211 179//186
f 181//212 194//183 179//186 180//211
f 172//202 192//201 191//221 203//222
f 186//175 173//174 185//170 184//169
f 197//214 190//223 193//195 218//194
f 190//223 171//171 185//170 193//195
f 196//224 195//213 221//208 202//207
f 220//196 216//209 221//208 218//194
f 198//219 196//224 202//207 215//215
f 183//216 182//220 214//217 215//215
f 187//172 171//171 172//202 203//222
f 178//182 176//181 198//219 213//218
f 207//200 189//199 190//223 197//214
f 189//199 172//202 171//171 190//223
f 211//203 207//200 197//214 195//213
f 201//206 211//203 195//213 196//224
f 176//181 201//206 196//224 198//219
f 114//119 117//118 188//176 186//175
f 136//156 134//127 194//183 181//212
f 138//144 140//146 192//201 209//198
f 131//130 132//129 224//185 223//184
f 113//113 114//119 186//175 184//169
f 144//131 137//134 204//188 208//187
f 141//147 139//141 206//197 210//204
f 129//163 130//162 213//218 214//217
f 139//141 138//144 209//198 206//197
f 123//122 124//121 200//178 199//177
f 127//126 142//149 212//205 175//180
f 140//146 116//166 191//221 192//201
f 142//149 141//147 210//204 212//205
f 143//136 144//131 208//187 217//192
f 124//121 143//136 217//192 200//178
f 132//129 133//164 182//220 224//185
f 126//124 125//123 177//179 178//182
f 115//165 120//114 187//172 203//222
f 130//162 126//124 178//182 213//218
f 116//166 115//165 203//222 191//221
f 134//127 131//130 223//184 194//183
f 117//118 123//122 199//177 188//176
f 120//114 113//113 184//169 187//172
f 133//164 129//163 214//217 182//220
f 125//123 127//126 175//180 177//179
f 137//134 136//156 181//212 204//188
