# Blender v2.79 (sub 0) OBJ File: ''
# www.blender.org
mtllib fe_upperback.mtl
o Body_Undressed_1.013
v -5.015585 146.116455 7.574777
v -5.020965 133.882721 9.096109
v -7.410632 135.813675 9.406551
v -7.181638 137.924255 9.369743
v -4.945149 135.950424 9.084968
v -4.828562 138.003281 8.943466
v -6.921963 140.062912 9.197952
v -6.567801 142.229904 8.861652
v -4.645205 140.063599 8.747914
v -2.510108 134.164917 8.531956
v -2.514803 136.194000 8.495982
v -2.478209 138.185989 8.331478
v -2.384589 140.180634 8.099998
v -0.000015 138.316223 7.716021
v -0.000287 140.312897 7.633124
v -1.732969 145.932404 7.161114
v -2.004451 144.119659 7.515055
v 0.000173 144.165192 7.238824
v -0.000177 145.972687 7.009771
v -3.387681 145.955444 7.444011
v -3.950403 144.139847 7.975050
v -4.379369 142.135696 8.390111
v -2.232317 142.172516 7.778774
v -5.926362 144.333466 8.348783
v 0.000267 142.267990 7.435539
v 0.000107 134.309433 7.952678
v 0.000060 136.331268 7.846649
v 5.015616 146.116882 7.575628
v 5.024210 133.882141 9.085453
v 7.183389 137.921982 9.347447
v 7.412146 135.812683 9.381514
v 4.949104 135.949310 9.072009
v 4.832572 138.002060 8.931990
v 6.923984 140.060516 9.185280
v 6.568842 142.229538 8.859233
v 4.646948 140.062500 8.743274
v 2.516725 136.193268 8.489609
v 2.511730 134.164642 8.526054
v 2.479615 138.185532 8.326688
v 2.384097 140.180618 8.099769
v 2.002854 144.120499 7.520823
v 1.732200 145.932739 7.163986
v 3.949900 144.140610 7.978900
v 3.387547 145.955765 7.446381
v 4.378728 142.135941 8.392259
v 2.230762 142.173035 7.784368
v 5.926728 144.333786 8.349520
v -3.387519 145.979889 7.665938
v -3.950241 144.164291 8.196977
v 0.000429 142.292435 7.657466
v 2.230924 142.197479 8.006295
v 0.000147 138.340668 7.937948
v 0.000222 136.355713 8.068575
v -2.232155 142.196960 8.000701
v -4.379207 142.160141 8.612038
v 5.015778 146.141327 7.797555
v 5.926889 144.358231 8.571446
v 0.000269 134.333878 8.174604
v 3.387709 145.980209 7.668308
v 4.647110 140.086945 8.965200
v 2.384259 140.205063 8.321695
v 6.569004 142.253983 9.081160
v 4.378890 142.160385 8.614185
v 2.479777 138.209976 8.548615
v 2.003016 144.144943 7.742750
v 1.732362 145.957184 7.385913
v 3.950062 144.165054 8.200828
v 2.516887 136.217712 8.711535
v 2.511892 134.189087 8.747981
v 7.183551 137.946426 9.569374
v 7.412308 135.837128 9.603440
v 4.832734 138.026505 9.153916
v 4.949265 135.973755 9.293936
v 6.924146 140.084961 9.407207
v 5.024372 133.906586 9.307380
v -5.015423 146.140900 7.796704
v -5.926200 144.357910 8.570710
v -1.732807 145.956848 7.383041
v -2.004289 144.144104 7.736982
v -0.000125 140.337341 7.855051
v -6.567639 142.254349 9.083579
v -2.478047 138.210434 8.553405
v -2.514641 136.218445 8.717909
v -2.509946 134.189362 8.753882
v -4.645043 140.088043 8.969841
v -2.384427 140.205078 8.321924
v -7.181476 137.948700 9.591670
v -4.828400 138.027725 9.165393
v -7.410470 135.838120 9.628478
v -6.921802 140.087357 9.419879
v -4.944987 135.974869 9.306894
v -5.020803 133.907166 9.318036
v -0.000015 145.997131 7.231698
v 0.000335 144.189636 7.460751
vn -0.6201 -0.6178 -0.4834
vn -0.7651 0.0453 -0.6423
vn -0.2078 -0.0611 -0.9763
vn -0.4701 -0.2817 -0.8364
vn -0.7765 0.0320 -0.6293
vn -0.2280 -0.1027 -0.9682
vn -0.0959 -0.7513 -0.6529
vn -0.5961 -0.6568 -0.4619
vn -0.2355 -0.0444 -0.9709
vn -0.2385 -0.0728 -0.9684
vn -0.2281 -0.1026 -0.9682
vn 0.0001 -0.0992 -0.9951
vn -0.0008 -0.0722 -0.9974
vn -0.1252 0.5874 -0.7995
vn 0.0008 0.5971 -0.8021
vn 0.0013 -0.1314 -0.9913
vn -0.1758 -0.1437 -0.9739
vn -0.2053 -0.1904 -0.9600
vn -0.1107 0.5772 -0.8090
vn -0.2073 -0.1221 -0.9706
vn -0.2323 -0.1386 -0.9627
vn 0.0010 -0.1166 -0.9932
vn -0.7810 0.0611 -0.6214
vn -0.4455 0.5595 -0.6989
vn -0.7651 0.1278 -0.6310
vn -0.0012 -0.0542 -0.9985
vn -0.0009 -0.6952 -0.7188
vn 0.2045 -0.0593 -0.9771
vn 0.7629 0.0464 -0.6448
vn 0.6188 -0.6175 -0.4855
vn 0.4674 -0.2824 -0.8377
vn 0.7748 0.0342 -0.6312
vn 0.2254 -0.0995 -0.9691
vn 0.5952 -0.6570 -0.4627
vn 0.0941 -0.7514 -0.6531
vn 0.2331 -0.0444 -0.9714
vn 0.2365 -0.0715 -0.9690
vn 0.2271 -0.1005 -0.9687
vn 0.1260 0.5872 -0.7995
vn 0.1765 -0.1441 -0.9737
vn 0.2040 -0.1907 -0.9602
vn 0.1100 0.5768 -0.8094
vn 0.2305 -0.1367 -0.9634
vn 0.2075 -0.1209 -0.9707
vn 0.7800 0.0626 -0.6226
vn 0.4447 0.5592 -0.6996
vn 0.7643 0.1278 -0.6320
vn -0.5653 -0.5134 0.6456
vn -0.0728 -0.2886 0.9547
vn 0.2078 0.0611 0.9763
vn -0.6369 0.1240 0.7609
vn 0.2280 0.1027 0.9682
vn -0.6244 0.1837 0.7592
vn 0.2309 -0.6417 0.7313
vn 0.2355 0.0444 0.9709
vn -0.5057 -0.5518 0.6631
vn 0.2385 0.0728 0.9684
vn 0.2281 0.1026 0.9682
vn 0.0008 0.0722 0.9974
vn -0.0001 0.0992 0.9951
vn 0.0897 0.8046 0.5870
vn 0.1758 0.1437 0.9739
vn -0.0013 0.1314 0.9913
vn -0.0007 0.8160 0.5780
vn 0.1557 0.7964 0.5843
vn 0.2053 0.1904 0.9600
vn 0.2323 0.1386 0.9627
vn 0.2073 0.1221 0.9706
vn -0.0010 0.1166 0.9932
vn -0.6145 0.2857 0.7353
vn -0.3501 0.8148 0.4620
vn -0.5731 0.4284 0.6986
vn 0.0012 0.0542 0.9985
vn 0.0009 -0.6925 0.7214
vn -0.2045 0.0593 0.9771
vn 0.0763 -0.2880 0.9546
vn 0.5671 -0.5138 0.6437
vn 0.6395 0.1223 0.7590
vn 0.6265 0.1808 0.7582
vn -0.2254 0.0995 0.9691
vn -0.2331 0.0444 0.9714
vn -0.2292 -0.6416 0.7320
vn 0.5066 -0.5517 0.6625
vn -0.2365 0.0715 0.9690
vn -0.2271 0.1005 0.9687
vn -0.1765 0.1441 0.9737
vn -0.0904 0.8047 0.5868
vn -0.2040 0.1907 0.9602
vn -0.1551 0.7967 0.5841
vn -0.2305 0.1367 0.9634
vn -0.2075 0.1209 0.9707
vn 0.6157 0.2839 0.7350
vn 0.5740 0.4282 0.6979
vn 0.3509 0.8149 0.4612
usemtl default
s 1
f 3//1 4//2 6//3 5//4
f 6//3 4//2 7//5 9//6
f 10//7 2//8 5//4 11//9
f 5//4 6//3 12//10 11//9
f 6//3 9//6 13//11 12//10
f 13//11 15//12 14//13 12//10
f 16//14 19//15 18//16 17//17
f 16//14 17//17 21//18 20//19
f 17//17 23//20 22//21 21//18
f 13//11 9//6 22//21 23//20
f 15//12 13//11 23//20 25//22
f 18//16 25//22 23//20 17//17
f 7//5 8//23 22//21 9//6
f 1//24 20//19 21//18 24//25
f 21//18 22//21 8//23 24//25
f 27//26 26//27 10//7 11//9
f 14//13 27//26 11//9 12//10
f 33//28 30//29 31//30 32//31
f 34//32 30//29 33//28 36//33
f 32//31 29//34 38//35 37//36
f 39//37 33//28 32//31 37//36
f 40//38 36//33 33//28 39//37
f 14//13 15//12 40//38 39//37
f 18//16 19//15 42//39 41//40
f 43//41 41//40 42//39 44//42
f 45//43 46//44 41//40 43//41
f 45//43 36//33 40//38 46//44
f 46//44 40//38 15//12 25//22
f 46//44 25//22 18//16 41//40
f 45//43 35//45 34//32 36//33
f 43//41 44//42 28//46 47//47
f 35//45 45//43 43//41 47//47
f 38//35 26//27 27//26 37//36
f 37//36 27//26 14//13 39//37
f 89//48 91//49 88//50 87//51
f 88//50 85//52 90//53 87//51
f 84//54 83//55 91//49 92//56
f 91//49 83//55 82//57 88//50
f 88//50 82//57 86//58 85//52
f 86//58 82//57 52//59 80//60
f 78//61 79//62 94//63 93//64
f 78//61 48//65 49//66 79//62
f 79//62 49//66 55//67 54//68
f 86//58 54//68 55//67 85//52
f 80//60 50//69 54//68 86//58
f 94//63 79//62 54//68 50//69
f 90//53 85//52 55//67 81//70
f 76//71 77//72 49//66 48//65
f 49//66 77//72 81//70 55//67
f 53//73 83//55 84//54 58//74
f 52//59 82//57 83//55 53//73
f 72//75 73//76 71//77 70//78
f 74//79 60//80 72//75 70//78
f 73//76 68//81 69//82 75//83
f 64//84 68//81 73//76 72//75
f 61//85 64//84 72//75 60//80
f 52//59 64//84 61//85 80//60
f 94//63 65//86 66//87 93//64
f 67//88 59//89 66//87 65//86
f 63//90 67//88 65//86 51//91
f 63//90 51//91 61//85 60//80
f 51//91 50//69 80//60 61//85
f 51//91 65//86 94//63 50//69
f 63//90 60//80 74//79 62//92
f 67//88 57//93 56//94 59//89
f 62//92 57//93 67//88 63//90
f 69//82 68//81 53//73 58//74
f 68//81 64//84 52//59 53//73
f 29//34 32//31 73//76 75//83
f 38//35 29//34 75//83 69//82
f 32//31 31//30 71//77 73//76
f 47//47 28//46 56//94 57//93
f 30//29 34//32 74//79 70//78
f 8//23 7//5 90//53 81//70
f 5//4 2//8 92//56 91//49
f 44//42 42//39 66//87 59//89
f 28//46 44//42 59//89 56//94
f 42//39 19//15 93//64 66//87
f 26//27 38//35 69//82 58//74
f 4//2 3//1 89//48 87//51
f 19//15 16//14 78//61 93//64
f 2//8 10//7 84//54 92//56
f 1//24 24//25 77//72 76//71
f 7//5 4//2 87//51 90//53
f 34//32 35//45 62//92 74//79
f 24//25 8//23 81//70 77//72
f 10//7 26//27 58//74 84//54
f 20//19 1//24 76//71 48//65
f 3//1 5//4 91//49 89//48
f 16//14 20//19 48//65 78//61
f 35//45 47//47 57//93 62//92
f 31//30 30//29 70//78 71//77
