# Blender v2.79 (sub 0) OBJ File: 'MALEBODY.blend'
# www.blender.org
mtllib male_upperback.mtl
o Body.011_Body.016
v -6.692947 158.489349 7.698552
v -5.002371 158.112625 8.226087
v -10.434680 147.255112 13.126368
v -10.094986 149.799026 12.419021
v -9.003870 154.888168 10.122730
v -7.858464 156.939804 8.858788
v -5.755660 156.559875 9.430429
v -9.660363 152.355148 11.341918
v -7.958145 145.061661 13.580638
v -7.701063 147.506119 13.167876
v -5.212447 145.229309 13.063946
v -5.025372 147.566132 12.747058
v -7.401298 149.942139 12.500690
v -7.013653 152.314011 11.556674
v -4.811187 149.871674 12.138736
v -2.664798 143.037613 12.581403
v -2.587377 145.272507 12.461114
v 0.000000 143.064941 12.077302
v 0.000000 145.247559 11.938058
v -2.489101 147.515320 12.157757
v -2.378578 149.715927 11.597898
v 0.000000 147.426086 11.617240
v 0.000000 149.544128 11.035159
v -1.881149 155.684799 9.025928
v -2.079236 153.834808 9.930736
v 0.000000 153.546890 9.375791
v 0.000000 155.414062 8.605144
v -3.747398 156.129761 9.448385
v -4.176575 154.231995 10.452004
v -4.538569 152.106537 11.335311
v -2.247886 151.828232 10.805438
v -6.474306 154.572800 10.511612
v 0.000000 151.578995 10.220147
v -3.307723 157.723602 8.340727
v -1.674557 157.327072 8.081452
v 0.000000 157.122879 7.838083
v 6.616609 158.492966 7.702790
v 4.925707 158.116913 8.232183
v 10.358730 147.255264 13.141495
v 10.018441 149.801117 12.429208
v 8.926709 154.888474 10.123584
v 7.780904 156.937958 8.856657
v 5.678740 156.561844 9.433701
v 9.583391 152.356522 11.345940
v 7.623493 147.506775 13.181074
v 7.880984 145.058792 13.593701
v 5.135081 145.227478 13.067407
v 4.948040 147.565582 12.749390
v 7.323786 149.943939 12.509440
v 6.936358 152.314621 11.559162
v 4.733967 149.871674 12.139968
v 2.510210 145.271637 12.461337
v 2.587748 143.036011 12.581536
v 2.411901 147.514877 12.157818
v 2.301426 149.715729 11.597801
v 2.002654 153.835373 9.931766
v 1.803080 155.689713 9.035386
v 4.099272 154.233383 10.454957
v 3.670395 156.131836 9.452192
v 4.461268 152.106842 11.336719
v 2.170878 151.828308 10.805634
v 6.397149 154.574387 10.514813
v 3.230611 157.728058 8.348214
v 1.596746 157.333405 8.092608
v -9.004445 155.025375 10.485926
v -6.474881 154.710007 10.874807
v -5.756235 156.697083 9.793624
v -3.747972 156.266968 9.811581
v -1.881724 155.822006 9.389123
v -1.675132 157.464279 8.444648
v -3.308298 157.860809 8.703922
v -0.000575 157.260086 8.201278
v 1.596171 157.470612 8.455804
v 1.802505 155.826920 9.398582
v -7.014227 152.451218 11.919869
v -4.539144 152.243744 11.698506
v -4.811761 150.008881 12.501931
v -5.213022 145.366516 13.427141
v -2.587952 145.409714 12.824309
v 8.926134 155.025681 10.486779
v 6.396574 154.711594 10.878009
v -7.701638 147.643326 13.531072
v -5.025947 147.703339 13.110253
v -6.693521 158.626556 8.061748
v -7.859038 157.077011 9.221984
v -7.401873 150.079346 12.863886
v 5.678165 156.699051 9.796896
v -2.379153 149.853134 11.961093
v -2.665373 143.174820 12.944598
v -0.000575 143.202148 12.440497
v -2.489676 147.652527 12.520952
v -9.660938 152.492355 11.705113
v -7.958720 145.198868 13.943833
v 6.935783 152.451828 11.922358
v -0.000575 151.716202 10.583343
v 2.170303 151.965515 11.168830
v -0.000575 153.684097 9.738986
v 2.002079 153.972580 10.294961
v 3.669820 156.269043 9.815388
v 3.230036 157.865265 8.711410
v 4.925132 158.254120 8.595378
v 4.098697 154.370590 10.818152
v 4.460693 152.244049 11.699914
v -0.000575 155.551270 8.968339
v -0.000575 147.563293 11.980435
v 2.411326 147.652084 12.521013
v -0.000575 145.384766 12.301253
v 2.509635 145.408844 12.824533
v 2.587173 143.173218 12.944732
v -0.000575 149.681335 11.398355
v 2.300851 149.852936 11.960997
v 4.733392 150.008881 12.503163
v 7.622919 147.643982 13.544270
v 4.947465 147.702789 13.112585
v 5.134506 145.364685 13.430602
v 7.323211 150.081146 12.872636
v 7.880409 145.195999 13.956897
v 6.616035 158.630173 8.065986
v 7.780329 157.075165 9.219852
v 9.582816 152.493729 11.709135
v -5.002945 158.249832 8.589282
v -2.079811 153.972015 10.293931
v -10.095561 149.936234 12.782216
v -2.248461 151.965439 11.168633
v 10.358155 147.392471 13.504690
v 10.017866 149.938324 12.792403
v -4.177150 154.369202 10.815200
v -10.435255 147.392319 13.489563
vn -0.6363 -0.0761 -0.7677
vn -0.2416 0.3349 -0.9107
vn 0.2228 0.2655 -0.9380
vn 0.0027 -0.5499 -0.8352
vn -0.6027 -0.7187 -0.3467
vn -0.3864 -0.4533 -0.8032
vn -0.1884 -0.1816 -0.9651
vn -0.0670 -0.8613 -0.5036
vn -0.5788 -0.7236 -0.3760
vn -0.6978 -0.1301 -0.7044
vn -0.0414 -0.3123 -0.9491
vn -0.6876 -0.1621 -0.7077
vn -0.0215 -0.3896 -0.9207
vn -0.1821 -0.2819 -0.9420
vn -0.6011 -0.7048 -0.3766
vn -0.5180 -0.3196 -0.7935
vn 0.0030 -0.0955 -0.9954
vn 0.0015 -0.7927 -0.6095
vn -0.2206 -0.1811 -0.9584
vn -0.2362 -0.2828 -0.9296
vn 0.0034 -0.1931 -0.9812
vn 0.0039 -0.3024 -0.9531
vn -0.2663 -0.4214 -0.8669
vn 0.0074 -0.4196 -0.9077
vn 0.0058 -0.3915 -0.9201
vn -0.2780 -0.3743 -0.8846
vn -0.1856 -0.3964 -0.8991
vn -0.1884 -0.4742 -0.8600
vn -0.2602 -0.3441 -0.9022
vn -0.1810 -0.3471 -0.9202
vn -0.6818 -0.0955 -0.7252
vn -0.0020 -0.4553 -0.8903
vn 0.0047 -0.3701 -0.9290
vn 0.0116 0.3384 -0.9409
vn -0.1135 0.3401 -0.9335
vn 0.0054 0.2975 -0.9547
vn -0.2241 0.2661 -0.9375
vn 0.2421 0.3359 -0.9102
vn 0.6357 -0.0763 -0.7681
vn -0.0040 -0.5494 -0.8355
vn 0.1905 -0.1818 -0.9647
vn 0.3887 -0.4540 -0.8017
vn 0.6039 -0.7186 -0.3447
vn 0.0681 -0.8610 -0.5040
vn 0.0429 -0.3136 -0.9486
vn 0.6992 -0.1307 -0.7028
vn 0.5799 -0.7235 -0.3745
vn 0.6887 -0.1625 -0.7066
vn 0.0221 -0.3903 -0.9204
vn 0.1836 -0.2822 -0.9416
vn 0.5213 -0.3196 -0.7912
vn 0.6024 -0.7052 -0.3737
vn 0.2243 -0.1809 -0.9575
vn 0.2403 -0.2824 -0.9287
vn 0.2723 -0.4189 -0.8662
vn 0.2834 -0.3722 -0.8838
vn 0.1856 -0.3956 -0.8995
vn 0.1872 -0.4731 -0.8609
vn 0.1818 -0.3469 -0.9201
vn 0.2650 -0.3432 -0.9011
vn 0.6826 -0.0951 -0.7246
vn 0.0015 -0.4555 -0.8902
vn -0.0130 0.3382 -0.9409
vn 0.1162 0.3446 -0.9315
vn -0.6287 0.6610 0.4095
vn -0.0027 0.5499 0.8352
vn 0.1611 0.9322 0.3241
vn -0.3054 0.9462 0.1068
vn -0.5571 -0.3940 0.7310
vn 0.1920 -0.4992 0.8449
vn 0.1884 0.1817 0.9651
vn -0.1593 -0.0453 0.9862
vn -0.6125 -0.3662 0.7005
vn 0.0414 0.3123 0.9491
vn -0.7089 0.3171 0.6300
vn 0.0215 0.3896 0.9207
vn -0.7164 0.4012 0.5708
vn 0.1821 0.2819 0.9420
vn -0.5460 -0.4275 0.7205
vn -0.0027 -0.5780 0.8160
vn -0.0030 0.0955 0.9954
vn -0.0189 -0.2105 0.9774
vn 0.2206 0.1811 0.9584
vn 0.2362 0.2828 0.9296
vn -0.0034 0.1931 0.9812
vn -0.0039 0.3024 0.9531
vn 0.2663 0.4214 0.8669
vn 0.2780 0.3743 0.8846
vn -0.0058 0.3915 0.9201
vn -0.0074 0.4196 0.9077
vn 0.1884 0.4742 0.8600
vn 0.1856 0.3964 0.8991
vn 0.1810 0.3471 0.9202
vn 0.2602 0.3441 0.9022
vn -0.6963 0.5221 0.4924
vn 0.0020 0.4553 0.8903
vn -0.0047 0.3701 0.9290
vn 0.2505 0.9037 0.3471
vn 0.2452 0.9084 0.3387
vn -0.0070 0.9465 0.3226
vn -0.1602 0.9321 0.3247
vn 0.0040 0.5494 0.8355
vn 0.6293 0.6604 0.4097
vn 0.3054 0.9460 0.1079
vn -0.1905 0.1818 0.9647
vn -0.1942 -0.4994 0.8443
vn 0.5549 -0.3941 0.7327
vn 0.1570 -0.0443 0.9866
vn -0.0429 0.3136 0.9486
vn 0.6112 -0.3657 0.7019
vn 0.7075 0.3186 0.6307
vn 0.7153 0.4024 0.5713
vn -0.0221 0.3903 0.9204
vn -0.1836 0.2822 0.9416
vn 0.5428 -0.4277 0.7228
vn 0.0150 -0.2103 0.9775
vn -0.2243 0.1809 0.9575
vn -0.2403 0.2824 0.9287
vn -0.2834 0.3722 0.8838
vn -0.2723 0.4189 0.8662
vn -0.1856 0.3956 0.8995
vn -0.1872 0.4731 0.8609
vn -0.1818 0.3469 0.9201
vn -0.2650 0.3432 0.9011
vn -0.0015 0.4555 0.8902
vn 0.6956 0.5227 0.4929
vn -0.2492 0.9039 0.3476
vn -0.2510 0.9062 0.3401
usemtl default
s 1
f 6//1 1//2 2//3 7//4
f 9//5 10//6 12//7 11//8
f 3//9 4//10 13//11 10//6
f 13//11 4//10 8//12 14//13
f 12//7 10//6 13//11 15//14
f 16//15 17//16 19//17 18//18
f 11//8 12//7 20//19 17//16
f 12//7 15//14 21//20 20//19
f 19//17 17//16 20//19 22//21
f 21//20 23//22 22//21 20//19
f 24//23 27//24 26//25 25//26
f 24//23 25//26 29//27 28//28
f 25//26 31//29 30//30 29//27
f 5//31 6//1 7//4 32//32
f 21//20 15//14 30//30 31//29
f 23//22 21//20 31//29 33//33
f 26//25 33//33 31//29 25//26
f 13//11 14//13 30//30 15//14
f 7//4 2//3 34//34 28//28
f 7//4 28//28 29//27 32//32
f 29//27 30//30 14//13 32//32
f 8//12 5//31 32//32 14//13
f 28//28 34//34 35//35 24//23
f 27//24 24//23 35//35 36//36
f 38//37 37//38 42//39 43//40
f 48//41 45//42 46//43 47//44
f 49//45 40//46 39//47 45//42
f 44//48 40//46 49//45 50//49
f 49//45 45//42 48//41 51//50
f 19//17 52//51 53//52 18//18
f 54//53 48//41 47//44 52//51
f 55//54 51//50 48//41 54//53
f 54//53 52//51 19//17 22//21
f 22//21 23//22 55//54 54//53
f 26//25 27//24 57//55 56//56
f 58//57 56//56 57//55 59//58
f 60//59 61//60 56//56 58//57
f 43//40 42//39 41//61 62//62
f 60//59 51//50 55//54 61//60
f 61//60 55//54 23//22 33//33
f 61//60 33//33 26//25 56//56
f 60//59 50//49 49//45 51//50
f 63//63 38//37 43//40 59//58
f 58//57 59//58 43//40 62//62
f 50//49 60//59 58//57 62//62
f 62//62 41//61 44//48 50//49
f 64//64 63//63 59//58 57//55
f 64//64 57//55 27//24 36//36
f 85//65 67//66 121//67 84//68
f 93//69 78//70 83//71 82//72
f 128//73 82//72 86//74 123//75
f 86//74 75//76 92//77 123//75
f 83//71 77//78 86//74 82//72
f 89//79 90//80 107//81 79//82
f 78//70 79//82 91//83 83//71
f 83//71 91//83 88//84 77//78
f 107//81 105//85 91//83 79//82
f 88//84 91//83 105//85 110//86
f 69//87 122//88 97//89 104//90
f 69//87 68//91 127//92 122//88
f 122//88 127//92 76//93 124//94
f 65//95 66//96 67//66 85//65
f 88//84 124//94 76//93 77//78
f 110//86 95//97 124//94 88//84
f 97//89 122//88 124//94 95//97
f 86//74 77//78 76//93 75//76
f 67//66 68//91 71//98 121//67
f 67//66 66//96 127//92 68//91
f 127//92 66//96 75//76 76//93
f 92//77 75//76 66//96 65//95
f 68//91 69//87 70//99 71//98
f 104//90 72//100 70//99 69//87
f 101//101 87//102 119//103 118//104
f 114//105 115//106 117//107 113//108
f 116//109 113//108 125//110 126//111
f 120//112 94//113 116//109 126//111
f 116//109 112//114 114//105 113//108
f 107//81 90//80 109//115 108//116
f 106//117 108//116 115//106 114//105
f 111//118 106//117 114//105 112//114
f 106//117 105//85 107//81 108//116
f 105//85 106//117 111//118 110//86
f 97//89 98//119 74//120 104//90
f 102//121 99//122 74//120 98//119
f 103//123 102//121 98//119 96//124
f 87//102 81//125 80//126 119//103
f 103//123 96//124 111//118 112//114
f 96//124 95//97 110//86 111//118
f 96//124 98//119 97//89 95//97
f 103//123 112//114 116//109 94//113
f 100//127 99//122 87//102 101//101
f 102//121 81//125 87//102 99//122
f 94//113 81//125 102//121 103//123
f 81//125 94//113 120//112 80//126
f 73//128 74//120 99//122 100//127
f 73//128 72//100 104//90 74//120
f 17//16 16//15 89//79 79//82
f 5//31 8//12 92//77 65//95
f 38//37 63//63 100//127 101//101
f 11//8 17//16 79//82 78//70
f 45//42 39//47 125//110 113//108
f 36//36 35//35 70//99 72//100
f 10//6 9//5 93//69 82//72
f 40//46 44//48 120//112 126//111
f 39//47 40//46 126//111 125//110
f 9//5 11//8 78//70 93//69
f 1//2 6//1 85//65 84//68
f 37//38 38//37 101//101 118//104
f 44//48 41//61 80//126 120//112
f 3//9 10//6 82//72 128//73
f 52//51 47//44 115//106 108//116
f 4//10 3//9 128//73 123//75
f 18//18 53//52 109//115 90//80
f 41//61 42//39 119//103 80//126
f 8//12 4//10 123//75 92//77
f 34//34 2//3 121//67 71//98
f 35//35 34//34 71//98 70//99
f 46//43 45//42 113//108 117//107
f 64//64 36//36 72//100 73//128
f 42//39 37//38 118//104 119//103
f 16//15 18//18 90//80 89//79
f 53//52 52//51 108//116 109//115
f 2//3 1//2 84//68 121//67
f 6//1 5//31 65//95 85//65
f 63//63 64//64 73//128 100//127
f 47//44 46//43 117//107 115//106
