# Blender v2.79 (sub 0) OBJ File: 'MALEBODY.blend'
# www.blender.org
mtllib male_abs.mtl
o Body.008_Body.007
v -3.825068 108.344498 -11.555770
v -1.956105 108.135239 -11.873773
v -1.877576 105.680702 -11.367818
v -3.689788 105.853508 -11.111672
v -7.022460 111.440506 -10.641238
v -5.289662 115.572647 -11.438798
v -3.638409 115.299950 -11.967393
v -3.730896 113.057755 -11.949422
v -5.366612 113.353676 -11.300000
v -5.099409 119.913788 -11.592181
v -3.488249 119.672752 -11.999288
v -3.565273 117.493828 -12.022897
v -5.209314 117.749168 -11.555757
v -8.451545 114.150406 -10.049546
v -8.182757 116.286034 -9.768048
v -8.035499 118.395851 -9.826974
v -7.968098 120.489319 -10.046110
v -3.501514 121.835991 -12.506752
v -1.751979 121.711357 -12.417252
v -1.777219 119.529724 -12.034511
v -1.857485 115.121902 -12.177777
v -1.922696 112.862076 -12.389964
v -1.955712 110.531967 -12.190059
v -3.805066 110.746269 -11.788941
v -5.356664 106.128784 -10.706719
v -0.000001 105.629158 -11.416476
v -0.000001 108.066101 -11.956388
v 0.000000 119.485748 -11.819322
v 0.000000 121.686050 -12.122232
v -1.809165 117.332443 -12.106326
v 0.000000 112.794792 -12.481166
v -0.000001 115.056854 -12.040904
v -0.000001 110.459961 -12.294175
v -6.753495 115.905609 -10.630086
v -6.674606 118.056221 -10.778117
v -0.000001 117.244377 -12.006512
v -6.579378 120.192543 -10.918436
v -7.980511 122.590332 -10.417978
v -6.625389 122.321602 -11.352482
v -5.468507 111.059464 -11.219426
v -5.513042 108.653511 -11.102368
v -6.863598 113.711792 -10.558110
v -5.166759 122.058472 -12.132263
v -7.925974 129.250351 -11.667730
v -8.029854 126.949532 -11.331528
v -8.056520 124.719376 -10.929634
v -6.413504 129.130890 -12.142490
v -6.467695 126.813423 -11.751863
v -1.636274 128.841324 -12.386635
v -1.718243 126.377235 -12.179901
v -3.370244 126.494011 -12.442171
v -3.288606 128.913956 -12.684914
v -3.457495 124.128052 -12.698509
v -1.719609 123.998611 -12.608738
v -6.574524 124.532066 -11.606342
v -4.889346 129.017334 -12.506139
v -4.746538 131.409286 -12.493517
v -3.179036 131.352051 -12.655159
v -3.041469 133.669601 -12.154058
v -1.519589 133.631424 -12.055126
v -5.924824 133.735123 -11.595615
v -7.317423 133.808578 -11.233971
v -1.576380 131.297104 -12.396690
v 0.000001 133.583786 -11.718021
v 0.000000 131.263367 -11.940153
v -7.616888 131.564896 -11.535658
v -6.219203 131.482330 -12.122131
v 0.000001 126.326118 -11.830579
v 0.000000 128.822754 -11.827070
v 0.000000 123.948135 -12.237526
v -4.956941 126.651138 -12.210588
v -5.104342 124.321533 -12.318802
v -4.522485 133.693344 -11.939438
v 1.793443 105.690590 -11.307166
v 1.870788 108.144630 -11.799960
v 3.729043 108.355804 -11.459428
v 3.593362 105.869949 -11.010909
v 6.939977 111.441307 -10.622451
v 3.643713 113.059059 -11.902516
v 3.554630 115.300171 -11.936959
v 5.204586 115.572723 -11.413270
v 5.279288 113.354492 -11.264888
v 3.486334 117.493057 -12.014731
v 3.426684 119.666473 -12.086432
v 5.044038 119.907867 -11.660644
v 5.124696 117.749046 -11.535554
v 8.376423 114.150879 -10.053200
v 8.107779 116.286469 -9.770745
v 7.957963 118.395882 -9.825747
v 7.891148 120.489166 -10.047293
v 1.704629 119.529129 -12.042641
v 1.675638 121.709641 -12.458340
v 3.430268 121.835556 -12.540644
v 1.842354 112.862823 -12.356130
v 1.778271 115.122086 -12.159415
v 1.872447 110.536163 -12.136180
v 3.714094 110.751030 -11.721070
v 5.259910 106.140976 -10.624288
v 1.731725 117.331482 -12.117732
v 6.672204 115.905678 -10.618245
v 6.592650 118.056274 -10.767762
v 7.900458 122.591446 -10.413807
v 6.506340 120.191658 -10.930355
v 6.550982 122.321320 -11.359835
v 5.379929 111.061989 -11.175834
v 5.419777 108.659782 -11.039117
v 6.781224 113.712036 -10.540938
v 5.094390 122.058540 -12.148743
v 7.861917 129.247391 -11.696379
v 7.962768 126.947723 -11.353059
v 7.982577 124.719086 -10.935550
v 6.399336 126.812172 -11.777134
v 6.344656 129.129349 -12.170486
v 3.297680 126.493683 -12.511700
v 1.632385 126.380226 -12.294640
v 1.565026 128.842209 -12.348150
v 3.211234 128.913940 -12.657985
v 3.381636 124.127022 -12.706709
v 1.644936 123.997894 -12.559850
v 6.501541 124.531296 -11.617634
v 3.100405 131.351593 -12.686975
v 4.675259 131.408020 -12.549416
v 4.812961 129.016830 -12.510593
v 2.964502 133.675995 -12.248444
v 1.437340 133.633499 -12.078054
v 7.299948 133.804520 -11.406612
v 5.891656 133.738510 -11.796436
v 1.501701 131.293533 -12.342731
v 7.586618 131.562775 -11.649469
v 6.161009 131.478943 -12.200373
v 4.886545 126.650032 -12.241375
v 5.028980 124.320625 -12.327557
v 4.460252 133.697311 -12.076700
v 3.486043 117.485504 -12.261361
v 1.731434 117.323929 -12.364362
v 5.204295 115.565170 -11.659900
v 6.671913 115.898125 -10.864875
v -6.413795 129.123337 -12.389120
v -6.219494 131.474777 -12.368761
v 3.297389 126.486130 -12.758329
v 4.886254 126.642479 -12.488005
v -7.926265 129.242798 -11.914360
v -7.617179 131.557343 -11.782288
v -0.000290 126.318565 -12.077209
v -0.000291 123.940582 -12.484156
v -0.000291 128.815201 -12.073700
v 7.957672 118.388329 -10.072377
v 7.890857 120.481613 -10.293922
v 3.713803 110.743477 -11.967700
v 5.379638 111.054436 -11.422463
v -8.451836 114.142853 -10.296176
v -6.863889 113.704239 -10.804740
v 6.501250 124.523743 -11.864264
v 5.028688 124.313072 -12.574186
v -1.636565 128.833771 -12.633265
v -1.576671 131.289551 -12.643320
v -0.000291 131.255814 -12.186783
v 1.501410 131.285980 -12.589361
v 3.381345 124.119469 -12.953339
v -4.957232 126.643585 -12.457218
v -5.104633 124.313980 -12.565432
v -6.753787 115.898056 -10.876716
v -5.167050 122.050919 -12.378893
v 7.586327 131.555222 -11.896099
v 6.160717 131.471390 -12.447002
v -0.000291 121.678497 -12.368862
v -1.719900 123.991058 -12.855368
v -3.179327 131.344498 -12.901789
v 6.399045 126.804619 -12.023764
v -1.752270 121.703804 -12.663881
v -3.825359 108.336945 -11.802400
v -5.513333 108.645958 -11.348998
v -3.501805 121.828438 -12.753382
v -3.457786 124.120499 -12.945139
v -4.746830 131.401733 -12.740147
v -1.718534 126.369682 -12.426531
v -0.000291 119.478195 -12.065951
v 1.704338 119.521576 -12.289270
v 6.506049 120.184105 -11.176985
v 6.550691 122.313766 -11.606464
v -0.000292 110.452408 -12.540805
v 1.872156 110.528610 -12.382810
v 7.900167 122.583893 -10.660437
v -0.000292 115.049301 -12.287534
v 1.777980 115.114532 -12.406045
v -0.000291 112.787239 -12.727796
v 1.842063 112.855270 -12.602759
v 3.100114 131.344040 -12.933605
v 4.674968 131.400467 -12.796045
v 1.675347 121.702087 -12.704969
v 4.812670 129.009277 -12.757223
v -7.022751 111.432953 -10.887868
v 6.592359 118.048721 -11.014392
v -7.980803 122.582779 -10.664608
v -8.056811 124.711823 -11.176264
v -0.000290 133.576233 -11.964651
v 3.429977 121.828003 -12.787273
v 5.094099 122.050987 -12.395372
v 2.964211 133.668442 -12.495073
v -6.625680 122.314049 -11.599112
v -6.574815 124.524513 -11.852972
v 6.344365 129.121796 -12.417116
v 7.299657 133.796967 -11.653242
v 5.891365 133.730957 -12.043066
v -0.000292 105.621605 -11.663106
v -0.000292 108.058548 -12.203017
v 1.437049 133.625946 -12.324684
v -0.000292 117.236824 -12.253141
v 7.861626 129.239838 -11.943008
v -1.809456 117.324890 -12.352956
v 1.564735 128.834656 -12.594780
v 8.376132 114.143326 -10.299829
v 6.780932 113.704483 -10.787568
v -3.041760 133.662048 -12.400688
v 5.043746 119.900314 -11.907273
v 1.870497 108.137077 -12.046590
v 6.939686 111.433754 -10.869081
v 1.793152 105.683037 -11.553796
v 3.728752 108.348251 -11.706058
v -4.889637 129.009781 -12.752769
v -6.579669 120.184990 -11.165066
v 5.278996 113.346939 -11.511518
v 1.632094 126.372673 -12.541269
v -1.956396 108.127686 -12.120402
v -3.288897 128.906403 -12.931543
v -1.777510 119.522171 -12.281140
v 3.643422 113.051506 -12.149146
v -5.925116 133.727570 -11.842245
v -7.317714 133.801025 -11.480600
v -6.674897 118.048668 -11.024747
v -3.370535 126.486458 -12.688801
v -6.467987 126.805870 -11.998493
v -1.519880 133.623871 -12.301756
v 1.644645 123.990341 -12.806479
v -5.366903 113.346123 -11.546630
v -5.468798 111.051910 -11.466056
v -5.099700 119.906235 -11.838811
v -5.356956 106.121231 -10.953349
v 5.419486 108.652229 -11.285747
v 3.554339 115.292618 -12.183589
v 3.426393 119.658920 -12.333062
v 3.593071 105.862396 -11.257539
v 5.259619 106.133423 -10.870917
v -8.035789 118.388298 -10.073604
v -7.968390 120.481766 -10.292740
v 7.982285 124.711533 -11.182179
v -1.877867 105.673149 -11.614448
v -3.638700 115.292397 -12.214023
v -3.731187 113.050201 -12.196052
v 3.210943 128.906387 -12.904614
v -5.289953 115.565094 -11.685428
v -3.565564 117.486275 -12.269526
v -8.183048 116.278481 -10.014678
v -3.690079 105.845955 -11.358302
v 5.124404 117.741493 -11.782184
v 8.107488 116.278915 -10.017375
v -8.030145 126.941978 -11.578157
v -5.209605 117.741615 -11.802386
v -1.956003 110.524414 -12.436688
v -3.805357 110.738716 -12.035571
v -1.857776 115.114349 -12.424407
v -1.922987 112.854523 -12.636594
v 7.962477 126.940170 -11.599689
v 4.459960 133.689758 -12.323330
v -4.522776 133.685791 -12.186068
v -3.488540 119.665199 -12.245917
vn 0.2376 0.1373 0.9616
vn 0.0642 -0.6514 0.7559
vn 0.0296 -0.6442 0.7642
vn 0.1164 0.1632 0.9797
vn 0.3963 0.0264 0.9177
vn 0.3868 0.0124 0.9221
vn 0.2748 0.0185 0.9613
vn 0.2235 -0.0015 0.9747
vn 0.3598 0.1141 0.9260
vn 0.3717 0.0176 0.9282
vn 0.1676 -0.0019 0.9858
vn 0.1383 0.1006 0.9853
vn 0.1122 0.1509 0.9821
vn -0.0493 0.0674 0.9965
vn -0.0923 0.1280 0.9875
vn 0.1115 -0.0088 0.9937
vn 0.0445 -0.0559 0.9974
vn 0.2718 0.0705 0.9597
vn 0.1346 0.1001 0.9858
vn -0.0122 -0.6368 0.7709
vn -0.0188 0.1737 0.9846
vn 0.0073 0.0485 0.9988
vn 0.0068 0.1103 0.9939
vn -0.0098 -0.0273 0.9996
vn -0.0100 -0.0258 0.9996
vn -0.0033 -0.0818 0.9966
vn -0.0157 0.1114 0.9936
vn 0.4706 -0.0043 0.8823
vn 0.5083 0.0269 0.8608
vn -0.4530 0.0874 0.8872
vn -0.4786 0.0636 0.8757
vn 0.0025 -0.0384 0.9992
vn 0.5116 0.1106 0.8520
vn 0.5014 0.1483 0.8524
vn -0.4704 0.1452 0.8704
vn -0.4495 0.1328 0.8833
vn -0.0967 -0.3709 0.9236
vn -0.6224 0.0733 0.7792
vn -0.5014 -0.4693 0.7268
vn -0.0187 -0.4017 0.9156
vn 0.3563 0.1488 0.9224
vn -0.5268 -0.4771 0.7035
vn -0.5622 -0.4742 0.6775
vn -0.6216 0.1091 0.7757
vn -0.5926 0.1260 0.7955
vn 0.3178 0.0916 0.9437
vn 0.2846 0.0455 0.9575
vn -0.2231 0.0428 0.9738
vn -0.0215 0.0482 0.9986
vn 0.0096 -0.0064 0.9999
vn -0.1866 -0.0444 0.9814
vn 0.0636 -0.0160 0.9978
vn -0.1379 -0.0378 0.9897
vn -0.5538 0.1042 0.8260
vn 0.4222 0.0795 0.9030
vn 0.1883 0.0507 0.9808
vn -0.0163 -0.1044 0.9944
vn 0.1714 -0.1296 0.9766
vn -0.2098 -0.0642 0.9756
vn -0.0028 -0.0406 0.9991
vn 0.0001 0.6208 0.7840
vn -0.1142 0.6878 0.7168
vn -0.5923 -0.0028 0.8057
vn 0.2770 -0.1378 0.9509
vn 0.2443 0.6257 0.7407
vn -0.4137 0.5676 0.7118
vn 0.0156 -0.0647 0.9978
vn 0.0055 0.0287 0.9996
vn 0.0088 -0.0475 0.9988
vn 0.0127 0.6718 0.7406
vn 0.2390 0.0361 0.9703
vn 0.3116 0.0127 0.9501
vn 0.1520 0.6370 0.7557
vn -0.0475 -0.6437 0.7638
vn -0.0677 -0.6464 0.7600
vn -0.2374 0.1433 0.9608
vn -0.1422 0.1655 0.9759
vn -0.2758 0.0256 0.9608
vn -0.3790 0.0173 0.9252
vn -0.3927 0.0309 0.9191
vn -0.2278 0.0063 0.9737
vn -0.1704 0.0183 0.9852
vn -0.3785 0.0370 0.9248
vn -0.3731 0.1211 0.9198
vn -0.1346 0.1106 0.9847
vn 0.0658 0.0736 0.9951
vn -0.1060 0.1353 0.9851
vn 0.1081 0.1176 0.9872
vn -0.1255 -0.0031 0.9921
vn -0.0523 -0.0487 0.9974
vn -0.1550 0.1067 0.9821
vn -0.2708 0.0796 0.9593
vn 0.0134 -0.0177 0.9997
vn 0.4545 0.0910 0.8861
vn -0.5097 0.0355 0.8596
vn -0.4630 -0.0026 0.8863
vn 0.4841 0.0645 0.8726
vn 0.4670 0.1457 0.8721
vn -0.5084 0.1444 0.8489
vn -0.5210 0.1134 0.8459
vn 0.4494 0.1349 0.8830
vn 0.1081 -0.3622 0.9258
vn 0.6289 0.0775 0.7736
vn 0.5058 -0.4685 0.7244
vn 0.0277 -0.3961 0.9178
vn -0.3640 0.1369 0.9213
vn 0.5320 -0.4769 0.6996
vn 0.5670 -0.4739 0.6737
vn -0.3172 0.0945 0.9436
vn 0.5938 0.1277 0.7944
vn 0.6185 0.1148 0.7774
vn -0.2764 0.0583 0.9593
vn -0.0152 -0.0097 0.9998
vn 0.0312 0.0375 0.9988
vn 0.2337 0.0240 0.9720
vn 0.2000 -0.0436 0.9788
vn 0.1507 -0.0294 0.9881
vn -0.0638 -0.0079 0.9979
vn -0.4248 0.0837 0.9014
vn 0.5530 0.1061 0.8264
vn 0.0445 -0.0804 0.9958
vn -0.1790 0.0548 0.9823
vn -0.1522 -0.0992 0.9833
vn 0.2262 -0.0501 0.9728
vn 0.1287 0.6946 0.7077
vn -0.2225 0.6515 0.7252
vn -0.2637 -0.1033 0.9590
vn 0.5975 0.0199 0.8016
vn 0.4215 0.5734 0.7025
vn 0.0129 0.6869 0.7266
vn -0.2409 0.0345 0.9699
vn -0.3164 0.0170 0.9485
vn -0.1299 0.6498 0.7489
vn -0.2376 -0.1373 -0.9616
vn -0.1164 -0.1632 -0.9797
vn -0.1042 -0.7760 -0.6220
vn -0.2194 -0.7621 -0.6091
vn -0.3963 -0.0264 -0.9177
vn -0.2235 0.0015 -0.9747
vn -0.2748 -0.0185 -0.9613
vn -0.3868 -0.0124 -0.9221
vn -0.3598 -0.1141 -0.9260
vn -0.1383 -0.1006 -0.9853
vn -0.1676 0.0019 -0.9858
vn -0.3717 -0.0176 -0.9282
vn -0.1122 -0.1509 -0.9821
vn 0.0923 -0.1280 -0.9875
vn 0.0493 -0.0674 -0.9965
vn -0.0445 0.0559 -0.9974
vn -0.1115 0.0088 -0.9937
vn -0.1346 -0.1001 -0.9858
vn -0.2718 -0.0705 -0.9597
vn 0.0143 -0.7833 -0.6215
vn 0.0188 -0.1737 -0.9846
vn -0.0073 -0.0485 -0.9988
vn -0.0068 -0.1103 -0.9939
vn 0.0098 0.0273 -0.9996
vn 0.0100 0.0258 -0.9996
vn 0.0033 0.0818 -0.9966
vn 0.0157 -0.1114 -0.9936
vn -0.4706 0.0043 -0.8823
vn -0.8664 0.0754 -0.4936
vn -0.8849 0.0114 -0.4657
vn -0.5083 -0.0269 -0.8608
vn -0.0025 0.0384 -0.9992
vn -0.5116 -0.1106 -0.8520
vn -0.8880 -0.0539 -0.4566
vn -0.8786 -0.1013 -0.4667
vn -0.5014 -0.1483 -0.8524
vn -0.6138 -0.2303 -0.7551
vn -0.6701 -0.6004 -0.4364
vn -0.7985 -0.0837 -0.5961
vn -0.6802 -0.1772 -0.7113
vn -0.3563 -0.1488 -0.9224
vn -0.7490 -0.4935 -0.4420
vn -0.7666 -0.4469 -0.4611
vn -0.7975 0.0296 -0.6026
vn -0.2846 -0.0455 -0.9575
vn -0.3178 -0.0916 -0.9437
vn -0.8119 -0.0565 -0.5811
vn 0.2231 -0.0428 -0.9738
vn 0.1866 0.0444 -0.9814
vn -0.0096 0.0064 -0.9999
vn 0.0215 -0.0482 -0.9986
vn -0.0636 0.0160 -0.9978
vn 0.1379 0.0378 -0.9897
vn -0.4222 -0.0795 -0.9030
vn -0.8431 -0.0811 -0.5315
vn -0.1883 -0.0507 -0.9808
vn -0.1714 0.1296 -0.9766
vn 0.0163 0.1044 -0.9944
vn 0.2098 0.0642 -0.9756
vn 0.1436 0.7291 -0.6692
vn -0.0026 0.7801 -0.6256
vn 0.0028 0.0406 -0.9991
vn -0.7956 0.1654 -0.5827
vn -0.5972 0.6718 -0.4381
vn -0.1476 0.7749 -0.6146
vn -0.2770 0.1378 -0.9509
vn -0.0156 0.0647 -0.9978
vn -0.0055 -0.0287 -0.9996
vn -0.0088 0.0475 -0.9988
vn 0.0146 0.7466 -0.6650
vn -0.2390 -0.0361 -0.9703
vn -0.3116 -0.0127 -0.9501
vn -0.0978 0.7690 -0.6317
vn 0.1255 -0.7754 -0.6189
vn 0.1422 -0.1655 -0.9759
vn 0.2374 -0.1433 -0.9608
vn 0.2216 -0.7648 -0.6049
vn 0.2758 -0.0256 -0.9608
vn 0.2278 -0.0063 -0.9737
vn 0.3927 -0.0309 -0.9191
vn 0.3790 -0.0173 -0.9252
vn 0.1704 -0.0183 -0.9852
vn 0.1346 -0.1106 -0.9847
vn 0.3731 -0.1211 -0.9198
vn 0.3785 -0.0370 -0.9248
vn -0.0658 -0.0736 -0.9951
vn -0.1081 -0.1176 -0.9872
vn 0.1060 -0.1353 -0.9851
vn 0.1255 0.0031 -0.9921
vn 0.0523 0.0487 -0.9974
vn 0.1550 -0.1067 -0.9821
vn 0.2708 -0.0796 -0.9593
vn -0.0134 0.0177 -0.9997
vn 0.8838 0.0098 -0.4677
vn 0.8634 0.0757 -0.4987
vn 0.4630 0.0026 -0.8863
vn 0.5097 -0.0355 -0.8596
vn 0.8798 -0.1018 -0.4643
vn 0.8882 -0.0543 -0.4562
vn 0.5210 -0.1134 -0.8459
vn 0.5084 -0.1444 -0.8489
vn 0.6044 -0.2390 -0.7599
vn 0.7934 -0.0902 -0.6019
vn 0.6656 -0.6029 -0.4398
vn 0.6735 -0.1815 -0.7165
vn 0.3640 -0.1369 -0.9213
vn 0.7454 -0.4939 -0.4475
vn 0.7634 -0.4468 -0.4664
vn 0.3172 -0.0945 -0.9436
vn 0.2764 -0.0583 -0.9593
vn 0.7976 0.0150 -0.6029
vn 0.8114 -0.0607 -0.5813
vn 0.0152 0.0097 -0.9998
vn -0.2000 0.0436 -0.9788
vn -0.2337 -0.0240 -0.9720
vn -0.0312 -0.0375 -0.9988
vn 0.0638 0.0079 -0.9979
vn -0.1507 0.0294 -0.9881
vn 0.4248 -0.0837 -0.9014
vn 0.8437 -0.0858 -0.5299
vn -0.0445 0.0804 -0.9958
vn 0.1522 0.0992 -0.9833
vn 0.1790 -0.0548 -0.9823
vn -0.2262 0.0501 -0.9728
vn -0.1641 0.7218 -0.6723
vn 0.1445 0.7550 -0.6395
vn 0.5992 0.6628 -0.4490
vn 0.7949 0.1377 -0.5909
vn 0.2637 0.1033 -0.9590
vn -0.0393 0.7345 -0.6774
vn 0.2409 -0.0345 -0.9699
vn 0.3164 -0.0170 -0.9485
vn 0.0838 0.7579 -0.6469
usemtl default
s 1
f 1//1 4//2 3//3 2//4
f 6//5 9//6 8//7 7//8
f 10//9 13//10 12//11 11//12
f 18//13 11//12 20//14 19//15
f 7//8 8//7 22//16 21//17
f 8//7 24//18 23//19 22//16
f 26//20 27//21 2//4 3//3
f 28//22 29//23 19//15 20//14
f 30//24 20//14 11//12 12//11
f 31//25 32//26 21//17 22//16
f 27//21 33//27 23//19 2//4
f 34//28 35//29 16//30 15//31
f 32//26 36//32 30//24 21//17
f 12//11 7//8 21//17 30//24
f 37//33 39//34 38//35 17//36
f 9//6 40//37 24//18 8//7
f 24//18 1//1 2//4 23//19
f 4//2 1//1 41//38 25//39
f 1//1 24//18 40//37 41//38
f 34//28 42//40 9//6 6//5
f 37//33 35//29 13//10 10//9
f 7//8 12//11 13//10 6//5
f 11//12 18//13 43//41 10//9
f 42//40 5//42 40//37 9//6
f 6//5 13//10 35//29 34//28
f 10//9 43//41 39//34 37//33
f 15//31 14//43 42//40 34//28
f 17//36 16//30 35//29 37//33
f 44//44 45//45 48//46 47//47
f 49//48 52//49 51//50 50//51
f 53//52 54//53 50//51 51//50
f 45//45 46//54 55//55 48//46
f 56//56 52//49 58//57 57//58
f 46//54 38//35 39//34 55//55
f 63//59 58//57 52//49 49//48
f 63//59 65//60 64//61 60//62
f 66//63 67//64 61//65 62//66
f 68//67 69//68 49//48 50//51
f 70//69 68//67 50//51 54//53
f 69//68 65//60 63//59 49//48
f 58//57 63//59 60//62 59//70
f 53//52 18//13 19//15 54//53
f 29//23 70//69 54//53 19//15
f 56//56 71//71 51//50 52//49
f 71//71 72//72 53//52 51//50
f 57//58 67//64 47//47 56//56
f 72//72 43//41 18//13 53//52
f 57//58 58//57 59//70 73//73
f 47//47 48//46 71//71 56//56
f 48//46 55//55 72//72 71//71
f 55//55 39//34 43//41 72//72
f 67//64 57//58 73//73 61//65
f 67//64 66//63 44//44 47//47
f 20//14 30//24 36//32 28//22
f 22//16 23//19 33//27 31//25
f 74//74 77//75 76//76 75//77
f 79//78 82//79 81//80 80//81
f 83//82 86//83 85//84 84//85
f 91//86 84//85 93//87 92//88
f 94//89 79//78 80//81 95//90
f 96//91 97//92 79//78 94//89
f 75//77 27//21 26//20 74//74
f 92//88 29//23 28//22 91//86
f 84//85 91//86 99//93 83//82
f 95//90 32//26 31//25 94//89
f 96//91 33//27 27//21 75//77
f 89//94 101//95 100//96 88//97
f 99//93 36//32 32//26 95//90
f 95//90 80//81 83//82 99//93
f 102//98 104//99 103//100 90//101
f 97//92 105//102 82//79 79//78
f 75//77 76//76 97//92 96//91
f 106//103 76//76 77//75 98//104
f 105//102 97//92 76//76 106//103
f 82//79 107//105 100//96 81//80
f 86//83 101//95 103//100 85//84
f 86//83 83//82 80//81 81//80
f 108//106 93//87 84//85 85//84
f 105//102 78//107 107//105 82//79
f 101//95 86//83 81//80 100//96
f 104//99 108//106 85//84 103//100
f 107//105 87//108 88//97 100//96
f 101//95 89//94 90//101 103//100
f 112//109 110//110 109//111 113//112
f 114//113 117//114 116//115 115//116
f 115//116 119//117 118//118 114//113
f 120//119 111//120 110//110 112//109
f 121//121 117//114 123//122 122//123
f 104//99 102//98 111//120 120//119
f 117//114 121//121 128//124 116//115
f 64//61 65//60 128//124 125//125
f 127//126 130//127 129//128 126//129
f 116//115 69//68 68//67 115//116
f 115//116 68//67 70//69 119//117
f 128//124 65//60 69//68 116//115
f 125//125 128//124 121//121 124//130
f 92//88 93//87 118//118 119//117
f 119//117 70//69 29//23 92//88
f 114//113 131//131 123//122 117//114
f 118//118 132//132 131//131 114//113
f 113//112 130//127 122//123 123//122
f 93//87 108//106 132//132 118//118
f 124//130 121//121 122//123 133//133
f 131//131 112//109 113//112 123//122
f 132//132 120//119 112//109 131//131
f 108//106 104//99 120//119 132//132
f 133//133 122//123 130//127 127//126
f 109//111 129//128 130//127 113//112
f 36//32 99//93 91//86 28//22
f 33//27 96//91 94//89 31//25
f 171//134 224//135 247//136 254//137
f 251//138 248//139 249//140 235//141
f 237//142 266//143 252//144 258//145
f 173//146 170//147 226//148 266//143
f 248//139 261//149 262//150 249//140
f 249//140 262//150 259//151 260//152
f 205//153 247//136 224//135 206//154
f 177//155 226//148 170//147 166//156
f 210//157 252//144 266//143 226//148
f 186//158 262//150 261//149 184//159
f 206//154 224//135 259//151 181//160
f 162//161 253//162 244//163 230//164
f 184//159 261//149 210//157 208//165
f 252//144 210//157 261//149 248//139
f 221//166 245//167 194//168 200//169
f 235//141 249//140 260//152 236//170
f 260//152 259//151 224//135 171//134
f 254//137 238//171 172//172 171//134
f 171//134 172//172 236//170 260//152
f 162//161 251//138 235//141 152//173
f 221//166 237//142 258//145 230//164
f 248//139 251//138 258//145 252//144
f 266//143 237//142 163//174 173//146
f 152//173 235//141 236//170 192//175
f 251//138 162//161 230//164 258//145
f 237//142 221//166 200//169 163//174
f 253//162 162//161 152//173 151//176
f 245//167 221//166 230//164 244//163
f 142//177 138//178 232//179 257//180
f 155//181 176//182 231//183 225//184
f 174//185 231//183 176//182 167//186
f 257//180 232//179 201//187 195//188
f 220//189 175//190 168//191 225//184
f 195//188 201//187 200//169 194//168
f 156//192 155//181 225//184 168//191
f 156//192 233//193 196//194 157//195
f 143//196 229//197 228//198 139//199
f 144//200 176//182 155//181 146//201
f 145//202 167//186 176//182 144//200
f 146//201 155//181 156//192 157//195
f 168//191 214//203 233//193 156//192
f 174//185 167//186 170//147 173//146
f 166//156 170//147 167//186 145//202
f 220//189 225//184 231//183 160//204
f 160//204 231//183 174//185 161//205
f 175//190 220//189 138//178 139//199
f 161//205 174//185 173//146 163//174
f 175//190 265//206 214//203 168//191
f 138//178 220//189 160//204 232//179
f 232//179 160//204 161//205 201//187
f 201//187 161//205 163//174 200//169
f 139//199 228//198 265//206 175//190
f 139//199 138//178 142//177 143//196
f 226//148 177//155 208//165 210//157
f 262//150 186//158 181//160 259//151
f 218//207 216//208 219//209 242//210
f 227//211 240//212 136//213 222//214
f 134//215 241//216 215//217 255//218
f 178//219 190//220 197//221 241//216
f 187//222 185//223 240//212 227//211
f 182//224 187//222 227//211 149//225
f 216//208 218//207 205//153 206//154
f 190//220 178//219 177//155 166//156
f 241//216 134//215 135//226 178//219
f 185//223 187//222 186//158 184//159
f 182//224 216//208 206//154 181//160
f 147//227 256//228 137//229 193//230
f 135//226 185//223 184//159 208//165
f 185//223 135//226 134//215 240//212
f 183//231 148//232 179//233 180//234
f 149//225 227//211 222//214 150//235
f 216//208 182//224 149//225 219//209
f 239//236 243//237 242//210 219//209
f 150//235 239//236 219//209 149//225
f 222//214 136//213 137//229 213//238
f 255//218 215//217 179//233 193//230
f 255//218 136//213 240//212 134//215
f 198//239 215//217 241//216 197//221
f 150//235 222//214 213//238 217//240
f 193//230 137//229 136//213 255//218
f 180//234 179//233 215//217 198//239
f 213//238 137//229 256//228 212//241
f 193//230 179//233 148//232 147//227
f 169//242 202//243 209//244 263//245
f 140//246 223//247 211//248 250//249
f 223//247 140//246 159//250 234//251
f 153//252 169//242 263//245 246//253
f 188//254 189//255 191//256 250//249
f 180//234 153//252 246//253 183//231
f 250//249 211//248 158//257 188//254
f 196//194 207//258 158//257 157//195
f 204//259 203//260 164//261 165//262
f 211//248 223//247 144//200 146//201
f 223//247 234//251 145//202 144//200
f 158//257 211//248 146//201 157//195
f 207//258 199//263 188//254 158//257
f 190//220 234//251 159//250 197//221
f 234//251 190//220 166//156 145//202
f 140//246 250//249 191//256 141//264
f 159//250 140//246 141//264 154//265
f 202//243 191//256 189//255 165//262
f 197//221 159//250 154//265 198//239
f 199//263 264//266 189//255 188//254
f 141//264 191//256 202//243 169//242
f 154//265 141//264 169//242 153//252
f 198//239 154//265 153//252 180//234
f 264//266 204//259 165//262 189//255
f 209//244 202//243 165//262 164//261
f 208//165 177//155 178//219 135//226
f 181//160 186//158 187//222 182//224
f 90//101 89//94 147//227 148//232
f 105//102 106//103 239//236 150//235
f 129//128 109//111 209//244 164//261
f 60//62 64//61 196//194 233//193
f 61//65 73//73 265//206 228//198
f 40//37 5//42 192//175 236//170
f 26//20 3//3 247//136 205//153
f 89//94 88//97 256//228 147//227
f 42//40 14//43 151//176 152//173
f 41//38 40//37 236//170 172//172
f 77//75 74//74 218//207 242//210
f 88//97 87//108 212//241 256//228
f 25//39 41//38 172//172 238//171
f 5//42 42//40 152//173 192//175
f 64//61 125//125 207//258 196//194
f 73//73 59//70 214//203 265//206
f 66//63 62//66 229//197 143//196
f 87//108 107//105 213//238 212//241
f 17//36 38//35 194//168 245//167
f 109//111 110//110 263//245 209//244
f 38//35 46//54 195//188 194//168
f 124//130 133//133 264//266 199//263
f 78//107 105//102 150//235 217//240
f 126//129 129//128 164//261 203//260
f 62//66 61//65 228//198 229//197
f 111//120 102//98 183//231 246//253
f 45//45 44//44 142//177 257//180
f 110//110 111//120 246//253 263//245
f 15//31 16//30 244//163 253//162
f 4//2 25//39 238//171 254//137
f 3//3 4//2 254//137 247//136
f 127//126 126//129 203//260 204//259
f 106//103 98//104 243//237 239//236
f 46//54 45//45 257//180 195//188
f 133//133 127//126 204//259 264//266
f 107//105 78//107 217//240 213//238
f 44//44 66//63 143//196 142//177
f 59//70 60//62 233//193 214//203
f 102//98 90//101 148//232 183//231
f 74//74 26//20 205//153 218//207
f 125//125 124//130 199//263 207//258
f 98//104 77//75 242//210 243//237
f 14//43 15//31 253//162 151//176
f 16//30 17//36 245//167 244//163
