# Blender v2.79 (sub 0) OBJ File: 'MALEBODY.blend'
# www.blender.org
mtllib male_midback.mtl
o Body.012_Body.017
v -1.773087 122.837700 9.148254
v -1.659356 120.889442 8.729253
v 0.000000 121.055267 8.092047
v 0.000000 123.024643 8.536819
v -1.997638 126.744339 10.155556
v -1.870617 124.782799 9.677566
v 0.000000 124.989182 9.040239
v 0.000000 126.944794 9.535863
v -3.745699 124.490723 10.219264
v -3.974895 126.433411 10.786992
v -3.533104 122.567894 9.672399
v -3.329739 120.669907 9.151064
v -6.066023 126.115982 10.887579
v -5.706257 124.199867 10.284579
v -5.063074 120.460983 9.100891
v -7.625513 123.945816 9.773252
v -8.120998 125.802872 10.375083
v -5.378306 122.306473 9.716399
v -6.765961 120.289917 8.608431
v -7.182655 122.105858 9.196657
v -13.391552 144.279205 12.858491
v -13.922253 141.854599 12.792195
v -2.118328 128.703384 10.654136
v -4.226322 128.391571 11.323001
v -2.249881 130.658798 11.135473
v -4.505072 130.361847 11.775829
v -2.388176 132.609222 11.617545
v -4.800387 132.348709 12.126021
v -2.513653 134.574158 12.082828
v -5.084306 134.352356 12.419614
v 0.000000 132.802277 10.977337
v 0.000000 134.729248 11.488089
v -7.753551 134.058975 12.273576
v -7.304913 132.061401 12.034364
v -6.867750 130.063675 11.783690
v -9.792315 131.655487 11.530848
v -9.182417 129.693329 11.218657
v -6.453621 128.075790 11.396125
v -8.639900 127.723480 10.868958
v -13.096037 133.097885 10.911352
v -10.465891 133.615738 11.812046
v -14.093257 135.050079 11.054925
v -15.256670 137.228333 11.015724
v -11.195762 135.534058 12.358579
v -8.159259 136.090134 12.445589
v -5.318284 136.393921 12.647518
v -11.682706 137.592148 12.862798
v -8.417278 138.141251 12.922866
v -14.551862 139.512833 12.254068
v -11.531408 139.866882 13.426027
v -11.146966 142.275696 13.623269
v -10.769983 144.741928 13.513026
v -8.380247 140.312317 13.467538
v -8.195004 142.643921 13.683796
v -5.490690 140.664795 12.860378
v -5.395747 142.914627 12.979169
v -5.462589 138.491226 12.800293
v -2.614837 136.596146 12.413755
v 0.000000 136.720810 11.765573
v -2.703146 140.833984 12.590233
v 0.000000 140.897797 12.038322
v 0.000000 138.777390 11.921596
v -2.682435 138.683868 12.558414
v 0.000000 128.918121 9.956079
v 0.000000 130.887009 10.387288
v 1.582308 120.889519 8.728748
v 1.695947 122.837608 9.148582
v 1.793444 124.782494 9.678710
v 1.920394 126.743866 10.157413
v 3.668353 124.489777 10.222596
v 3.897763 126.432983 10.788611
v 3.456010 122.567703 9.672996
v 3.252587 120.669830 9.151155
v 5.989278 126.115204 10.890066
v 5.629574 124.198685 10.288342
v 4.986119 120.460587 9.102057
v 7.551093 123.943214 9.780539
v 8.047385 125.799454 10.383999
v 5.301412 122.305908 9.718087
v 6.689935 120.288841 8.611767
v 7.107506 122.103928 9.202342
v 13.321218 144.274139 12.879636
v 13.857869 141.843262 12.813975
v 2.041036 128.702957 10.655945
v 4.149359 128.391190 11.323954
v 4.428813 130.360641 11.776820
v 2.172817 130.658401 11.136604
v 2.311635 132.608200 11.618242
v 4.724878 132.346466 12.127379
v 2.437371 134.572586 12.083096
v 5.009753 134.348129 12.422482
v 7.233224 132.055328 12.043560
v 7.684494 134.049606 12.287345
v 6.793372 130.060425 11.788872
v 9.116663 129.683960 11.238586
v 9.732863 131.641434 11.559589
v 6.377720 128.074142 11.399267
v 8.568795 127.718094 10.880987
v 13.062140 133.074188 10.950832
v 10.413255 133.596497 11.849404
v 14.053624 135.030273 11.079373
v 15.209841 137.211288 11.028989
v 11.142834 135.514328 12.392025
v 8.091550 136.078232 12.460873
v 5.244061 136.387955 12.653257
v 11.623486 137.575195 12.882486
v 8.347295 138.128769 12.937909
v 14.494887 139.496811 12.271195
v 11.464867 139.852997 13.441733
v 11.075615 142.266144 13.641433
v 10.695406 144.737671 13.530454
v 8.307172 140.302536 13.477628
v 8.119196 142.637238 13.695804
v 5.319184 142.910950 12.981840
v 5.415272 140.659470 12.862416
v 5.388041 138.484818 12.803967
v 2.538702 136.593842 12.413938
v 2.626444 140.831787 12.590420
v 2.606106 138.681305 12.558631
v -0.000848 132.719315 11.394611
v -0.000848 134.646286 11.905363
v -8.418126 138.058289 13.340140
v -5.463437 138.408264 13.217567
v -7.754399 133.976013 12.690850
v -7.305761 131.978439 12.451638
v -9.793162 131.572525 11.948122
v -10.466739 133.532776 12.229321
v -6.868598 129.980713 12.200965
v -7.626361 123.862854 10.190527
v -7.183503 122.022896 9.613932
v -2.250729 130.575836 11.552748
v -0.000848 130.804047 10.804563
v -5.085154 134.269394 12.836888
v -5.319132 136.310959 13.064793
v -8.121846 125.719910 10.792357
v -9.183265 129.610367 11.635931
v -8.640748 127.640518 11.286233
v -2.615685 136.513184 12.831030
v 4.148511 128.308228 11.741228
v 6.376872 127.991180 11.816542
v -6.766809 120.206955 9.025705
v -2.119176 128.620422 11.071410
v -0.000848 128.835159 10.373354
v -6.454469 127.992828 11.813399
v 5.628726 124.115723 10.705617
v 5.300564 122.222946 10.135362
v -5.379154 122.223511 10.133674
v -13.096885 133.014923 11.328627
v -14.094105 134.967117 11.472199
v -5.491538 140.581833 13.277653
v -2.703994 140.751022 13.007507
v 7.550245 123.860252 10.197813
v 5.988430 126.032242 11.307341
v 8.046537 125.716492 10.801273
v 4.427965 130.277679 12.194095
v 6.792524 129.977463 12.206146
v -11.196609 135.451096 12.775853
v -15.257518 137.145370 11.432999
v 2.310787 132.525238 12.035517
v 2.436523 134.489624 12.500370
v 4.985271 120.377625 9.519331
v 6.689087 120.205879 9.029041
v 4.724030 132.263504 12.544654
v 5.008905 134.265167 12.839756
v 7.232376 131.972366 12.460835
v 5.243213 136.304993 13.070532
v 2.537854 136.510880 12.831212
v 1.581460 120.806557 9.146023
v 1.695099 122.754646 9.565857
v 5.387193 138.401855 13.221242
v 8.346447 138.045807 13.355184
v -5.396595 142.831665 13.396443
v 2.171969 130.575439 11.553879
v -8.381095 140.229355 13.884812
v -8.195852 142.560959 14.101070
v -11.147814 142.192734 14.040544
v -10.770831 144.658966 13.930301
v -11.532256 139.783920 13.843302
v -13.923100 141.771637 13.209469
v -14.552710 139.429871 12.671343
v 2.040188 128.619995 11.073219
v -2.514501 134.491196 12.500102
v -13.392400 144.196243 13.275765
v -8.160107 136.007172 12.862864
v -0.000848 136.637848 12.182847
v 5.414424 140.576508 13.279691
v 2.625596 140.748825 13.007694
v -6.066871 126.033020 11.304853
v -5.707105 124.116905 10.701854
v -3.533952 122.484932 10.089673
v -11.683554 137.509186 13.280072
v 2.605258 138.598343 12.975905
v -1.871465 124.699837 10.094840
v -3.746547 124.407761 10.636539
v 3.455162 122.484741 10.090270
v -0.000848 122.941681 8.954094
v -1.998486 126.661377 10.572830
v -0.000848 124.906219 9.457514
v -0.000848 126.861832 9.953137
v 13.857021 141.760300 13.231249
v 14.494040 139.413849 12.688470
v -0.000848 120.972305 8.509321
v -3.975743 126.350449 11.204267
v -1.773935 122.754738 9.565529
v 13.320370 144.191177 13.296910
v 10.694558 144.654709 13.947728
v 8.090702 135.995270 12.878147
v 11.074767 142.183182 14.058707
v 3.251739 120.586868 9.568429
v 11.622638 137.492233 13.299761
v 11.464019 139.770035 13.859008
v 8.306324 140.219574 13.894902
v -1.660204 120.806480 9.146527
v -3.330587 120.586945 9.568338
v -5.063922 120.378021 9.518166
v 5.318336 142.827988 13.399115
v 8.118348 142.554276 14.113078
v -0.000848 140.814835 12.455597
v -0.000848 138.694427 12.338870
v 14.052776 134.947311 11.496648
v 11.141986 135.431366 12.809299
v 7.683646 133.966644 12.704619
v 15.208993 137.128326 11.446263
v 10.412407 133.513535 12.266679
v 9.115815 129.600998 11.655861
v 8.567947 127.635132 11.298262
v -4.227170 128.308609 11.740275
v 9.732016 131.558472 11.976864
v 7.106658 122.020966 9.619617
v 1.792596 124.699532 10.095984
v 1.919546 126.660904 10.574688
v 13.061293 132.991226 11.368107
v 3.667505 124.406815 10.639871
v 3.896915 126.350021 11.205886
v -2.683283 138.600906 12.975689
v -4.801235 132.265747 12.543296
v -4.505920 130.278885 12.193104
v -2.389024 132.526260 12.034820
vn -0.3213 0.2158 -0.9220
vn 0.0074 0.2262 -0.9740
vn 0.0058 -0.4564 -0.8897
vn -0.1948 -0.5680 -0.7996
vn -0.3201 0.2139 -0.9229
vn 0.0065 0.2240 -0.9745
vn 0.0069 0.2387 -0.9711
vn -0.3205 0.2253 -0.9200
vn -0.1943 0.2517 -0.9481
vn -0.2011 0.2403 -0.9496
vn -0.1760 0.2507 -0.9519
vn -0.0403 -0.5668 -0.8228
vn 0.0640 0.3064 -0.9497
vn 0.0547 0.2889 -0.9558
vn -0.6156 0.0840 -0.7836
vn -0.6274 0.0497 -0.7771
vn 0.1772 -0.5225 -0.8339
vn 0.0850 0.3099 -0.9469
vn -0.3854 -0.4629 -0.7982
vn -0.6146 0.0986 -0.7827
vn -0.1894 0.2136 -0.9583
vn -0.3189 0.2031 -0.9257
vn -0.1525 0.1796 -0.9718
vn -0.2965 0.2034 -0.9331
vn -0.1013 0.1576 -0.9823
vn -0.2468 0.2032 -0.9475
vn -0.0529 0.1341 -0.9895
vn -0.1976 0.1646 -0.9663
vn 0.0046 0.2458 -0.9693
vn 0.0039 0.1891 -0.9819
vn 0.0924 0.1613 -0.9825
vn 0.0744 0.1522 -0.9855
vn 0.0843 0.1905 -0.9780
vn -0.6007 -0.0520 -0.7978
vn -0.5997 -0.0943 -0.7946
vn 0.0658 0.2405 -0.9684
vn -0.6202 -0.0013 -0.7844
vn -0.0387 -0.2406 -0.9698
vn -0.2391 -0.5608 -0.7926
vn -0.4674 -0.1702 -0.8675
vn 0.1940 0.2494 -0.9487
vn 0.0218 0.1717 -0.9849
vn -0.0392 0.1122 -0.9929
vn -0.6065 0.1103 -0.7874
vn 0.2049 0.2579 -0.9442
vn -0.0434 0.1925 -0.9803
vn -0.5584 0.4076 -0.7225
vn 0.1719 0.1730 -0.9698
vn -0.5966 0.2247 -0.7704
vn 0.4649 0.2617 -0.8458
vn -0.4643 0.6126 -0.6396
vn 0.6040 0.6695 -0.4324
vn -0.0927 0.1356 -0.9864
vn -0.1548 0.8243 -0.5446
vn 0.1818 0.3991 -0.8987
vn 0.5012 0.6560 -0.5643
vn -0.0831 0.0944 -0.9920
vn -0.1711 0.0992 -0.9802
vn 0.0036 0.1056 -0.9944
vn -0.1592 0.0461 -0.9861
vn 0.0033 0.0508 -0.9987
vn -0.1254 0.7955 -0.5929
vn 0.0026 0.7429 -0.6694
vn 0.0061 0.2163 -0.9763
vn 0.0054 0.2362 -0.9717
vn 0.3286 0.2154 -0.9196
vn 0.1990 -0.5708 -0.7966
vn 0.3263 0.2131 -0.9209
vn 0.3273 0.2248 -0.9178
vn 0.2014 0.2400 -0.9496
vn 0.1948 0.2519 -0.9479
vn 0.1765 0.2513 -0.9517
vn 0.0406 -0.5665 -0.8231
vn -0.0527 0.2887 -0.9560
vn -0.0626 0.3065 -0.9498
vn 0.6299 0.0484 -0.7751
vn 0.6180 0.0829 -0.7818
vn -0.0836 0.3106 -0.9468
vn -0.1764 -0.5220 -0.8345
vn 0.6170 0.0979 -0.7808
vn 0.3871 -0.4630 -0.7974
vn 0.3246 0.2024 -0.9239
vn 0.1899 0.2136 -0.9583
vn 0.1535 0.1798 -0.9716
vn 0.3018 0.2028 -0.9315
vn 0.2514 0.2028 -0.9464
vn 0.1031 0.1580 -0.9820
vn 0.2019 0.1645 -0.9655
vn 0.0555 0.1347 -0.9893
vn -0.0863 0.1625 -0.9829
vn -0.0681 0.1523 -0.9860
vn -0.0796 0.1916 -0.9782
vn 0.6046 -0.0532 -0.7947
vn 0.6042 -0.0957 -0.7910
vn -0.0626 0.2411 -0.9684
vn 0.6230 -0.0024 -0.7822
vn 0.0441 -0.2438 -0.9688
vn -0.1923 0.2452 -0.9502
vn 0.4682 -0.1734 -0.8665
vn 0.2424 -0.5630 -0.7901
vn -0.0172 0.1700 -0.9853
vn 0.0420 0.1122 -0.9928
vn 0.6071 0.1101 -0.7870
vn -0.2043 0.2546 -0.9452
vn 0.0462 0.1904 -0.9806
vn -0.1703 0.1726 -0.9701
vn 0.5594 0.4094 -0.7207
vn -0.4626 0.2613 -0.8471
vn 0.5987 0.2269 -0.7682
vn -0.6028 0.6695 -0.4339
vn 0.4655 0.6128 -0.6385
vn 0.0952 0.1352 -0.9862
vn 0.1569 0.8245 -0.5436
vn -0.1790 0.3978 -0.8998
vn -0.4991 0.6564 -0.5657
vn 0.0855 0.0935 -0.9919
vn 0.1754 0.0991 -0.9795
vn 0.1631 0.0458 -0.9855
vn 0.1285 0.7959 -0.5916
vn 0.3213 -0.2158 0.9220
vn 0.2676 -0.8048 0.5297
vn -0.0051 -0.9017 0.4322
vn -0.0074 -0.2262 0.9740
vn 0.3201 -0.2139 0.9229
vn 0.3205 -0.2253 0.9200
vn -0.0069 -0.2387 0.9711
vn -0.0065 -0.2240 0.9745
vn 0.1943 -0.2517 0.9481
vn 0.2011 -0.2403 0.9496
vn 0.1760 -0.2507 0.9519
vn 0.1842 -0.8087 0.5585
vn -0.0547 -0.2889 0.9558
vn -0.0640 -0.3064 0.9497
vn -0.7476 -0.3599 0.5581
vn -0.7364 -0.3582 0.5739
vn 0.0203 -0.8430 0.5376
vn -0.0850 -0.3099 0.9469
vn -0.5165 -0.7985 0.3090
vn -0.7559 -0.3492 0.5538
vn 0.3189 -0.2031 0.9257
vn 0.1894 -0.2136 0.9583
vn 0.2965 -0.2034 0.9331
vn 0.1525 -0.1796 0.9718
vn 0.2468 -0.2032 0.9475
vn 0.1013 -0.1576 0.9823
vn 0.1976 -0.1646 0.9663
vn 0.0529 -0.1341 0.9895
vn -0.0046 -0.2458 0.9693
vn -0.0039 -0.1891 0.9819
vn -0.0744 -0.1522 0.9855
vn -0.0924 -0.1613 0.9825
vn -0.0843 -0.1905 0.9780
vn -0.7330 -0.3152 0.6027
vn -0.7434 -0.3092 0.5931
vn -0.0658 -0.2405 0.9684
vn -0.7394 -0.3274 0.5882
vn -0.3742 -0.5204 0.7675
vn -0.4020 -0.8524 0.3343
vn -0.1940 -0.2494 0.9487
vn -0.7479 -0.4397 0.4971
vn -0.0218 -0.1717 0.9849
vn 0.0392 -0.1122 0.9929
vn -0.2049 -0.2579 0.9442
vn -0.8926 -0.1955 0.4062
vn 0.0434 -0.1925 0.9803
vn -0.1719 -0.1730 0.9698
vn -0.7872 0.0137 0.6166
vn 0.0401 0.2249 0.9735
vn -0.7618 0.1183 0.6369
vn 0.5350 0.5199 0.6659
vn -0.6376 0.5321 0.5570
vn 0.0927 -0.1356 0.9864
vn 0.0307 0.5799 0.8141
vn 0.3846 0.1802 0.9053
vn 0.6383 0.5194 0.5681
vn 0.0831 -0.0944 0.9920
vn 0.1711 -0.0992 0.9802
vn -0.0036 -0.1056 0.9944
vn -0.0033 -0.0508 0.9987
vn 0.1592 -0.0461 0.9861
vn 0.0935 0.6196 0.7793
vn -0.0017 0.6714 0.7411
vn -0.0061 -0.2163 0.9763
vn -0.0054 -0.2362 0.9717
vn -0.2737 -0.8030 0.5294
vn -0.3286 -0.2154 0.9196
vn -0.3273 -0.2248 0.9178
vn -0.3263 -0.2132 0.9209
vn -0.1948 -0.2519 0.9479
vn -0.2014 -0.2400 0.9496
vn -0.1765 -0.2513 0.9517
vn -0.1845 -0.8089 0.5582
vn 0.0527 -0.2887 0.9560
vn 0.0626 -0.3065 0.9498
vn 0.7454 -0.3609 0.5604
vn 0.7338 -0.3594 0.5764
vn -0.0213 -0.8432 0.5372
vn 0.0836 -0.3106 0.9468
vn 0.5147 -0.7993 0.3101
vn 0.7538 -0.3504 0.5559
vn -0.3246 -0.2024 0.9239
vn -0.1899 -0.2136 0.9583
vn -0.1535 -0.1798 0.9716
vn -0.3018 -0.2028 0.9315
vn -0.2514 -0.2028 0.9464
vn -0.1031 -0.1580 0.9820
vn -0.2019 -0.1645 0.9655
vn -0.0555 -0.1347 0.9893
vn 0.0863 -0.1625 0.9829
vn 0.0681 -0.1523 0.9860
vn 0.0796 -0.1916 0.9782
vn 0.7390 -0.3130 0.5965
vn 0.7278 -0.3194 0.6068
vn 0.0626 -0.2411 0.9684
vn 0.7361 -0.3300 0.5909
vn 0.3691 -0.5202 0.7702
vn 0.1923 -0.2452 0.9502
vn 0.4019 -0.8512 0.3374
vn 0.7492 -0.4349 0.4995
vn 0.0172 -0.1700 0.9853
vn -0.0420 -0.1122 0.9928
vn 0.8925 -0.1921 0.4081
vn 0.2043 -0.2546 0.9452
vn -0.0462 -0.1904 0.9806
vn 0.1703 -0.1726 0.9701
vn 0.7855 0.0147 0.6186
vn -0.0418 0.2245 0.9736
vn 0.7597 0.1186 0.6394
vn -0.5375 0.5195 0.6642
vn 0.6355 0.5325 0.5590
vn -0.0952 -0.1352 0.9862
vn -0.0324 0.5793 0.8144
vn -0.6401 0.5195 0.5660
vn -0.3865 0.1809 0.9044
vn -0.0855 -0.0935 0.9919
vn -0.1754 -0.0991 0.9795
vn -0.1631 -0.0458 0.9855
vn -0.0956 0.6192 0.7794
usemtl default
s 1
f 1//1 4//2 3//3 2//4
f 5//5 8//6 7//7 6//8
f 9//9 10//10 5//5 6//8
f 11//11 9//9 6//8 1//1
f 2//4 12//12 11//11 1//1
f 9//9 14//13 13//14 10//10
f 16//15 17//16 13//14 14//13
f 15//17 18//18 11//11 12//12
f 11//11 18//18 14//13 9//9
f 19//19 20//20 18//18 15//17
f 20//20 16//15 14//13 18//18
f 10//10 24//21 23//22 5//5
f 23//22 24//21 26//23 25//24
f 26//23 28//25 27//26 25//24
f 28//25 30//27 29//28 27//26
f 31//29 27//26 29//28 32//30
f 30//27 28//25 34//31 33//32
f 28//25 26//23 35//33 34//31
f 34//31 35//33 37//34 36//35
f 26//23 24//21 38//36 35//33
f 35//33 38//36 39//37 37//34
f 24//21 10//10 13//14 38//36
f 38//36 13//14 17//16 39//37
f 33//32 34//31 36//35 41//38
f 40//39 42//40 44//41 41//38
f 33//32 41//38 44//41 45//42
f 30//27 33//32 45//42 46//43
f 44//41 42//40 43//44 47//45
f 44//41 47//45 48//46 45//42
f 43//44 49//47 50//48 47//45
f 49//47 22//49 51//50 50//48
f 22//49 21//51 52//52 51//50
f 48//46 47//45 50//48 53//53
f 53//53 50//48 51//50 54//54
f 55//55 53//53 54//54 56//56
f 48//46 53//53 55//55 57//57
f 29//28 30//27 46//43 58//58
f 32//30 29//28 58//58 59//59
f 46//43 45//42 48//46 57//57
f 59//59 58//58 63//60 62//61
f 60//62 61//63 62//61 63//60
f 58//58 46//43 57//57 63//60
f 55//55 60//62 63//60 57//57
f 1//1 6//8 7//7 4//2
f 8//6 5//5 23//22 64//64
f 64//64 23//22 25//24 65//65
f 65//65 25//24 27//26 31//29
f 3//3 4//2 67//66 66//67
f 7//7 8//6 69//68 68//69
f 69//68 71//70 70//71 68//69
f 68//69 70//71 72//72 67//66
f 72//72 73//73 66//67 67//66
f 74//74 75//75 70//71 71//70
f 74//74 78//76 77//77 75//75
f 72//72 79//78 76//79 73//73
f 75//75 79//78 72//72 70//71
f 79//78 81//80 80//81 76//79
f 75//75 77//77 81//80 79//78
f 84//82 85//83 71//70 69//68
f 86//84 85//83 84//82 87//85
f 88//86 89//87 86//84 87//85
f 90//88 91//89 89//87 88//86
f 90//88 88//86 31//29 32//30
f 92//90 89//87 91//89 93//91
f 94//92 86//84 89//87 92//90
f 95//93 94//92 92//90 96//94
f 97//95 85//83 86//84 94//92
f 98//96 97//95 94//92 95//93
f 74//74 71//70 85//83 97//95
f 78//76 74//74 97//95 98//96
f 96//94 92//90 93//91 100//97
f 103//98 101//99 99//100 100//97
f 103//98 100//97 93//91 104//101
f 104//101 93//91 91//89 105//102
f 102//103 101//99 103//98 106//104
f 107//105 106//104 103//98 104//101
f 109//106 108//107 102//103 106//104
f 110//108 83//109 108//107 109//106
f 111//110 82//111 83//109 110//108
f 109//106 106//104 107//105 112//112
f 110//108 109//106 112//112 113//113
f 113//113 112//112 115//114 114//115
f 115//114 112//112 107//105 116//116
f 105//102 91//89 90//88 117//117
f 117//117 90//88 32//30 59//59
f 107//105 104//101 105//102 116//116
f 119//118 117//117 59//59 62//61
f 62//61 61//63 118//119 119//118
f 116//116 105//102 117//117 119//118
f 119//118 118//119 115//114 116//116
f 7//7 68//69 67//66 4//2
f 84//82 69//68 8//6 64//64
f 87//85 84//82 64//64 65//65
f 88//86 87//85 65//65 31//29
f 204//120 213//121 202//122 196//123
f 197//124 193//125 198//126 199//127
f 194//128 193//125 197//124 203//129
f 190//130 204//120 193//125 194//128
f 213//121 204//120 190//130 214//131
f 194//128 203//129 188//132 189//133
f 129//134 189//133 188//132 135//135
f 215//136 214//131 190//130 147//137
f 190//130 194//128 189//133 147//137
f 141//138 215//136 147//137 130//139
f 130//139 147//137 189//133 129//134
f 203//129 197//124 142//140 227//141
f 142//140 131//142 237//143 227//141
f 237//143 131//142 238//144 236//145
f 236//145 238//144 182//146 133//147
f 120//148 121//149 182//146 238//144
f 133//147 124//150 125//151 236//145
f 236//145 125//151 128//152 237//143
f 125//151 126//153 136//154 128//152
f 237//143 128//152 144//155 227//141
f 128//152 136//154 137//156 144//155
f 227//141 144//155 188//132 203//129
f 144//155 137//156 135//135 188//132
f 124//150 127//157 126//153 125//151
f 148//158 127//157 157//159 149//160
f 124//150 184//161 157//159 127//157
f 133//147 134//162 184//161 124//150
f 157//159 191//163 158//164 149//160
f 157//159 184//161 122//165 191//163
f 158//164 191//163 178//166 180//167
f 180//167 178//166 176//168 179//169
f 179//169 176//168 177//170 183//171
f 122//165 174//172 178//166 191//163
f 174//172 175//173 176//168 178//166
f 150//174 172//175 175//173 174//172
f 122//165 123//176 150//174 174//172
f 182//146 138//177 134//162 133//147
f 121//149 185//178 138//177 182//146
f 134//162 123//176 122//165 184//161
f 185//178 219//179 235//180 138//177
f 151//181 235//180 219//179 218//182
f 138//177 235//180 123//176 134//162
f 150//174 123//176 235//180 151//181
f 204//120 196//123 198//126 193//125
f 199//127 143//183 142//140 197//124
f 143//183 132//184 131//142 142//140
f 132//184 120//148 238//144 131//142
f 202//122 168//185 169//186 196//123
f 198//126 230//187 231//188 199//127
f 231//188 230//187 233//189 234//190
f 230//187 169//186 195//191 233//189
f 195//191 169//186 168//185 209//192
f 153//193 234//190 233//189 145//194
f 153//193 145//194 152//195 154//196
f 195//191 209//192 161//197 146//198
f 145//194 233//189 195//191 146//198
f 146//198 161//197 162//199 229//200
f 145//194 146//198 229//200 152//195
f 181//201 231//188 234//190 139//202
f 155//203 173//204 181//201 139//202
f 159//205 173//204 155//203 163//206
f 160//207 159//205 163//206 164//208
f 160//207 121//149 120//148 159//205
f 165//209 222//210 164//208 163//206
f 156//211 165//209 163//206 155//203
f 225//212 228//213 165//209 156//211
f 140//214 156//211 155//203 139//202
f 226//215 225//212 156//211 140//214
f 153//193 140//214 139//202 234//190
f 154//196 226//215 140//214 153//193
f 228//213 224//216 222//210 165//209
f 221//217 224//216 232//218 220//219
f 221//217 207//220 222//210 224//216
f 207//220 166//221 164//208 222//210
f 223//222 210//223 221//217 220//219
f 171//224 207//220 221//217 210//223
f 211//225 210//223 223//222 201//226
f 208//227 211//225 201//226 200//228
f 206//229 208//227 200//228 205//230
f 211//225 212//231 171//224 210//223
f 208//227 217//232 212//231 211//225
f 217//232 216//233 186//234 212//231
f 186//234 170//235 171//224 212//231
f 166//221 167//236 160//207 164//208
f 167//236 185//178 121//149 160//207
f 171//224 170//235 166//221 207//220
f 192//237 219//179 185//178 167//236
f 219//179 192//237 187//238 218//182
f 170//235 192//237 167//236 166//221
f 192//237 170//235 186//234 187//238
f 198//126 196//123 169//186 230//187
f 181//201 143//183 199//127 231//188
f 173//204 132//184 143//183 181//201
f 159//205 120//148 132//184 173//204
f 12//12 2//4 213//121 214//131
f 49//47 43//44 158//164 180//167
f 41//38 36//35 126//153 127//157
f 61//63 60//62 151//181 218//182
f 43//44 42//40 149//160 158//164
f 101//99 102//103 223//222 220//219
f 52//52 21//51 183//171 177//170
f 108//107 83//109 200//228 201//226
f 19//19 15//17 215//136 141//138
f 16//15 20//20 130//139 129//134
f 76//79 80//81 162//199 161//197
f 96//94 100//97 224//216 228//213
f 3//3 66//67 168//185 202//122
f 2//4 3//3 202//122 213//121
f 51//50 52//52 177//170 176//168
f 80//81 81//80 229//200 162//199
f 42//40 40//39 148//158 149//160
f 56//56 54//54 175//173 172//175
f 17//16 16//15 129//134 135//135
f 60//62 55//55 150//174 151//181
f 111//110 110//108 208//227 206//229
f 99//100 101//99 220//219 232//218
f 15//17 12//12 214//131 215//136
f 82//111 111//110 206//229 205//230
f 40//39 41//38 127//157 148//158
f 77//77 78//76 154//196 152//195
f 37//34 39//37 137//156 136//154
f 98//96 95//93 225//212 226//215
f 115//114 118//119 187//238 186//234
f 118//119 61//63 218//182 187//238
f 100//97 99//100 232//218 224//216
f 54//54 51//50 176//168 175//173
f 78//76 98//96 226//215 154//196
f 114//115 115//114 186//234 216//233
f 21//51 22//49 179//169 183//171
f 20//20 19//19 141//138 130//139
f 39//37 17//16 135//135 137//156
f 73//73 76//79 161//197 209//192
f 110//108 113//113 217//232 208//227
f 22//49 49//47 180//167 179//169
f 102//103 108//107 201//226 223//222
f 113//113 114//115 216//233 217//232
f 83//109 82//111 205//230 200//228
f 95//93 96//94 228//213 225//212
f 36//35 37//34 136//154 126//153
f 66//67 73//73 209//192 168//185
f 55//55 56//56 172//175 150//174
f 81//80 77//77 152//195 229//200
