# Blender v2.79 (sub 0) OBJ File: 'MALEBODY.blend'
# www.blender.org
mtllib male_quads.mtl
o Body.010_Body.013
v -5.307668 70.284424 -7.444816
v -4.102022 70.529495 -5.333415
v -7.215763 70.089310 -8.882916
v -9.517435 70.001175 -9.515985
v -7.491080 73.152374 -9.397513
v -9.860007 73.190605 -10.065206
v -12.251513 73.339684 -9.773768
v -12.560951 76.742218 -10.259573
v -10.106394 76.488808 -10.538954
v -16.266335 77.475716 -7.302485
v -15.959075 73.864449 -7.016753
v -14.350392 73.570312 -8.708951
v -11.845178 70.054901 -9.255620
v -13.914782 70.202438 -8.291029
v -15.559162 70.417343 -6.730852
v -7.673244 76.306503 -9.866799
v -14.835310 80.638535 -9.313438
v -12.696888 80.190536 -10.434158
v -14.667680 77.081360 -9.080854
v -10.264055 79.812263 -10.705275
v -7.841565 79.476456 -10.081131
v -5.526861 73.203537 -7.859444
v -5.631058 76.179710 -8.271844
v -5.695443 79.152878 -8.561001
v -3.855902 76.064819 -6.193052
v -3.613959 78.835419 -6.586356
v -4.054508 73.285660 -5.753917
v -3.446243 81.549400 -6.846377
v -3.252874 88.592140 -7.261055
v -3.241143 86.477905 -7.212059
v -5.605229 89.535301 -8.665909
v -5.752953 87.274139 -8.652752
v -3.349159 84.120102 -7.019630
v -5.760232 82.033981 -8.649583
v -5.794968 84.752708 -8.627618
v -7.986567 88.087563 -9.844650
v -8.044697 85.411385 -9.942812
v -7.979229 82.534004 -10.063349
v -10.349115 83.019867 -10.768635
v -12.756750 83.535217 -10.542711
v -12.724351 86.715317 -10.557253
v -10.342688 86.054321 -10.780556
v -16.441729 84.765350 -7.509472
v -16.420643 88.191360 -7.493728
v -16.438316 81.155289 -7.489162
v -16.273079 91.377991 -7.416553
v -16.087934 94.340858 -7.374790
v -10.232105 88.896729 -10.687174
v -12.589756 89.707260 -10.510521
v -12.340510 92.499054 -10.389896
v -10.019034 91.529099 -10.494879
v -7.828477 90.525078 -9.653011
v -14.662654 90.531898 -9.306156
v -14.829968 87.426514 -9.385817
v -14.865996 84.116364 -9.381500
v -14.427123 93.433098 -9.243727
v -12.554939 76.734283 -10.425948
v -10.100382 76.480873 -10.705329
v -15.953063 73.856514 -7.183128
v -15.553150 70.409409 -6.897227
v -3.440231 81.541466 -7.012752
v -5.754220 82.026047 -8.815958
v -9.853995 73.182671 -10.231581
v -12.245501 73.331749 -9.940144
v -5.520849 73.195602 -8.025820
v -4.048496 73.277725 -5.920292
v -3.343147 84.112167 -7.186005
v -7.485068 73.144440 -9.563889
v -9.511423 69.993240 -9.682360
v -5.625046 76.171776 -8.438219
v -3.849890 76.056885 -6.359427
v -5.689431 79.144943 -8.727376
v -3.607947 78.827484 -6.752731
v -14.344380 73.562378 -8.875326
v -14.661668 77.073425 -9.247230
v -13.908770 70.194504 -8.457404
v -16.435717 84.757416 -7.675848
v -14.859984 84.108429 -9.547875
v -12.750738 83.527283 -10.709086
v -7.835553 79.468521 -10.247506
v -12.690876 80.182602 -10.600533
v -10.258043 79.804329 -10.871650
v -14.829298 80.630600 -9.479814
v -5.599217 89.527367 -8.832284
v -7.822465 90.517143 -9.819386
v -3.246862 88.584206 -7.427430
v -3.235131 86.469971 -7.378434
v -5.746941 87.266205 -8.819127
v -7.667232 76.298569 -10.033175
v -11.839166 70.046967 -9.421995
v -5.301656 70.276489 -7.611191
v -4.096010 70.521561 -5.499790
v -16.267067 91.370056 -7.582928
v -16.081923 94.332924 -7.541165
v -16.260323 77.467781 -7.468860
v -16.414631 88.183426 -7.660103
v -12.718339 86.707382 -10.723628
v -10.336676 86.046387 -10.946931
v -16.432304 81.147354 -7.655538
v -7.209751 70.081375 -9.049292
v -8.038685 85.403450 -10.109187
v -7.973217 82.526070 -10.229724
v -10.343103 83.011932 -10.935010
v -7.980555 88.079628 -10.011025
v -5.788956 84.744774 -8.793993
v -12.334498 92.491119 -10.556272
v -14.421111 93.425163 -9.410102
v -14.656642 90.523964 -9.472531
v -14.823956 87.418579 -9.552192
v -10.226093 88.888794 -10.853549
v -12.583744 89.699326 -10.676896
v -10.013022 91.521164 -10.661254
vn -0.4447 0.1066 0.8893
vn -0.0690 0.1494 0.9864
vn -0.0581 -0.6868 0.7245
vn -0.2757 -0.7120 0.6458
vn -0.0659 0.0954 0.9932
vn 0.3100 0.1087 0.9445
vn 0.2992 0.1668 0.9395
vn 0.6034 0.1556 0.7821
vn 0.3629 -0.6887 0.6276
vn 0.1691 -0.6731 0.7200
vn -0.4361 0.0760 0.8967
vn 0.6295 0.0478 0.7755
vn 0.6249 0.1062 0.7734
vn 0.3041 0.0475 0.9514
vn -0.4216 0.0191 0.9066
vn -0.0738 0.0313 0.9968
vn -0.7197 0.0797 0.6897
vn -0.4367 -0.7465 0.5019
vn -0.6786 0.0850 0.7296
vn -0.6285 0.0495 0.7762
vn 0.3315 0.0427 0.9424
vn 0.3912 0.0154 0.9201
vn 0.2710 0.0645 0.9604
vn 0.2088 -0.4628 0.8615
vn -0.0441 0.7407 0.6703
vn -0.4863 0.0172 0.8736
vn 0.4986 0.0236 0.8665
vn 0.4539 0.4843 0.7479
vn 0.4547 0.0018 0.8906
vn -0.5260 0.0121 0.8504
vn -0.5768 0.0119 0.8168
vn 0.4304 -0.0010 0.9026
vn -0.4104 -0.0177 0.9117
vn -0.4199 -0.0181 0.9074
vn -0.4179 -0.0160 0.9084
vn -0.0975 0.0027 0.9952
vn -0.1261 -0.0155 0.9919
vn 0.2914 -0.0169 0.9564
vn 0.2974 0.0153 0.9546
vn -0.1520 -0.0385 0.9876
vn 0.2355 0.6969 0.6774
vn 0.4867 0.6444 0.5898
vn 0.2739 -0.0511 0.9604
vn 0.0204 0.7070 0.7069
vn 0.6202 -0.0588 0.7822
vn 0.6315 -0.0265 0.7749
vn 0.6321 0.0074 0.7748
vn 0.6876 0.5707 0.4488
vn -0.3829 0.0418 0.9228
vn -0.3924 0.0532 0.9182
vn -0.2837 -0.4916 0.8233
vn -0.3809 0.0206 0.9243
vn -0.3789 -0.0110 0.9253
vn -0.3646 0.0049 0.9311
vn -0.3791 -0.0074 0.9253
vn -0.2347 0.6402 0.7314
vn 0.4447 -0.1066 -0.8893
vn 0.3528 -0.7167 -0.6016
vn 0.0640 -0.7436 -0.6656
vn 0.0690 -0.1494 -0.9864
vn -0.2992 -0.1668 -0.9395
vn -0.3100 -0.1087 -0.9445
vn 0.0659 -0.0954 -0.9932
vn -0.6034 -0.1556 -0.7821
vn -0.2096 -0.7510 -0.6262
vn -0.4324 -0.7359 -0.5210
vn 0.4361 -0.0760 -0.8967
vn -0.6295 -0.0478 -0.7755
vn -0.3041 -0.0475 -0.9514
vn -0.6249 -0.1062 -0.7734
vn 0.0738 -0.0313 -0.9968
vn 0.4216 -0.0191 -0.9066
vn 0.7197 -0.0797 -0.6897
vn 0.5817 -0.6797 -0.4466
vn 0.6786 -0.0850 -0.7296
vn 0.6285 -0.0495 -0.7762
vn 0.9393 -0.0955 -0.3294
vn 0.9211 -0.0840 -0.3800
vn 0.9575 -0.0618 -0.2817
vn 0.7665 -0.6250 -0.1476
vn 0.5610 0.5663 -0.6038
vn 0.8033 0.4394 -0.4019
vn 0.8744 -0.0357 -0.4839
vn 0.4863 -0.0172 -0.8736
vn 0.8890 -0.0455 -0.4555
vn 0.9051 -0.0520 -0.4221
vn 0.5768 -0.0119 -0.8168
vn 0.5260 -0.0121 -0.8504
vn 0.4104 0.0177 -0.9117
vn 0.4199 0.0181 -0.9074
vn 0.4179 0.0160 -0.9084
vn 0.0975 -0.0027 -0.9952
vn -0.2974 -0.0153 -0.9546
vn -0.2914 0.0169 -0.9564
vn 0.1261 0.0155 -0.9919
vn 0.1520 0.0385 -0.9876
vn -0.2739 0.0511 -0.9604
vn 0.0308 0.6696 -0.7421
vn 0.3436 0.6119 -0.7124
vn 0.5255 0.5921 -0.6109
vn -0.6202 0.0588 -0.7822
vn -0.6315 0.0265 -0.7749
vn -0.6321 -0.0074 -0.7748
vn -0.2148 0.7324 -0.6460
vn -0.9184 -0.1294 -0.3739
vn -0.9262 -0.0874 -0.3666
vn -0.7047 -0.6604 -0.2593
vn -0.9300 -0.0337 -0.3659
vn -0.9320 0.0010 -0.3624
vn -0.9299 0.0323 -0.3663
vn -0.9257 0.0612 -0.3733
vn -0.5000 0.7992 -0.3335
usemtl default
s 1
f 5//1 6//2 4//3 3//4
f 6//2 9//5 8//6 7//7
f 12//8 14//9 13//10 7//7
f 6//2 5//1 16//11 9//5
f 17//12 19//13 8//6 18//14
f 9//5 16//11 21//15 20//16
f 22//17 5//1 3//4 1//18
f 16//11 5//1 22//17 23//19
f 24//20 21//15 16//11 23//19
f 25//21 26//22 24//20 23//19
f 23//19 22//17 27//23 25//21
f 1//18 2//24 27//23 22//17
f 31//25 32//26 30//27 29//28
f 33//29 35//30 34//31 28//32
f 36//33 37//34 35//30 32//26
f 35//30 37//34 38//35 34//31
f 34//31 38//35 21//15 24//20
f 24//20 26//22 28//32 34//31
f 21//15 38//35 39//36 20//16
f 39//36 42//37 41//38 40//39
f 20//16 39//36 40//39 18//14
f 48//40 51//41 50//42 49//43
f 37//34 36//33 48//40 42//37
f 36//33 52//44 51//41 48//40
f 31//25 52//44 36//33 32//26
f 37//34 42//37 39//36 38//35
f 53//45 54//46 41//38 49//43
f 33//29 30//27 32//26 35//30
f 7//7 8//6 19//13 12//8
f 7//7 13//10 4//3 6//2
f 18//14 8//6 9//5 20//16
f 40//39 41//38 54//46 55//47
f 18//14 40//39 55//47 17//12
f 49//43 50//42 56//48 53//45
f 49//43 41//38 42//37 48//40
f 12//8 19//13 10//49 11//50
f 11//50 15//51 14//9 12//8
f 45//52 10//49 19//13 17//12
f 55//47 54//46 44//53 43//54
f 17//12 55//47 43//54 45//52
f 54//46 53//45 46//55 44//53
f 53//45 56//48 47//56 46//55
f 68//57 100//58 69//59 63//60
f 63//60 64//61 57//62 58//63
f 74//64 64//61 90//65 76//66
f 63//60 58//63 89//67 68//57
f 83//68 81//69 57//62 75//70
f 58//63 82//71 80//72 89//67
f 65//73 91//74 100//58 68//57
f 89//67 70//75 65//73 68//57
f 72//76 70//75 89//67 80//72
f 71//77 70//75 72//76 73//78
f 70//75 71//77 66//79 65//73
f 91//74 65//73 66//79 92//80
f 84//81 86//82 87//83 88//84
f 67//85 61//86 62//87 105//88
f 104//89 88//84 105//88 101//90
f 105//88 62//87 102//91 101//90
f 62//87 72//76 80//72 102//91
f 72//76 62//87 61//86 73//78
f 80//72 82//71 103//92 102//91
f 103//92 79//93 97//94 98//95
f 82//71 81//69 79//93 103//92
f 110//96 111//97 106//98 112//99
f 101//90 98//95 110//96 104//89
f 104//89 110//96 112//99 85//100
f 84//81 88//84 104//89 85//100
f 101//90 102//91 103//92 98//95
f 108//101 111//97 97//94 109//102
f 67//85 105//88 88//84 87//83
f 64//61 74//64 75//70 57//62
f 64//61 63//60 69//59 90//65
f 81//69 82//71 58//63 57//62
f 79//93 78//103 109//102 97//94
f 81//69 83//68 78//103 79//93
f 111//97 108//101 107//104 106//98
f 111//97 110//96 98//95 97//94
f 74//64 59//105 95//106 75//70
f 59//105 74//64 76//66 60//107
f 99//108 83//68 75//70 95//106
f 78//103 77//109 96//110 109//102
f 83//68 99//108 77//109 78//103
f 109//102 96//110 93//111 108//101
f 108//101 93//111 94//112 107//104
f 50//42 51//41 112//99 106//98
f 29//28 30//27 87//83 86//82
f 43//54 44//53 96//110 77//109
f 28//32 26//22 73//78 61//86
f 44//53 46//55 93//111 96//110
f 10//49 45//52 99//108 95//106
f 2//24 1//18 91//74 92//80
f 27//23 2//24 92//80 66//79
f 33//29 28//32 61//86 67//85
f 4//3 13//10 90//65 69//59
f 30//27 33//29 67//85 87//83
f 14//9 15//51 60//107 76//66
f 45//52 43//54 77//109 99//108
f 52//44 31//25 84//81 85//100
f 46//55 47//56 94//112 93//111
f 51//41 52//44 85//100 112//99
f 1//18 3//4 100//58 91//74
f 13//10 14//9 76//66 90//65
f 56//48 50//42 106//98 107//104
f 15//51 11//50 59//105 60//107
f 26//22 25//21 71//77 73//78
f 11//50 10//49 95//106 59//105
f 47//56 56//48 107//104 94//112
f 31//25 29//28 86//82 84//81
f 25//21 27//23 66//79 71//77
f 3//4 4//3 69//59 100//58
o Body.009_Body.012
v 5.230545 70.284363 -7.444838
v 7.138627 70.089180 -8.883103
v 9.440304 70.001106 -9.515982
v 7.413712 73.151993 -9.398249
v 9.782896 73.190353 -10.065394
v 12.485428 76.740707 -10.265066
v 12.174423 73.339500 -9.773829
v 10.028838 76.486618 -10.549063
v 15.882052 73.864349 -7.016816
v 16.191866 77.475082 -7.304396
v 17.320293 77.887047 -5.096728
v 16.997316 74.181900 -4.882475
v 11.768060 70.054871 -9.255616
v 14.273318 73.570190 -8.708964
v 13.837656 70.202408 -8.291005
v 16.569220 70.685738 -4.680508
v 15.482041 70.417320 -6.730845
v 7.592248 76.304382 -9.876697
v 12.627852 80.187401 -10.461367
v 14.766021 80.636688 -9.324762
v 14.592571 77.080460 -9.083704
v 7.756449 79.473297 -10.103855
v 10.186275 79.808838 -10.734856
v 5.449212 73.203255 -7.860204
v 5.548278 76.178360 -8.279136
v 5.607477 79.150993 -8.576448
v 5.536982 89.536552 -8.652258
v 5.665335 87.274139 -8.673637
v 17.548962 85.434845 -5.208784
v 17.522930 88.958145 -5.135283
v 17.413763 81.697441 -5.186779
v 17.335331 92.183380 -4.996113
v 17.109783 95.154778 -4.881355
v 5.665340 82.032013 -8.678452
v 5.695567 84.751564 -8.667519
v 7.895458 88.088646 -9.886528
v 7.934951 85.410904 -10.037967
v 7.883177 82.530670 -10.119715
v 10.270134 83.016449 -10.835089
v 12.677232 86.717285 -10.659372
v 12.697757 83.532280 -10.602810
v 10.260139 86.055374 -10.889542
v 16.427603 84.764313 -7.553004
v 16.409370 88.194275 -7.541989
v 16.368452 81.154221 -7.494481
v 16.222431 91.380875 -7.437362
v 16.016428 94.342300 -7.379772
v 12.266669 92.501373 -10.401672
v 12.525990 89.711449 -10.558780
v 10.152570 88.900414 -10.732973
v 9.943346 91.530243 -10.486647
v 7.757387 90.524857 -9.636574
v 14.611161 90.535522 -9.343573
v 14.803995 87.428978 -9.456573
v 14.817936 84.114563 -9.420469
v 14.357017 93.435097 -9.254808
v 8.012274 88.071579 -10.292236
v 7.874203 90.507790 -10.042282
v 10.303090 79.791771 -11.140564
v 10.386950 82.999382 -11.240797
v 8.051766 85.393837 -10.443675
v 5.812383 84.734497 -9.073227
v 5.782156 82.014946 -9.084161
v 14.882836 80.619621 -9.730471
v 14.934752 84.097496 -9.826178
v 16.308681 77.458015 -7.710104
v 16.485268 81.137154 -7.900189
v 17.665777 85.417778 -5.614492
v 16.544418 84.747246 -7.958713
v 17.530579 81.680374 -5.592487
v 17.639746 88.941078 -5.540991
v 16.526186 88.177208 -7.947698
v 17.452147 92.166313 -5.401822
v 16.339247 91.363808 -7.843071
v 12.744668 80.170334 -10.867075
v 12.814572 83.515213 -11.008518
v 17.226599 95.137711 -5.287063
v 16.133244 94.325233 -7.785480
v 7.873265 79.456230 -10.509563
v 7.999992 82.513603 -10.525423
v 5.347361 70.267296 -7.850546
v 7.255443 70.072113 -9.288812
v 5.653798 89.519485 -9.057966
v 5.782151 87.257072 -9.079346
v 14.473832 93.418030 -9.660517
v 12.383485 92.484306 -10.807381
v 5.566028 73.186188 -8.265912
v 5.665093 76.161293 -8.684844
v 14.727977 90.518456 -9.749281
v 5.724293 79.133926 -8.982157
v 14.920811 87.411911 -9.862282
v 7.530528 73.134926 -9.803957
v 12.602243 76.723640 -10.670774
v 14.709387 77.063393 -9.489412
v 7.709064 76.287315 -10.282405
v 12.291239 73.322433 -10.179538
v 14.390134 73.553123 -9.114673
v 11.884875 70.037804 -9.661325
v 9.557119 69.984039 -9.921690
v 9.899712 73.173286 -10.471103
v 10.145654 76.469551 -10.954771
v 13.954472 70.185341 -8.696713
v 15.598857 70.400253 -7.136553
v 16.686035 70.668671 -5.086216
v 17.437109 77.869980 -5.502436
v 15.998868 73.847282 -7.422524
v 17.114132 74.164833 -5.288183
v 12.642805 89.694382 -10.964488
v 10.269385 88.883347 -11.138681
v 10.060162 91.513176 -10.892355
v 12.794047 86.700218 -11.065081
v 10.376955 86.038307 -11.295250
vn 0.0533 -0.6905 0.7213
vn 0.0686 0.1509 0.9861
vn 0.4446 0.1082 0.8892
vn 0.2629 -0.7254 0.6361
vn -0.3117 0.1124 0.9435
vn 0.0651 0.0996 0.9929
vn -0.2996 0.1678 0.9392
vn -0.8156 0.1333 0.5630
vn 0.1047 0.0488 0.9933
vn 0.1054 0.0444 0.9934
vn -0.8304 0.0903 0.5497
vn -0.1726 -0.6707 0.7213
vn -0.3709 -0.6807 0.6317
vn -0.6035 0.1561 0.7819
vn -0.5155 -0.7042 0.4883
vn 0.0289 -0.4843 0.8744
vn 0.4361 0.0797 0.8963
vn -0.6260 0.1085 0.7722
vn -0.6316 0.0554 0.7732
vn -0.3079 0.0555 0.9498
vn 0.4228 0.0262 0.9058
vn 0.0727 0.0399 0.9966
vn -0.5501 0.1497 0.8216
vn -0.4971 -0.4523 0.7404
vn -0.5681 0.0969 0.8172
vn -0.5874 0.0392 0.8083
vn -0.5999 -0.0284 0.7996
vn 0.4278 -0.0207 0.9036
vn 0.4204 -0.0373 0.9066
vn -0.6154 -0.0696 0.7851
vn 0.4216 -0.0053 0.9067
vn -0.5961 0.0009 0.8029
vn 0.0952 0.0154 0.9953
vn -0.2933 -0.0195 0.9558
vn 0.1273 -0.0188 0.9917
vn -0.3034 0.0272 0.9525
vn 0.1005 -0.0299 0.9945
vn -0.8357 -0.0381 0.5478
vn -0.8413 0.0112 0.5404
vn 0.0914 -0.0143 0.9957
vn -0.8394 0.0441 0.5416
vn 0.0735 0.0174 0.9971
vn 0.0908 -0.0287 0.9955
vn -0.8291 -0.0730 0.5542
vn 0.0018 0.6156 0.7881
vn -0.7706 0.5937 0.2315
vn -0.4908 0.6822 0.5419
vn -0.2722 0.7274 0.6299
vn 0.1601 -0.0586 0.9854
vn -0.2685 -0.0672 0.9609
vn -0.0533 0.7447 0.6653
vn -0.6139 0.4186 0.6692
vn -0.6317 -0.0295 0.7746
vn -0.6182 -0.0719 0.7827
vn -0.6346 0.0187 0.7726
vn -0.6685 0.6271 0.3997
vn -0.0616 -0.7420 -0.6675
vn -0.3525 -0.7109 -0.6086
vn -0.4446 -0.1082 -0.8892
vn -0.0686 -0.1509 -0.9861
vn 0.3117 -0.1124 -0.9435
vn 0.2996 -0.1678 -0.9392
vn -0.0651 -0.0996 -0.9929
vn 0.8156 -0.1333 -0.5630
vn 0.8304 -0.0903 -0.5497
vn 0.9943 -0.0628 -0.0860
vn 0.9900 -0.1097 -0.0882
vn 0.2109 -0.7521 -0.6244
vn 0.6035 -0.1561 -0.7819
vn 0.4317 -0.7397 -0.5162
vn 0.7679 -0.6398 -0.0303
vn 0.5987 -0.7166 -0.3579
vn -0.4361 -0.0797 -0.8963
vn 0.3079 -0.0555 -0.9498
vn 0.6316 -0.0554 -0.7732
vn 0.6261 -0.1085 -0.7722
vn -0.4228 -0.0262 -0.9058
vn -0.0727 -0.0399 -0.9966
vn -0.6761 -0.6215 -0.3957
vn -0.8263 -0.0361 -0.5621
vn -0.8225 -0.0408 -0.5672
vn -0.8130 -0.0134 -0.5821
vn -0.7955 0.0108 -0.6059
vn -0.7791 -0.0053 -0.6269
vn -0.4204 0.0373 -0.9066
vn -0.4278 0.0207 -0.9036
vn -0.4216 0.0053 -0.9067
vn -0.8034 0.0110 -0.5953
vn -0.0952 -0.0154 -0.9953
vn 0.2933 0.0195 -0.9558
vn 0.3034 -0.0272 -0.9525
vn -0.1273 0.0188 -0.9917
vn 0.9957 0.0359 -0.0857
vn 0.9967 -0.0116 -0.0805
vn 0.8413 -0.0112 -0.5404
vn 0.8357 0.0381 -0.5478
vn 0.9964 -0.0332 -0.0779
vn 0.8394 -0.0441 -0.5416
vn 0.8291 0.0730 -0.5542
vn 0.9942 0.0678 -0.0829
vn 0.6062 0.7829 -0.1396
vn 0.4126 0.7430 -0.5270
vn -0.0143 0.6387 -0.7693
vn 0.2685 0.0672 -0.9609
vn -0.1601 0.0586 -0.9854
vn -0.3342 0.5795 -0.7433
vn -0.5237 0.5458 -0.6540
vn -0.7392 0.4015 -0.5407
vn 0.6182 0.0719 -0.7827
vn 0.6317 0.0295 -0.7746
vn 0.6346 -0.0187 -0.7726
vn 0.2449 0.6970 -0.6739
usemtl default
s 1
f 115//113 117//114 116//115 114//116
f 118//117 120//118 117//114 119//119
f 121//120 124//121 123//122 122//123
f 125//124 127//125 126//126 119//119
f 121//120 129//127 128//128 124//121
f 130//129 116//115 117//114 120//118
f 118//117 133//130 132//131 131//132
f 134//133 130//129 120//118 135//134
f 114//116 116//115 136//135 113//136
f 136//135 116//115 130//129 137//137
f 130//129 134//133 138//138 137//137
f 147//139 149//140 148//141 140//142
f 150//143 149//140 147//139 146//144
f 134//133 150//143 146//144 138//138
f 151//145 150//143 134//133 135//134
f 152//146 154//147 151//145 153//148
f 142//149 156//150 155//151 141//152
f 141//152 155//151 157//153 143//154
f 153//148 151//145 135//134 131//132
f 142//149 144//155 158//156 156//150
f 145//157 159//158 158//156 144//155
f 160//159 163//160 162//161 161//162
f 162//161 148//141 149//140 154//147
f 163//160 164//163 148//141 162//161
f 148//141 164//163 139//164 140//142
f 151//145 154//147 149//140 150//143
f 152//146 166//165 165//166 161//162
f 157//153 122//123 123//122 143//154
f 133//130 118//117 119//119 126//126
f 115//113 125//124 119//119 117//114
f 120//118 118//117 131//132 135//134
f 166//165 152//146 153//148 167//167
f 167//167 153//148 131//132 132//131
f 168//168 160//159 161//162 165//166
f 154//147 152//146 161//162 162//161
f 122//123 133//130 126//126 121//120
f 127//125 129//127 121//120 126//126
f 133//130 122//123 157//153 132//131
f 156//150 166//165 167//167 155//151
f 155//151 167//167 132//131 157//153
f 158//156 165//166 166//165 156//150
f 159//158 168//168 165//166 158//156
f 211//169 194//170 204//171 212//172
f 205//173 208//174 212//172 213//175
f 218//176 178//177 217//178 219//179
f 210//180 208//174 209//181 214//182
f 218//176 219//179 216//183 215//184
f 207//185 213//175 212//172 204//171
f 205//173 187//186 176//187 206//188
f 191//189 171//190 213//175 207//185
f 194//170 193//191 199//192 204//171
f 199//192 200//193 207//185 204//171
f 207//185 200//193 202//194 191//189
f 174//195 196//196 169//197 173//198
f 192//199 175//200 174//195 173//198
f 191//189 202//194 175//200 192//199
f 172//201 171//190 191//189 192//199
f 223//202 188//203 172//201 224//204
f 183//205 180//206 181//207 184//208
f 180//206 182//209 179//210 181//207
f 188//203 187//186 171//190 172//201
f 183//205 184//208 186//211 185//212
f 189//213 185//212 186//211 190//214
f 198//215 220//216 221//217 222//218
f 221//217 224//204 173//198 169//197
f 222//218 221//217 169//197 170//219
f 169//197 196//196 195//220 170//219
f 172//201 192//199 173//198 224//204
f 223//202 220//216 201//221 203//222
f 179//210 182//209 217//178 178//177
f 206//188 209//181 208//174 205//173
f 211//169 212//172 208//174 210//180
f 213//175 171//190 187//186 205//173
f 203//222 177//223 188//203 223//202
f 177//223 176//187 187//186 188//203
f 197//224 201//221 220//216 198//215
f 224//204 221//217 220//216 223//202
f 178//177 218//176 209//181 206//188
f 214//182 209//181 218//176 215//184
f 206//188 176//187 179//210 178//177
f 184//208 181//207 177//223 203//222
f 181//207 179//210 176//187 177//223
f 186//211 184//208 203//222 201//221
f 190//214 186//211 201//221 197//224
f 124//121 128//128 216//183 219//179
f 113//136 136//135 199//192 193//191
f 141//152 143//154 182//209 180//206
f 137//137 138//138 202//194 200//193
f 125//124 115//113 211//169 210//180
f 140//142 139//164 195//220 196//196
f 142//149 141//152 180//206 183//205
f 127//125 125//124 210//180 214//182
f 144//155 142//149 183//205 185//212
f 115//113 114//116 194//170 211//169
f 146//144 147//139 174//195 175//200
f 139//164 164//163 170//219 195//220
f 159//158 145//157 189//213 190//214
f 147//139 140//142 196//196 174//195
f 129//127 127//125 214//182 215//184
f 168//168 159//158 190//214 197//224
f 164//163 163//160 222//218 170//219
f 128//128 129//127 215//184 216//183
f 160//159 168//168 197//224 198//215
f 123//122 124//121 219//179 217//178
f 163//160 160//159 198//215 222//218
f 143//154 123//122 217//178 182//209
f 138//138 146//144 175//200 202//194
f 136//135 137//137 200//193 199//192
f 145//157 144//155 185//212 189//213
f 114//116 113//136 193//191 194//170
