# Blender v2.79 (sub 0) OBJ File: 'MALEBODY.blend'
# www.blender.org
mtllib male_calves.mtl
o Body.018_Body.024
v -12.468588 30.131927 7.507142
v -6.506736 35.952084 8.565198
v -6.769242 33.003010 8.064819
v -7.126861 30.374313 7.192634
v -8.843734 30.374893 7.633050
v -10.649809 30.268967 7.901363
v -8.700529 35.969143 9.039128
v -8.793313 33.044231 8.402831
v -14.794100 35.808678 7.022975
v -12.937928 32.844757 8.195460
v -13.138647 35.857975 8.549015
v -10.970299 35.924877 9.246144
v -10.865971 32.963196 8.639768
v -14.451617 32.818336 6.702034
v -13.850735 30.078331 6.269588
v -11.969341 27.589264 7.025031
v -11.421060 25.134483 6.717670
v -12.693723 25.049881 5.852817
v -13.281771 27.516457 6.004065
v -6.957477 25.427879 6.193432
v -7.186855 27.872124 6.574594
v -8.670691 27.823708 7.174129
v -8.323362 25.361389 6.840778
v -9.874087 25.260536 7.004952
v -10.318442 27.717682 7.404351
v -7.612343 52.419556 6.150295
v -10.996290 39.015167 9.240988
v -6.792500 42.005505 8.123216
v -6.517148 39.064823 8.558661
v -8.689384 39.064083 9.222091
v -8.790428 42.037369 8.926620
v -11.006841 41.987122 8.992043
v -12.200502 52.874680 7.094329
v -12.403868 51.106224 7.179540
v -13.867921 50.998493 6.273396
v -13.676715 52.796150 6.292255
v -10.560782 52.829884 7.297672
v -8.989062 52.664707 6.896161
v -7.721855 50.694214 6.322462
v -7.654102 48.869286 6.635366
v -9.114755 49.086269 7.433688
v -10.842038 49.183090 7.706151
v -10.719254 51.090237 7.464722
v -9.075027 50.957554 7.156056
v -12.589085 49.169529 7.353996
v -12.792214 47.026421 7.669849
v -10.992299 44.701855 8.619945
v -10.933294 47.089039 8.152475
v -8.926538 44.708858 8.443200
v -9.043157 47.045902 7.927785
v -7.113240 44.621525 7.607968
v -7.427949 46.880814 7.087767
v -13.006637 44.621910 8.072358
v -14.633826 44.457691 6.803893
v -13.136344 41.903320 8.383450
v -13.190584 38.944519 8.585967
v -14.915451 38.848488 7.131508
v -14.834160 41.764675 7.020310
v -14.347998 46.872723 6.545868
v -14.056311 49.028969 6.324293
v -14.370460 46.873051 6.776230
v -12.814676 47.026749 7.900211
v -14.078773 49.029297 6.554655
v -12.611547 49.169857 7.584358
v -13.158806 41.903648 8.613811
v -11.029303 41.987450 9.222404
v -8.711846 39.064411 9.452453
v -8.722991 35.969471 9.269490
v -14.656288 44.458019 7.034255
v -7.209317 27.872452 6.804955
v -7.149323 30.374641 7.422996
v -8.693152 27.824036 7.404490
v -8.866196 30.375221 7.863412
v -10.340904 27.718010 7.634713
v -10.672271 30.269295 8.131725
v -11.991803 27.589592 7.255393
v -12.491050 30.132256 7.737504
v -13.029099 44.622238 8.302720
v -14.856622 41.765003 7.250672
v -14.937913 38.848816 7.361870
v -13.213046 38.944847 8.816329
v -7.450411 46.881142 7.318129
v -7.135702 44.621853 7.838330
v -9.065619 47.046230 8.158147
v -8.949000 44.709187 8.673562
v -10.955756 47.089367 8.382837
v -7.676564 48.869614 6.865728
v -9.137217 49.086597 7.664050
v -7.744317 50.694542 6.552824
v -7.634805 52.419884 6.380657
v -10.864500 49.183418 7.936513
v -9.011524 52.665035 7.126523
v -11.014761 44.702183 8.850307
v -9.097489 50.957882 7.386418
v -10.741715 51.090565 7.695084
v -10.583244 52.830212 7.528034
v -12.426330 51.106552 7.409902
v -8.815775 33.044559 8.633193
v -6.791704 33.003338 8.295181
v -8.812890 42.037697 9.156981
v -6.529198 35.952412 8.795560
v -13.873197 30.078659 6.499950
v -14.474079 32.818665 6.932395
v -6.814962 42.005833 8.353578
v -10.992761 35.925205 9.476506
v -13.161109 35.858303 8.779377
v -6.539610 39.065151 8.789023
v -11.018752 39.015495 9.471350
v -10.888433 32.963524 8.870130
v -12.960390 32.845085 8.425822
v -14.816562 35.809006 7.253337
v -13.699177 52.796478 6.522617
v -13.890383 50.998821 6.503757
v -12.222964 52.875008 7.324691
v -11.443521 25.134811 6.948032
v -13.304233 27.516785 6.234426
v -12.716185 25.050209 6.083179
v -8.345824 25.361717 7.071140
v -6.979939 25.428207 6.423794
v -9.896549 25.260864 7.235314
vn -0.3754 0.0615 -0.9248
vn 0.4311 0.2593 -0.8642
vn 0.4058 0.2154 -0.8882
vn -0.3989 0.0071 -0.9169
vn -0.3898 0.0536 -0.9193
vn 0.4617 0.2197 -0.8594
vn -0.3981 -0.0158 -0.9172
vn 0.4789 -0.0219 -0.8776
vn 0.4847 0.0906 -0.8700
vn -0.3854 0.0184 -0.9226
vn 0.0725 -0.6868 -0.7232
vn 0.3303 -0.6827 -0.6517
vn 0.0285 0.1750 -0.9841
vn 0.1293 -0.0326 -0.9911
vn -0.1645 -0.0439 -0.9854
vn -0.1485 0.1142 -0.9823
vn 0.1001 0.1028 -0.9896
vn 0.0267 0.2352 -0.9716
vn 0.0518 0.2293 -0.9720
vn -0.1944 0.2339 -0.9526
vn -0.2448 0.1455 -0.9586
vn -0.1538 0.2421 -0.9580
vn 0.7054 0.0852 -0.7037
vn 0.6309 0.1418 -0.7628
vn 0.6666 0.0065 -0.7454
vn 0.6986 0.0454 -0.7140
vn 0.5729 0.1538 -0.8050
vn -0.2281 -0.5705 -0.7889
vn 0.5145 -0.4757 -0.7134
vn -0.1550 -0.7151 -0.6815
vn 0.4266 -0.1809 -0.8862
vn 0.0628 -0.2026 -0.9772
vn 0.0964 -0.1713 -0.9805
vn 0.4484 -0.1519 -0.8808
vn 0.3955 -0.1466 -0.9067
vn -0.4033 -0.0318 -0.9145
vn -0.4375 0.0110 -0.8991
vn 0.3542 -0.0963 -0.9302
vn 0.2045 0.7339 -0.6477
vn 0.0255 0.7287 -0.6843
vn -0.0179 -0.1107 -0.9937
vn 0.0237 -0.1662 -0.9858
vn 0.1226 -0.1141 -0.9859
vn 0.4630 -0.0946 -0.8813
vn 0.5049 -0.1295 -0.8534
vn -0.3600 -0.1133 -0.9260
vn -0.1453 0.7288 -0.6691
vn 0.4888 0.4589 -0.7419
vn -0.2010 -0.1494 -0.9681
vn 0.5912 -0.0688 -0.8035
vn 0.6177 -0.0401 -0.7854
vn -0.2501 -0.2035 -0.9466
vn -0.4089 -0.0527 -0.9110
vn -0.4109 -0.0533 -0.9101
vn -0.3451 0.5591 -0.7538
vn -0.3328 -0.1827 -0.9251
vn 0.5255 -0.1154 -0.8429
vn 0.5610 -0.0988 -0.8219
vn -0.2942 -0.2269 -0.9284
vn -0.4012 -0.0386 -0.9152
vn -0.9027 -0.2559 0.3460
vn -0.8915 -0.2488 0.3784
vn -0.4058 -0.2154 0.8882
vn -0.4311 -0.2593 0.8642
vn -0.9182 -0.1968 0.3435
vn -0.4617 -0.2197 0.8594
vn -0.9251 0.0015 0.3797
vn -0.9280 -0.0884 0.3619
vn -0.4847 -0.0906 0.8700
vn -0.4789 0.0219 0.8776
vn 0.0318 -0.7256 0.6873
vn -0.0285 -0.1750 0.9841
vn -0.2177 -0.7410 0.6353
vn -0.1293 0.0326 0.9911
vn -0.1001 -0.1028 0.9896
vn 0.1485 -0.1142 0.9823
vn 0.1645 0.0439 0.9854
vn -0.0267 -0.2352 0.9716
vn -0.0518 -0.2293 0.9720
vn 0.2448 -0.1455 0.9586
vn 0.1944 -0.2339 0.9526
vn 0.7478 -0.2214 0.6259
vn 0.7154 -0.2362 0.6576
vn 0.1538 -0.2421 0.9580
vn 0.7395 -0.0991 0.6658
vn 0.7665 0.0639 0.6390
vn 0.7960 -0.0760 0.6005
vn -0.6258 -0.7168 0.3075
vn 0.2339 -0.6979 0.6769
vn 0.6829 -0.5919 0.4281
vn -0.4266 0.1809 0.8862
vn -0.4484 0.1519 0.8808
vn -0.0964 0.1713 0.9805
vn -0.0628 0.2026 0.9772
vn -0.3955 0.1466 0.9067
vn -0.3542 0.0963 0.9302
vn -0.8954 0.1096 0.4315
vn -0.9037 0.1413 0.4040
vn -0.2297 0.7048 0.6712
vn 0.0179 0.1107 0.9937
vn 0.0713 0.7069 0.7037
vn -0.0237 0.1662 0.9858
vn -0.4630 0.0946 0.8813
vn -0.1226 0.1141 0.9859
vn 0.8452 0.0643 0.5306
vn 0.7332 0.5477 0.4030
vn 0.3353 0.6959 0.6350
vn 0.3600 0.1133 0.9260
vn 0.2010 0.1494 0.9681
vn 0.7998 0.2105 0.5621
vn 0.2501 0.2035 0.9466
vn 0.7858 0.1700 0.5947
vn -0.9128 0.1280 0.3878
vn -0.9052 0.1615 0.3931
vn -0.6938 0.6227 0.3618
vn 0.3328 0.1827 0.9251
vn 0.2942 0.2269 0.9284
vn 0.8139 0.2167 0.5391
vn 0.8337 0.1615 0.5281
vn -0.9199 0.0725 0.3853
usemtl default
s 1
f 15//1 1//2 16//3 19//4
f 14//5 10//6 1//2 15//1
f 57//7 56//8 11//9 9//10
f 9//10 11//9 10//6 14//5
f 24//11 17//12 16//3 25//13
f 27//14 30//15 7//16 12//17
f 25//13 16//3 1//2 6//18
f 6//18 1//2 10//6 13//19
f 6//18 5//20 22//21 25//13
f 5//20 8//22 3//23 4//24
f 7//16 30//15 29//25 2//26
f 3//23 8//22 7//16 2//26
f 4//24 21//27 22//21 5//20
f 6//18 13//19 8//22 5//20
f 12//17 7//16 8//22 13//19
f 12//17 11//9 56//8 27//14
f 13//19 10//6 11//9 12//17
f 19//4 16//3 17//12 18//28
f 21//27 20//29 23//30 22//21
f 25//13 22//21 23//30 24//11
f 46//31 48//32 47//33 53//34
f 45//35 60//36 35//37 34//38
f 33//39 37//40 43//41 34//38
f 45//35 42//42 48//32 46//31
f 53//34 47//33 32//43 55//44
f 55//44 32//43 27//14 56//8
f 39//45 44//46 38//47 26//48
f 30//15 27//14 32//43 31//49
f 51//50 28//51 31//49 49//52
f 31//49 28//51 29//25 30//15
f 47//33 49//52 31//49 32//43
f 54//53 59//54 46//31 53//34
f 42//42 45//35 34//38 43//41
f 36//55 33//39 34//38 35//37
f 43//41 37//40 38//47 44//46
f 41//56 40//57 52//58 50//59
f 41//56 50//59 48//32 42//42
f 40//57 41//56 44//46 39//45
f 44//46 41//56 42//42 43//41
f 59//54 60//36 45//35 46//31
f 50//59 49//52 47//33 48//32
f 51//50 49//52 50//59 52//58
f 54//53 53//34 55//44 58//60
f 58//60 55//44 56//8 57//7
f 102//61 116//62 76//63 77//64
f 103//65 102//61 77//64 110//66
f 80//67 111//68 106//69 81//70
f 111//68 103//65 110//66 106//69
f 120//71 74//72 76//63 115//73
f 108//74 105//75 68//76 67//77
f 74//72 75//78 77//64 76//63
f 75//78 109//79 110//66 77//64
f 75//78 74//72 72//80 73//81
f 73//81 71//82 99//83 98//84
f 68//76 101//85 107//86 67//77
f 99//83 101//85 68//76 98//84
f 71//82 73//81 72//80 70//87
f 75//78 73//81 98//84 109//79
f 105//75 109//79 98//84 68//76
f 105//75 108//74 81//70 106//69
f 109//79 105//75 106//69 110//66
f 116//62 117//88 115//73 76//63
f 70//87 72//80 118//89 119//90
f 74//72 120//71 118//89 72//80
f 62//91 78//92 93//93 86//94
f 64//95 97//96 113//97 63//98
f 114//99 97//96 95//100 96//101
f 64//95 62//91 86//94 91//102
f 78//92 65//103 66//104 93//93
f 65//103 81//70 108//74 66//104
f 89//105 90//106 92//107 94//108
f 67//77 100//109 66//104 108//74
f 83//110 85//111 100//109 104//112
f 100//109 67//77 107//86 104//112
f 93//93 66//104 100//109 85//111
f 69//113 78//92 62//91 61//114
f 91//102 95//100 97//96 64//95
f 112//115 113//97 97//96 114//99
f 95//100 94//108 92//107 96//101
f 88//116 84//117 82//118 87//119
f 88//116 91//102 86//94 84//117
f 87//119 89//105 94//108 88//116
f 94//108 95//100 91//102 88//116
f 61//114 62//91 64//95 63//98
f 84//117 86//94 93//93 85//111
f 83//110 82//118 84//117 85//111
f 69//113 79//120 65//103 78//92
f 79//120 80//67 81//70 65//103
f 18//28 17//12 115//73 117//88
f 52//58 40//57 87//119 82//118
f 57//7 9//10 111//68 80//67
f 28//51 51//50 83//110 104//112
f 23//30 20//29 119//90 118//89
f 39//45 26//48 90//106 89//105
f 4//24 3//23 99//83 71//82
f 38//47 37//40 96//101 92//107
f 54//53 58//60 79//120 69//113
f 9//10 14//5 103//65 111//68
f 29//25 28//51 104//112 107//86
f 40//57 39//45 89//105 87//119
f 58//60 57//7 80//67 79//120
f 20//29 21//27 70//87 119//90
f 26//48 38//47 92//107 90//106
f 3//23 2//26 101//85 99//83
f 36//55 35//37 113//97 112//115
f 37//40 33//39 114//99 96//101
f 24//11 23//30 118//89 120//71
f 35//37 60//36 63//98 113//97
f 51//50 52//58 82//118 83//110
f 33//39 36//55 112//115 114//99
f 60//36 59//54 61//114 63//98
f 59//54 54//53 69//113 61//114
f 17//12 24//11 120//71 115//73
f 21//27 4//24 71//82 70//87
f 14//5 15//1 102//61 103//65
f 2//26 29//25 107//86 101//85
f 19//4 18//28 117//88 116//62
f 15//1 19//4 116//62 102//61
o Body.017_Body.023
v 13.979179 49.028969 6.324266
v 14.270877 46.872723 6.545847
v 13.113432 38.944515 8.586149
v 14.838362 38.848507 7.131533
v 14.757023 41.764668 7.020304
v 13.059387 41.903500 8.384205
v 14.556699 44.457691 6.803887
v 12.929510 44.621922 8.072346
v 7.036111 44.621544 7.607969
v 7.350823 46.880817 7.087772
v 8.966020 47.045933 7.927824
v 8.849423 44.708862 8.443199
v 10.915176 44.701870 8.619960
v 10.856170 47.089054 8.152485
v 12.511971 49.169556 7.353994
v 12.715103 47.026432 7.669871
v 10.764921 49.183075 7.706079
v 10.642134 51.090256 7.464782
v 8.997936 50.957409 7.156110
v 9.037640 49.086250 7.433697
v 7.644779 50.694199 6.322512
v 7.576994 48.869282 6.635343
v 8.910010 52.665390 6.901903
v 10.482934 52.830173 7.297251
v 12.326767 51.106361 7.179516
v 13.790794 50.998524 6.273315
v 13.599532 52.796120 6.291980
v 12.121105 52.872707 7.086370
v 8.713331 42.037392 8.926674
v 10.930116 41.987411 8.993475
v 6.440032 39.064819 8.558695
v 8.612224 39.064060 9.222102
v 6.715354 42.005516 8.123249
v 10.919179 39.015266 9.241614
v 7.535309 52.419655 6.150526
v 8.246439 25.361351 6.840920
v 9.797461 25.259415 7.015223
v 10.241502 27.717384 7.406376
v 8.593781 27.823593 7.174994
v 7.109795 27.872154 6.574732
v 6.880332 25.427925 6.193414
v 11.343528 25.134468 6.717818
v 12.616655 25.049873 5.852785
v 13.204688 27.516464 6.004044
v 11.891911 27.589188 7.025538
v 14.374508 32.818325 6.701976
v 13.773685 30.078316 6.269516
v 13.061564 35.857983 8.548985
v 10.892774 35.924995 9.243585
v 10.790120 32.960670 8.656984
v 12.860639 32.844814 8.195671
v 14.716985 35.808701 7.022987
v 8.719145 33.044472 8.397345
v 8.622361 35.968975 9.045754
v 8.768085 30.374825 7.633115
v 10.573259 30.269035 7.901375
v 7.062914 30.380089 7.167432
v 6.692488 33.002426 8.064868
v 6.429753 35.951946 8.565280
v 12.389997 30.132568 7.505135
v 13.821257 50.999023 6.586789
v 13.629994 52.796619 6.605453
v 10.271964 27.717884 7.719850
v 10.603722 30.269535 8.214849
v 8.624244 27.824093 7.488468
v 8.798547 30.375324 7.946589
v 14.587161 44.458191 7.117360
v 12.959972 44.622421 8.385818
v 7.140257 27.872654 6.888206
v 7.093376 30.380589 7.480906
v 14.009642 49.029469 6.637739
v 14.301339 46.873222 6.859320
v 13.143894 38.945015 8.899622
v 13.089849 41.903999 8.697678
v 14.868824 38.849007 7.445006
v 14.787485 41.765167 7.333777
v 6.722950 33.002926 8.378342
v 6.460215 35.952446 8.878754
v 12.420459 30.133068 7.818608
v 13.092027 35.858482 8.862457
v 10.923236 35.925495 9.557058
v 10.820582 32.961170 8.970457
v 12.891101 32.845314 8.509144
v 8.749607 33.044971 8.710817
v 14.747447 35.809200 7.336461
v 8.879886 44.709362 8.756672
v 8.743793 42.037891 9.240147
v 10.945639 44.702370 8.933434
v 10.960578 41.987911 9.306948
v 7.381285 46.881317 7.401245
v 7.607456 48.869781 6.948816
v 9.827923 25.259914 7.328696
v 11.373990 25.134968 7.031291
v 8.276901 25.361851 7.154393
v 6.910794 25.428425 6.506887
v 11.922373 27.589687 7.339012
v 7.066573 44.622044 7.921442
v 8.652823 35.969475 9.359228
v 8.996482 47.046432 8.241297
v 10.886632 47.089554 8.465958
v 10.795383 49.183575 8.019551
v 12.745565 47.026932 7.983344
v 12.542434 49.170055 7.667468
v 12.357229 51.106861 7.492990
v 9.068102 49.086750 7.747170
v 6.745816 42.006016 8.436722
v 10.672596 51.090755 7.778255
v 13.804148 30.078815 6.582990
v 12.647118 25.050373 6.166258
v 13.235150 27.516964 6.317517
v 14.404970 32.818825 7.015450
v 10.949641 39.015766 9.555088
v 8.642686 39.064560 9.535576
v 6.470494 39.065319 8.872168
v 7.675241 50.694698 6.635985
v 7.565771 52.420155 6.463999
v 8.940473 52.665890 7.215376
v 12.151567 52.873207 7.399843
v 10.513396 52.830673 7.610724
v 9.028399 50.957909 7.469584
vn -0.4789 -0.0217 -0.8776
vn -0.4632 -0.0947 -0.8812
vn 0.4013 -0.0386 -0.9151
vn 0.3981 -0.0157 -0.9172
vn -0.4485 -0.1520 -0.8807
vn 0.4090 -0.0528 -0.9109
vn 0.2942 -0.2269 -0.9284
vn 0.2502 -0.2035 -0.9465
vn -0.5911 -0.0688 -0.8036
vn -0.5609 -0.0988 -0.8220
vn -0.0963 -0.1715 -0.9804
vn -0.0628 -0.2026 -0.9772
vn -0.3955 -0.1466 -0.9067
vn 0.4034 -0.0318 -0.9144
vn 0.4110 -0.0532 -0.9100
vn -0.4266 -0.1809 -0.8862
vn -0.0237 -0.1662 -0.9858
vn 0.3328 -0.1827 -0.9251
vn 0.3599 -0.1124 -0.9262
vn 0.0168 -0.1111 -0.9937
vn -0.5254 -0.1154 -0.8430
vn -0.5045 -0.1285 -0.8538
vn 0.1443 0.7302 -0.6678
vn -0.0262 0.7286 -0.6844
vn -0.3541 -0.0975 -0.9301
vn -0.2055 0.7316 -0.6500
vn 0.3460 0.5591 -0.7534
vn 0.4382 0.0101 -0.8988
vn 0.2011 -0.1494 -0.9681
vn -0.1226 -0.1142 -0.9859
vn -0.6662 0.0060 -0.7457
vn -0.6175 -0.0402 -0.7855
vn 0.1645 -0.0442 -0.9854
vn -0.1296 -0.0325 -0.9910
vn -0.4880 0.4591 -0.7423
vn 0.1561 -0.7148 -0.6817
vn 0.2481 0.1431 -0.9581
vn -0.0289 0.1740 -0.9843
vn -0.0725 -0.6892 -0.7209
vn -0.5144 -0.4757 -0.7135
vn -0.5728 0.1536 -0.8052
vn -0.3315 -0.6821 -0.6518
vn -0.4067 0.2148 -0.8879
vn 0.3992 0.0068 -0.9168
vn 0.2282 -0.5706 -0.7889
vn -0.4854 0.0899 -0.8697
vn -0.4633 0.2198 -0.8585
vn -0.0517 0.2296 -0.9719
vn -0.1005 0.1017 -0.9897
vn 0.1573 0.2437 -0.9570
vn 0.1492 0.1140 -0.9822
vn -0.0266 0.2364 -0.9713
vn 0.1993 0.2337 -0.9516
vn -0.6239 0.1436 -0.7682
vn -0.7063 0.0842 -0.7029
vn -0.6983 0.0458 -0.7143
vn -0.4321 0.2600 -0.8635
vn 0.3855 0.0184 -0.9225
vn 0.3902 0.0538 -0.9192
vn 0.3758 0.0613 -0.9246
vn 0.4789 0.0217 0.8776
vn 0.9250 0.0014 0.3798
vn 0.9199 0.0725 0.3854
vn 0.4632 0.0947 0.8812
vn 0.9127 0.1280 0.3879
vn 0.4485 0.1520 0.8807
vn -0.2942 0.2269 0.9284
vn -0.8140 0.2167 0.5389
vn -0.7999 0.2105 0.5619
vn -0.2502 0.2035 0.9465
vn 0.0963 0.1715 0.9804
vn 0.0628 0.2026 0.9772
vn 0.3955 0.1466 0.9067
vn 0.4266 0.1809 0.8862
vn 0.9051 0.1615 0.3933
vn 0.9037 0.1413 0.4042
vn 0.0237 0.1662 0.9858
vn -0.0168 0.1111 0.9937
vn -0.3599 0.1124 0.9262
vn -0.3328 0.1827 0.9251
vn -0.8455 0.0638 0.5302
vn -0.8338 0.1615 0.5279
vn -0.3355 0.6947 0.6362
vn -0.0694 0.7073 0.7035
vn 0.3541 0.0975 0.9301
vn 0.8951 0.1102 0.4320
vn 0.6928 0.6233 0.3626
vn 0.2295 0.7064 0.6696
vn -0.2011 0.1494 0.9681
vn 0.1226 0.1142 0.9859
vn -0.7668 0.0642 0.6386
vn -0.1645 0.0442 0.9854
vn -0.7859 0.1700 0.5945
vn 0.1296 0.0325 0.9910
vn -0.7338 0.5473 0.4024
vn -0.2353 -0.6980 0.6763
vn -0.0318 -0.7239 0.6892
vn 0.0289 -0.1740 0.9843
vn -0.2481 -0.1431 0.9581
vn -0.7970 -0.0720 0.5996
vn -0.6831 -0.5918 0.4279
vn 0.2190 -0.7413 0.6344
vn 0.6258 -0.7168 0.3077
vn 0.8914 -0.2487 0.3788
vn 0.4067 -0.2148 0.8879
vn 0.4854 -0.0899 0.8697
vn 0.1005 -0.1017 0.9897
vn 0.0517 -0.2296 0.9719
vn 0.4633 -0.2198 0.8585
vn -0.1573 -0.2437 0.9570
vn -0.1492 -0.1140 0.9822
vn -0.1993 -0.2337 0.9516
vn 0.0266 -0.2364 0.9713
vn -0.7513 -0.2204 0.6220
vn -0.7399 -0.0994 0.6653
vn -0.7155 -0.2393 0.6563
vn 0.4321 -0.2600 0.8635
vn 0.9181 -0.1970 0.3438
vn 0.9279 -0.0884 0.3620
vn 0.9025 -0.2559 0.3464
usemtl default
s 1
f 123//121 126//122 125//123 124//124
f 126//122 128//125 127//126 125//123
f 131//127 132//128 129//129 130//130
f 133//131 132//128 131//127 134//132
f 135//133 121//134 122//135 136//136
f 137//137 140//138 139//139 138//140
f 139//139 140//138 142//141 141//142
f 134//132 131//127 140//138 137//137
f 130//130 142//141 140//138 131//127
f 143//143 144//144 138//140 139//139
f 145//145 148//146 147//147 146//148
f 145//145 135//133 137//137 138//140
f 136//136 122//135 127//126 128//125
f 149//149 132//128 133//131 150//150
f 151//151 153//152 149//149 152//153
f 149//149 153//152 129//129 132//128
f 150//150 154//154 152//153 149//149
f 143//143 139//139 141//142 155//155
f 154//154 150//150 126//122 123//121
f 150//150 133//131 128//125 126//122
f 134//132 137//137 135//133 136//136
f 138//140 144//144 148//146 145//145
f 146//148 121//134 135//133 145//145
f 133//131 134//132 136//136 128//125
f 156//156 159//157 158//158 157//159
f 156//156 161//160 160//161 159//157
f 162//162 165//163 164//164 163//165
f 168//166 171//167 170//168 169//169
f 123//121 168//166 169//169 154//154
f 173//170 174//171 169//169 170//168
f 173//170 170//168 176//172 175//173
f 159//157 160//161 177//174 175//173
f 174//171 173//170 178//175 179//176
f 151//151 152//153 174//171 179//176
f 178//175 173//170 175//173 177//174
f 159//157 175//173 176//172 158//158
f 171//167 180//177 176//172 170//168
f 180//177 165//163 158//158 176//172
f 174//171 152//153 154//154 169//169
f 165//163 162//162 157//159 158//158
f 171//167 168//166 172//178 166//179
f 168//166 123//121 124//124 172//178
f 180//177 171//167 166//179 167//180
f 165//163 180//177 167//180 164//164
f 193//181 195//182 196//183 194//184
f 194//184 196//183 187//185 188//186
f 219//187 210//188 217//189 206//190
f 208//191 220//192 219//187 206//190
f 223//193 222//194 192//195 191//196
f 221//197 227//198 240//199 225//200
f 240//199 235//201 211//202 225//200
f 220//192 221//197 225//200 219//187
f 210//188 219//187 225//200 211//202
f 237//203 240//199 227//198 239//204
f 224//205 181//206 182//207 238//208
f 224//205 227//198 221//197 223//193
f 222//194 188//186 187//185 192//195
f 207//209 209//210 208//191 206//190
f 234//211 233//212 207//209 226//213
f 207//209 206//190 217//189 226//213
f 209//210 207//209 233//212 232//214
f 237//203 236//215 235//201 240//199
f 232//214 193//181 194//184 209//210
f 209//210 194//184 188//186 208//191
f 220//192 222//194 223//193 221//197
f 227//198 224//205 238//208 239//204
f 181//206 224//205 223//193 191//196
f 208//191 188//186 222//194 220//192
f 214//216 212//217 183//218 185//219
f 214//216 185//219 189//220 215//221
f 213//222 229//223 230//224 216//225
f 200//226 201//227 202//228 203//229
f 193//181 232//214 201//227 200//226
f 204//230 202//228 201//227 218//231
f 204//230 186//232 184//233 202//228
f 185//219 186//232 190//234 189//220
f 218//231 198//235 197//236 204//230
f 234//211 198//235 218//231 233//212
f 197//236 190//234 186//232 204//230
f 185//219 183//218 184//233 186//232
f 203//229 202//228 184//233 199//237
f 199//237 184//233 183//218 216//225
f 218//231 201//227 232//214 233//212
f 216//225 183//218 212//217 213//222
f 203//229 231//238 205//239 200//226
f 200//226 205//239 195//182 193//181
f 199//237 228//240 231//238 203//229
f 216//225 230//224 228//240 199//237
f 156//156 157//159 212//217 214//216
f 172//178 124//124 195//182 205//239
f 143//143 155//155 236//215 237//203
f 122//135 121//134 191//196 192//195
f 141//142 142//141 211//202 235//201
f 162//162 163//165 229//223 213//222
f 127//126 122//135 192//195 187//185
f 130//130 129//129 217//189 210//188
f 129//129 153//152 226//213 217//189
f 121//134 146//148 181//206 191//196
f 147//147 148//146 238//208 182//207
f 160//161 161//160 215//221 189//220
f 163//165 164//164 230//224 229//223
f 124//124 125//123 196//183 195//182
f 142//141 130//130 210//188 211//202
f 125//123 127//126 187//185 196//183
f 166//179 172//178 205//239 231//238
f 157//159 162//162 213//222 212//217
f 167//180 166//179 231//238 228//240
f 161//160 156//156 214//216 215//221
f 179//176 178//175 197//236 198//235
f 146//148 147//147 182//207 181//206
f 178//175 177//174 190//234 197//236
f 144//144 143//143 237//203 239//204
f 151//151 179//176 198//235 234//211
f 155//155 141//142 235//201 236//215
f 153//152 151//151 234//211 226//213
f 148//146 144//144 239//204 238//208
f 164//164 167//180 228//240 230//224
f 177//174 160//161 189//220 190//234
